<svg xmlns="http://www.w3.org/2000/svg" viewBox="0 0 1600 900" preserveAspectRatio="xMidYMid slice" xmlns:c2pa="http://c2pa.org/manifest"><metadata><c2pa:manifest>AAAWgmp1bWIAAAAeanVtZGMycGEAEQAQgAAAqgA4m3EDYzJwYQAAABZcanVtYgAAAEdqdW1kYzJtYQARABCAAACqADibcQN1cm46YzJwYTozODQ3ODQwNy1jYzgwLTQ0YTctYWIwNS03MTI1Yjc4OGQzNmUAAAADl2p1bWIAAAApanVtZGMyYXMAEQAQgAAAqgA4m3EDYzJwYS5hc3NlcnRpb25zAAAAALxqdW1iAAAARGp1bWRjYm9yABEAEIAAAKoAOJtxE2MycGEuaW5ncmVkaWVudC52MwAAAAAYYzJzaNkBEsqbvVogYgvuLh5KpFwAAABwY2JvcqNpZGM6Zm9ybWF0bWltYWdlL3N2Zyt4bWxqaW5zdGFuY2VJRHgseG1wOmlpZDpmMmQ4NzJjNC0yNWI4LTQ0NTgtYmIyOS00NDdlMDViYzAwODVscmVsYXRpb25zaGlwaHBhcmVudE9mAAAB4mp1bWIAAABBanVtZGNib3IAEQAQgAAAqgA4m3ETYzJwYS5hY3Rpb25zLnYyAAAAABhjMnNoRAN1ZN314s3GI1/yqm+HuwAAAZljYm9yomdhY3Rpb25zgqJmYWN0aW9ua2MycGEub3BlbmVkanBhcmFtZXRlcnOha2luZ3JlZGllbnRzgaJjdXJseC1zZWxmI2p1bWJmPWMycGEuYXNzZXJ0aW9ucy9jMnBhLmluZ3JlZGllbnQudjNkaGFzaFggsZWdduOvnJjel03Ku/nZTM9OkbqPEemxtWMBjYRJHTGkZmFjdGlvbngdY29tLmFudGhyb3BpYy5jbGF1ZGUucHJvdmlkZWRqcGFyYW1ldGVyc6F4H2NvbS5hbnRocm9waWMub3JpZ2luLWNvbmZpZGVuY2VndW5rbm93bmtkZXNjcmlwdGlvbnhmQ2xhdWRlIHByb3ZpZGVkIHRoaXMgZmlsZSBhdCB0aGUgcmVxdWVzdCBvZiBhIHVzZXIgYW5kIG1heSBoYXZlIGNyZWF0ZWQgb3IgbW9kaWZpZWQgdGhlIGZpbGUgY29udGVudHMubXNvZnR3YXJlQWdlbnShZG5hbWVmQ2xhdWRlcmFsbEFjdGlvbnNJbmNsdWRlZPUAAADIanVtYgAAAEBqdW1kY2JvcgARABCAAACqADibcRNjMnBhLmhhc2guZGF0YQAAAAAYYzJzaM4o9MRzKYfPLI4+h9aSFsAAAACAY2JvcqVjYWxnZnNoYTI1NmNwYWRNAAAAAAAAAAAAAAAAAGRoYXNoWCDS9XMxcQ6hEUqATI8VVxxfmlHiDU/yUblrs7iQ+r8MYmRuYW1lbmp1bWJmIG1hbmlmZXN0amV4Y2x1c2lvbnOBomVzdGFydBijZmxlbmd0aBkeBAAAAj5qdW1iAAAAJ2p1bWRjMmNsABEAEIAAAKoAOJtxA2MycGEuY2xhaW0udjIAAAACD2Nib3KlY2FsZ2ZzaGEyNTZpc2lnbmF0dXJleE1zZWxmI2p1bWJmPS9jMnBhL3VybjpjMnBhOjM4NDc4NDA3LWNjODAtNDRhNy1hYjA1LTcxMjViNzg4ZDM2ZS9jMnBhLnNpZ25hdHVyZWppbnN0YW5jZUlEeCx4bXA6aWlkOjdjZWQ5YzdlLTIzYzctNGI1Yi1hMjhhLTVmZGE5YTYwY2UzMHJjcmVhdGVkX2Fzc2VydGlvbnODomN1cmx4LXNlbGYjanVtYmY9YzJwYS5hc3NlcnRpb25zL2MycGEuaW5ncmVkaWVudC52M2RoYXNoWCCxlZ1246+cmN6XTcq7+dlMz06Ruo8R6bG1YwGNhEkdMaJjdXJseCpzZWxmI2p1bWJmPWMycGEuYXNzZXJ0aW9ucy9jMnBhLmFjdGlvbnMudjJkaGFzaFggGasxi+baSFVmkR94kfSrrkjDyHunL/7Y6gxd+gEu93eiY3VybHgpc2VsZiNqdW1iZj1jMnBhLmFzc2VydGlvbnMvYzJwYS5oYXNoLmRhdGFkaGFzaFgg6s371k32tR2yqwYQ798lqC7wD4aygXulyMkNOI58JdB0Y2xhaW1fZ2VuZXJhdG9yX2luZm+jZG5hbWVvQW50aHJvcGljIEZpbGVzZ3ZlcnNpb25lMS4wLjBrc3BlY1ZlcnNpb25lMi40LjAAABA4anVtYgAAAChqdW1kYzJjcwARABCAAACqADibcQNjMnBhLnNpZ25hdHVyZQAAABAIY2JvctKEWQISogEmGCFZAgowggIGMIIBjaADAgECAhRA5aAK7sI50L64g/oGQgU9Z1UTADAKBggqhkjOPQQDAzBJMRcwFQYDVQQKEw5BbnRocm9waWMsIFBCQzEuMCwGA1UEAxMlQW50aHJvcGljIENvbnRlbnQgQ3JlZGVudGlhbHMgUm9vdCBDQTAeFw0yNjA4MDcxODQzNTZaFw0yODA4MDYxOTQzNTZaMEQxFzAVBgNVBAoTDkFudGhyb3BpYywgUEJDMSkwJwYDVQQDEyBBbnRocm9waWMgQ2xhdWRlIENvbnRlbnQgU2lnbmluZzBZMBMGByqGSM49AgEGCCqGSM49AwEHA0IABJh6CmvLUBgFFNU0vUKlOVtE6djd17L5SuwX0LemFisBM3dkd/3cyjxFA3Qo5S46fX0/ihY0VZ7mfb9KF703t5OjWDBWMA4GA1UdDwEB/wQEAwIHgDAVBgNVHSUEDjAMBgorBgEEAYPoXgIBMAwGA1UdEwEB/wQCMAAwHwYDVR0jBBgwFoAUzlHiBIFOZFsj+OPEz5o+nMHXXMIwCgYIKoZIzj0EAwMDZwAwZAIwMXMdFJ4BetLLVY7ORuE9noqbbAZOZn/aArXyTwFAZfKrPzxF2vPoJNf1+UCdg1XGAjBwX1zd9WGqYkqmL5SFqw1QySjr1zJfpJM9+1rdDwSPLMOPOjKuiXjoU/pUUeG9RwmhY3BhZFkNngAAAAAAAAAAAAAAAAAAAAAAAAAAAAAAAAAAAAAAAAAAAAAAAAAAAAAAAAAAAAAAAAAAAAAAAAAAAAAAAAAAAAAAAAAAAAAAAAAAAAAAAAAAAAAAAAAAAAAAAAAAAAAAAAAAAAAAAAAAAAAAAAAAAAAAAAAAAAAAAAAAAAAAAAAAAAAAAAAAAAAAAAAAAAAAAAAAAAAAAAAAAAAAAAAAAAAAAAAAAAAAAAAAAAAAAAAAAAAAAAAAAAAAAAAAAAAAAAAAAAAAAAAAAAAAAAAAAAAAAAAAAAAAAAAAAAAAAAAAAAAAAAAAAAAAAAAAAAAAAAAAAAAAAAAAAAAAAAAAAAAAAAAAAAAAAAAAAAAAAAAAAAAAAAAAAAAAAAAAAAAAAAAAAAAAAAAAAAAAAAAAAAAAAAAAAAAAAAAAAAAAAAAAAAAAAAAAAAAAAAAAAAAAAAAAAAAAAAAAAAAAAAAAAAAAAAAAAAAAAAAAAAAAAAAAAAAAAAAAAAAAAAAAAAAAAAAAAAAAAAAAAAAAAAAAAAAAAAAAAAAAAAAAAAAAAAAAAAAAAAAAAAAAAAAAAAAAAAAAAAAAAAAAAAAAAAAAAAAAAAAAAAAAAAAAAAAAAAAAAAAAAAAAAAAAAAAAAAAAAAAAAAAAAAAAAAAAAAAAAAAAAAAAAAAAAAAAAAAAAAAAAAAAAAAAAAAAAAAAAAAAAAAAAAAAAAAAAAAAAAAAAAAAAAAAAAAAAAAAAAAAAAAAAAAAAAAAAAAAAAAAAAAAAAAAAAAAAAAAAAAAAAAAAAAAAAAAAAAAAAAAAAAAAAAAAAAAAAAAAAAAAAAAAAAAAAAAAAAAAAAAAAAAAAAAAAAAAAAAAAAAAAAAAAAAAAAAAAAAAAAAAAAAAAAAAAAAAAAAAAAAAAAAAAAAAAAAAAAAAAAAAAAAAAAAAAAAAAAAAAAAAAAAAAAAAAAAAAAAAAAAAAAAAAAAAAAAAAAAAAAAAAAAAAAAAAAAAAAAAAAAAAAAAAAAAAAAAAAAAAAAAAAAAAAAAAAAAAAAAAAAAAAAAAAAAAAAAAAAAAAAAAAAAAAAAAAAAAAAAAAAAAAAAAAAAAAAAAAAAAAAAAAAAAAAAAAAAAAAAAAAAAAAAAAAAAAAAAAAAAAAAAAAAAAAAAAAAAAAAAAAAAAAAAAAAAAAAAAAAAAAAAAAAAAAAAAAAAAAAAAAAAAAAAAAAAAAAAAAAAAAAAAAAAAAAAAAAAAAAAAAAAAAAAAAAAAAAAAAAAAAAAAAAAAAAAAAAAAAAAAAAAAAAAAAAAAAAAAAAAAAAAAAAAAAAAAAAAAAAAAAAAAAAAAAAAAAAAAAAAAAAAAAAAAAAAAAAAAAAAAAAAAAAAAAAAAAAAAAAAAAAAAAAAAAAAAAAAAAAAAAAAAAAAAAAAAAAAAAAAAAAAAAAAAAAAAAAAAAAAAAAAAAAAAAAAAAAAAAAAAAAAAAAAAAAAAAAAAAAAAAAAAAAAAAAAAAAAAAAAAAAAAAAAAAAAAAAAAAAAAAAAAAAAAAAAAAAAAAAAAAAAAAAAAAAAAAAAAAAAAAAAAAAAAAAAAAAAAAAAAAAAAAAAAAAAAAAAAAAAAAAAAAAAAAAAAAAAAAAAAAAAAAAAAAAAAAAAAAAAAAAAAAAAAAAAAAAAAAAAAAAAAAAAAAAAAAAAAAAAAAAAAAAAAAAAAAAAAAAAAAAAAAAAAAAAAAAAAAAAAAAAAAAAAAAAAAAAAAAAAAAAAAAAAAAAAAAAAAAAAAAAAAAAAAAAAAAAAAAAAAAAAAAAAAAAAAAAAAAAAAAAAAAAAAAAAAAAAAAAAAAAAAAAAAAAAAAAAAAAAAAAAAAAAAAAAAAAAAAAAAAAAAAAAAAAAAAAAAAAAAAAAAAAAAAAAAAAAAAAAAAAAAAAAAAAAAAAAAAAAAAAAAAAAAAAAAAAAAAAAAAAAAAAAAAAAAAAAAAAAAAAAAAAAAAAAAAAAAAAAAAAAAAAAAAAAAAAAAAAAAAAAAAAAAAAAAAAAAAAAAAAAAAAAAAAAAAAAAAAAAAAAAAAAAAAAAAAAAAAAAAAAAAAAAAAAAAAAAAAAAAAAAAAAAAAAAAAAAAAAAAAAAAAAAAAAAAAAAAAAAAAAAAAAAAAAAAAAAAAAAAAAAAAAAAAAAAAAAAAAAAAAAAAAAAAAAAAAAAAAAAAAAAAAAAAAAAAAAAAAAAAAAAAAAAAAAAAAAAAAAAAAAAAAAAAAAAAAAAAAAAAAAAAAAAAAAAAAAAAAAAAAAAAAAAAAAAAAAAAAAAAAAAAAAAAAAAAAAAAAAAAAAAAAAAAAAAAAAAAAAAAAAAAAAAAAAAAAAAAAAAAAAAAAAAAAAAAAAAAAAAAAAAAAAAAAAAAAAAAAAAAAAAAAAAAAAAAAAAAAAAAAAAAAAAAAAAAAAAAAAAAAAAAAAAAAAAAAAAAAAAAAAAAAAAAAAAAAAAAAAAAAAAAAAAAAAAAAAAAAAAAAAAAAAAAAAAAAAAAAAAAAAAAAAAAAAAAAAAAAAAAAAAAAAAAAAAAAAAAAAAAAAAAAAAAAAAAAAAAAAAAAAAAAAAAAAAAAAAAAAAAAAAAAAAAAAAAAAAAAAAAAAAAAAAAAAAAAAAAAAAAAAAAAAAAAAAAAAAAAAAAAAAAAAAAAAAAAAAAAAAAAAAAAAAAAAAAAAAAAAAAAAAAAAAAAAAAAAAAAAAAAAAAAAAAAAAAAAAAAAAAAAAAAAAAAAAAAAAAAAAAAAAAAAAAAAAAAAAAAAAAAAAAAAAAAAAAAAAAAAAAAAAAAAAAAAAAAAAAAAAAAAAAAAAAAAAAAAAAAAAAAAAAAAAAAAAAAAAAAAAAAAAAAAAAAAAAAAAAAAAAAAAAAAAAAAAAAAAAAAAAAAAAAAAAAAAAAAAAAAAAAAAAAAAAAAAAAAAAAAAAAAAAAAAAAAAAAAAAAAAAAAAAAAAAAAAAAAAAAAAAAAAAAAAAAAAAAAAAAAAAAAAAAAAAAAAAAAAAAAAAAAAAAAAAAAAAAAAAAAAAAAAAAAAAAAAAAAAAAAAAAAAAAAAAAAAAAAAAAAAAAAAAAAAAAAAAAAAAAAAAAAAAAAAAAAAAAAAAAAAAAAAAAAAAAAAAAAAAAAAAAAAAAAAAAAAAAAAAAAAAAAAAAAAAAAAAAAAAAAAAAAAAAAAAAAAAAAAAAAAAAAAAAAAAAAAAAAAAAAAAAAAAAAAAAAAAAAAAAAAAAAAAAAAAAAAAAAAAAAAAAAAAAAAAAAAAAAAAAAAAAAAAAAAAAAAAAAAAAAAAAAAAAAAAAAAAAAAAAAAAAAAAAAAAAAAAAAAAAAAAAAAAAAAAAAAAAAAAAAAAAAAAAAAAAAAAAAAAAAAAAAAAAAAAAAAAAAAAAAAAAAAAAAAAAAAAAAAAAAAAAAAAAAAAAAAAAAAAAAAAAAAAAAAAAAAAAAAAAAAAAAAAAAAAAAAAAAAAAAAAAAAAAAAAAAAAAAAAAAAAAAAAAAAAAAAAAAAAAAAAAAAAAAAAAAAAAAAAAAAAAAAAAAAAAAAAAAAAAAAAAAAAAAAAAAAAAAAAAAAAAAAAAAAAAAAAAAAAAAAAAAAAAAAAAAAAAAAAAAAAAAAAAAAAAAAAAAAAAAAAAAAAAAAAAAAAAAAAAAAAAAAAAAAAAAAAAAAAAAAAAAAAAAAAAAAAAAAAAAAAAAAAAAAAAAAAAAAAAAAAAAAAAAAAAAAAAAAAAAAAAAAAAAAAAAAAAAAAAAAAAAAAAAAAAAAAAAAAAAAAAAAAAAAAAAAAAAAAAAAAAAAAAAAAAAAAAAAAAAAAAAAAAAAAAAAAAAAAAAAAAAAAAAAAAAAAAAAAAAAAAAAAAAAAAAAAAAAAAAAAAAAAAAAAAAAAAAAAAAAAAAAAAAAAAAAAAAAAAAAAAAAAAAAAAAAAAAAAAAAAAAAAAAAAAAAAAAAAAAAAAAAAAAAAAAAAAAAAAAAAAAAAAAAAAAAAAAAAAAAAAAAAAAAAAAAAAAAAAAAAAAAAAAAAAAAAAAAAAAAAAAAAAAAAAAAAAAAAAAAAAAAAAAAAAAAAAAAAAAAAAAAAAAAAAAAAAAAAAAAAAAAAAAAAAAAAAAAAAAAAAAAAAAAAAAAAAAAAAAAAAAAAAAAAAAAAAAAAAAAAAAAAAAAAAAAAAAAAAAAAAAAAAAAAAAAAAAAAAAAAAAAAAAAAAAAAAAAAAAAAAAAAAAAAAAAAAAAAAAAAAAAAAAAAAAAAAAAAAAAAAAAAAAAAAAAAAAAAAAAAAAAAAAAAAAAAAAAAAAAAAAAAAAAAAAAAAAAAAAAAAAAAAAAAAAAAAAAAAAAAAAAAAAAAAAAAAAAAAAAAAAAAAAAAAAAAAAAAAAAAAAAAAAAAAAAAAAAAAAAAAAAAAAAAAAAAAAAAAAAAAAAAAAAAAAAAAAAAAAAAAAAAAAAAAAAAAAAAAAAAAAAAAAAAAAAAAAAAAAAAAAAAAAAAAAAAAAAAAAAAAAAAAAAAAAAAAAAAAAAAAAAAAAAAAAAAAAAAAAAAAAAAAAAAAAAAAAAAAAAAAAAAAAAAAAAAAAAAAAAAAAAAAAAAAAAAAAAAAAAAAAAAAAAAAAAAAAAAAAAAAAAAAAAAAAAAAAAAAAAAAAAAAAAAAAAAAAAAAAAAAAAPZYQPJWPQqEWXrGGOpBTe1zYmMhHB5RPasY7fLrO7UyUTfaLz3+Rx8F0UZ/9DKfDqh/iJBsQ+V2HZr7SBhQTKPYDMc=</c2pa:manifest></metadata><defs>
<radialGradient id="bgs1210" cx=".72" cy=".38" r="1.05"><stop offset="0" stop-color="#FF4FA3" stop-opacity=".30"/><stop offset=".45" stop-color="#16120e"/><stop offset="1" stop-color="#060605"/></radialGradient>
<linearGradient id="As1210" x1="0" y1="0" x2="1" y2="1"><stop offset="0" stop-color="#FF4FA3"/><stop offset="1" stop-color="#FFB02E"/></linearGradient>
<linearGradient id="Vs1210" x1="0" y1="0" x2="0" y2="1"><stop offset="0" stop-color="#fff" stop-opacity=".95"/><stop offset=".35" stop-color="#FF4FA3"/><stop offset="1" stop-color="#FFB02E"/></linearGradient>
<linearGradient id="Gs1210" x1="0" y1="0" x2="1" y2="1"><stop offset="0" stop-color="#fff" stop-opacity=".16"/><stop offset="1" stop-color="#fff" stop-opacity=".03"/></linearGradient>
<linearGradient id="Ms1210" x1="0" y1="0" x2="1" y2="0"><stop offset="0" stop-color="#d9dde2"/><stop offset=".5" stop-color="#8d949c"/><stop offset="1" stop-color="#4d535a"/></linearGradient>
<filter id="Bs1210" x="-50%" y="-50%" width="200%" height="200%"><feGaussianBlur stdDeviation="22"/></filter>
<filter id="bs1210" x="-50%" y="-50%" width="200%" height="200%"><feGaussianBlur stdDeviation="6"/></filter>
<filter id="Ss1210" x="-20%" y="-20%" width="140%" height="150%"><feDropShadow dx="0" dy="16" stdDeviation="16" flood-color="#000" flood-opacity=".55"/></filter>
</defs><rect width="1600" height="900" fill="url(#bgs1210)"/><circle cx="944.1" cy="253.7" r="260" fill="#FF4FA3" opacity=".20" filter="url(#Bs1210)"/><circle cx="730.7" cy="508.8" r="230" fill="#FFB02E" opacity=".20" filter="url(#Bs1210)"/><circle cx="425.7" cy="676.5" r="240" fill="#FF4FA3" opacity=".20" filter="url(#Bs1210)"/><g stroke="#FF4FA3" stroke-opacity=".06"><path d="M-900 0L-1400 900"/><path d="M-810 0L-1310 900"/><path d="M-720 0L-1220 900"/><path d="M-630 0L-1130 900"/><path d="M-540 0L-1040 900"/><path d="M-450 0L-950 900"/><path d="M-360 0L-860 900"/><path d="M-270 0L-770 900"/><path d="M-180 0L-680 900"/><path d="M-90 0L-590 900"/><path d="M0 0L-500 900"/><path d="M90 0L-410 900"/><path d="M180 0L-320 900"/><path d="M270 0L-230 900"/><path d="M360 0L-140 900"/><path d="M450 0L-50 900"/><path d="M540 0L40 900"/><path d="M630 0L130 900"/><path d="M720 0L220 900"/><path d="M810 0L310 900"/><path d="M900 0L400 900"/><path d="M990 0L490 900"/><path d="M1080 0L580 900"/><path d="M1170 0L670 900"/><path d="M1260 0L760 900"/><path d="M1350 0L850 900"/><path d="M1440 0L940 900"/><path d="M1530 0L1030 900"/><path d="M1620 0L1120 900"/><path d="M1710 0L1210 900"/><path d="M1800 0L1300 900"/><path d="M1890 0L1390 900"/><path d="M1980 0L1480 900"/><path d="M2070 0L1570 900"/><path d="M2160 0L1660 900"/><path d="M2250 0L1750 900"/><path d="M2340 0L1840 900"/><path d="M2430 0L1930 900"/><path d="M2520 0L2020 900"/><path d="M2610 0L2110 900"/></g><circle cx="131.0" cy="593.7" r="2.5" fill="#fff" opacity="0.22"/><circle cx="910.2" cy="529.9" r="1.5" fill="#fff" opacity="0.19"/><circle cx="361.8" cy="192.6" r="1.1" fill="#fff" opacity="0.32"/><circle cx="217.0" cy="534.3" r="2.4" fill="#fff" opacity="0.36"/><circle cx="1183.8" cy="65.9" r="1.5" fill="#fff" opacity="0.32"/><circle cx="731.4" cy="149.2" r="2.5" fill="#fff" opacity="0.32"/><circle cx="811.9" cy="253.1" r="1.1" fill="#fff" opacity="0.19"/><circle cx="140.6" cy="721.8" r="1.5" fill="#fff" opacity="0.41"/><circle cx="1191.5" cy="156.4" r="2.7" fill="#fff" opacity="0.41"/><circle cx="1193.7" cy="506.8" r="2.2" fill="#fff" opacity="0.24"/><circle cx="107.0" cy="707.5" r="1.2" fill="#fff" opacity="0.29"/><circle cx="1020.6" cy="310.3" r="2.5" fill="#fff" opacity="0.34"/><circle cx="779.3" cy="897.4" r="1.9" fill="#fff" opacity="0.20"/><circle cx="210.5" cy="797.0" r="2.8" fill="#fff" opacity="0.27"/><circle cx="380.2" cy="343.0" r="2.9" fill="#fff" opacity="0.17"/><circle cx="780.0" cy="884.6" r="1.9" fill="#fff" opacity="0.26"/><circle cx="1288.6" cy="759.9" r="0.9" fill="#fff" opacity="0.34"/><circle cx="57.9" cy="745.0" r="2.9" fill="#fff" opacity="0.29"/><circle cx="516.2" cy="404.4" r="3.0" fill="#fff" opacity="0.22"/><circle cx="1352.5" cy="165.7" r="1.9" fill="#fff" opacity="0.23"/><circle cx="158.4" cy="317.3" r="1.6" fill="#fff" opacity="0.41"/><circle cx="1233.2" cy="355.0" r="2.0" fill="#fff" opacity="0.40"/><circle cx="296.6" cy="565.6" r="2.7" fill="#fff" opacity="0.34"/><circle cx="927.0" cy="548.1" r="2.4" fill="#fff" opacity="0.45"/><circle cx="952.2" cy="608.9" r="2.3" fill="#fff" opacity="0.18"/><circle cx="963.9" cy="134.7" r="1.0" fill="#fff" opacity="0.34"/><circle cx="1367.4" cy="821.9" r="1.2" fill="#fff" opacity="0.43"/><circle cx="1557.6" cy="271.6" r="1.5" fill="#fff" opacity="0.39"/><circle cx="1121.9" cy="750.6" r="1.1" fill="#fff" opacity="0.37"/><circle cx="247.4" cy="653.3" r="2.3" fill="#fff" opacity="0.20"/><circle cx="1195.3" cy="742.6" r="2.4" fill="#fff" opacity="0.09"/><circle cx="721.2" cy="105.3" r="1.5" fill="#fff" opacity="0.34"/><circle cx="192.4" cy="147.4" r="1.2" fill="#fff" opacity="0.38"/><circle cx="416.1" cy="441.5" r="2.4" fill="#fff" opacity="0.32"/><circle cx="908.4" cy="91.2" r="2.4" fill="#fff" opacity="0.28"/><circle cx="40.4" cy="868.4" r="2.0" fill="#fff" opacity="0.12"/><circle cx="1451.4" cy="684.3" r="1.6" fill="#fff" opacity="0.25"/><circle cx="1589.3" cy="401.4" r="1.1" fill="#fff" opacity="0.36"/><circle cx="1059.0" cy="521.0" r="1.2" fill="#fff" opacity="0.45"/><circle cx="838.3" cy="1.0" r="1.0" fill="#fff" opacity="0.25"/><circle cx="345.7" cy="237.3" r="1.4" fill="#fff" opacity="0.33"/><circle cx="287.3" cy="190.3" r="2.7" fill="#fff" opacity="0.18"/><circle cx="1369.7" cy="28.6" r="1.1" fill="#fff" opacity="0.32"/><circle cx="739.1" cy="817.6" r="2.9" fill="#fff" opacity="0.41"/><circle cx="1472.5" cy="636.4" r="1.3" fill="#fff" opacity="0.36"/><circle cx="938.5" cy="252.3" r="2.2" fill="#fff" opacity="0.14"/><g transform="rotate(0.7473642662504032 750.0 250.0)" filter="url(#Ss1210)"><rect x="650" y="150" width="200" height="200" rx="14" fill="#100e0b"/><rect x="660" y="160" width="180" height="180" rx="8" fill="url(#As1210)"/><circle cx="777.7" cy="199.8" r="18.7" fill="none" stroke="#0a0907" stroke-width="6" opacity=".7"/><circle cx="752.4" cy="198.8" r="54.9" fill="none" stroke="#0a0907" stroke-width="7" opacity=".7"/><circle cx="752.1" cy="219.6" r="16.4" fill="none" stroke="#0a0907" stroke-width="7" opacity=".7"/><circle cx="694.7" cy="206.8" r="29.4" fill="none" stroke="#0a0907" stroke-width="6" opacity=".7"/><circle cx="803.0" cy="241.4" r="57.5" fill="none" stroke="#0a0907" stroke-width="9" opacity=".7"/></g><g transform="rotate(-3.435548846143475 975.0 250.0)" filter="url(#Ss1210)"><rect x="875" y="150" width="200" height="200" rx="14" fill="#100e0b"/><rect x="885" y="160" width="180" height="180" rx="8" fill="#0a0907"/><circle cx="975.0" cy="240.0" r="56.00000000000001" fill="url(#As1210)"/><path d="M895.0 310.0H1055.0" stroke="#FF4FA3" stroke-width="8"/><path d="M895.0 326.0H995.0" stroke="#fff" stroke-opacity=".6" stroke-width="5"/></g><g transform="rotate(-2.9657906556275577 1200.0 250.0)" filter="url(#Ss1210)"><rect x="1100" y="150" width="200" height="200" rx="14" fill="#100e0b"/><rect x="1110" y="160" width="180" height="180" rx="8" fill="#0a0907"/><path d="M1114 180.0L1286 170.95014616757112" stroke="#FF4FA3" stroke-width="5" opacity=".85"/><path d="M1114 200.0L1286 181.30432940446877" stroke="#FFB02E" stroke-width="5" opacity=".85"/><path d="M1114 220.0L1286 236.51499209259973" stroke="#FF4FA3" stroke-width="7" opacity=".85"/><path d="M1114 240.0L1286 255.1091883000262" stroke="#FFB02E" stroke-width="6" opacity=".85"/><path d="M1114 260.0L1286 270.5152831422176" stroke="#FF4FA3" stroke-width="3" opacity=".85"/><path d="M1114 280.0L1286 257.76390456525263" stroke="#FFB02E" stroke-width="3" opacity=".85"/><path d="M1114 300.0L1286 311.7662258543296" stroke="#FF4FA3" stroke-width="7" opacity=".85"/><path d="M1114 320.0L1286 295.1466421045171" stroke="#FFB02E" stroke-width="10" opacity=".85"/></g><g transform="rotate(1.6648320167453967 1425.0 250.0)" filter="url(#Ss1210)"><rect x="1325" y="150" width="200" height="200" rx="14" fill="#100e0b"/><rect x="1335" y="160" width="180" height="180" rx="8" fill="url(#As1210)"/><circle cx="1394.6" cy="225.5" r="46.4" fill="none" stroke="#0a0907" stroke-width="9" opacity=".7"/><circle cx="1405.6" cy="190.9" r="39.4" fill="none" stroke="#0a0907" stroke-width="4" opacity=".7"/><circle cx="1420.6" cy="259.5" r="17.2" fill="none" stroke="#0a0907" stroke-width="11" opacity=".7"/><circle cx="1418.1" cy="304.1" r="32.0" fill="none" stroke="#0a0907" stroke-width="9" opacity=".7"/><circle cx="1430.3" cy="294.1" r="16.3" fill="none" stroke="#0a0907" stroke-width="8" opacity=".7"/></g><g transform="rotate(-3.005966443467999 750.0 485.0)" filter="url(#Ss1210)"><rect x="650" y="385" width="200" height="200" rx="14" fill="#100e0b"/><rect x="660" y="395" width="180" height="180" rx="8" fill="#0a0907"/><circle cx="750.0" cy="475.0" r="56.00000000000001" fill="url(#As1210)"/><path d="M670.0 545.0H830.0" stroke="#FF4FA3" stroke-width="8"/><path d="M670.0 561.0H770.0" stroke="#fff" stroke-opacity=".6" stroke-width="5"/></g><g transform="rotate(1.0538026442344437 975.0 485.0)" filter="url(#Ss1210)"><rect x="875" y="385" width="200" height="200" rx="14" fill="#100e0b"/><rect x="885" y="395" width="180" height="180" rx="8" fill="#0a0907"/><path d="M889 415.0L1061 401.6979813782472" stroke="#FF4FA3" stroke-width="4" opacity=".85"/><path d="M889 435.0L1061 444.6559246903486" stroke="#FFB02E" stroke-width="7" opacity=".85"/><path d="M889 455.0L1061 421.66493634945215" stroke="#FF4FA3" stroke-width="8" opacity=".85"/><path d="M889 475.0L1061 448.45157050039677" stroke="#FFB02E" stroke-width="9" opacity=".85"/><path d="M889 495.0L1061 512.9737786075732" stroke="#FF4FA3" stroke-width="10" opacity=".85"/><path d="M889 515.0L1061 476.9030130889788" stroke="#FFB02E" stroke-width="10" opacity=".85"/><path d="M889 535.0L1061 541.4330605845222" stroke="#FF4FA3" stroke-width="10" opacity=".85"/><path d="M889 555.0L1061 540.6990664742082" stroke="#FFB02E" stroke-width="10" opacity=".85"/></g><g transform="rotate(-3.3172807989475492 1200.0 485.0)" filter="url(#Ss1210)"><rect x="1100" y="385" width="200" height="200" rx="14" fill="#100e0b"/><rect x="1110" y="395" width="180" height="180" rx="8" fill="url(#As1210)"/><circle cx="1211.1" cy="447.9" r="27.1" fill="none" stroke="#0a0907" stroke-width="9" opacity=".7"/><circle cx="1212.9" cy="451.6" r="58.3" fill="none" stroke="#0a0907" stroke-width="5" opacity=".7"/><circle cx="1239.4" cy="454.5" r="21.4" fill="none" stroke="#0a0907" stroke-width="5" opacity=".7"/><circle cx="1213.0" cy="544.6" r="44.7" fill="none" stroke="#0a0907" stroke-width="10" opacity=".7"/><circle cx="1231.5" cy="490.1" r="25.8" fill="none" stroke="#0a0907" stroke-width="12" opacity=".7"/></g><g transform="rotate(-0.28964847487074064 1425.0 485.0)" filter="url(#Ss1210)"><rect x="1325" y="385" width="200" height="200" rx="14" fill="#100e0b"/><rect x="1335" y="395" width="180" height="180" rx="8" fill="#0a0907"/><circle cx="1425.0" cy="475.0" r="56.00000000000001" fill="url(#As1210)"/><path d="M1345.0 545.0H1505.0" stroke="#FF4FA3" stroke-width="8"/><path d="M1345.0 561.0H1445.0" stroke="#fff" stroke-opacity=".6" stroke-width="5"/></g><g transform="rotate(1.3611362281917776 750.0 720.0)" filter="url(#Ss1210)"><rect x="650" y="620" width="200" height="200" rx="14" fill="#100e0b"/><rect x="660" y="630" width="180" height="180" rx="8" fill="#0a0907"/><path d="M664 650.0L836 663.2761235283458" stroke="#FF4FA3" stroke-width="4" opacity=".85"/><path d="M664 670.0L836 660.2726097557822" stroke="#FFB02E" stroke-width="8" opacity=".85"/><path d="M664 690.0L836 693.5128585813827" stroke="#FF4FA3" stroke-width="10" opacity=".85"/><path d="M664 710.0L836 723.703492257345" stroke="#FFB02E" stroke-width="5" opacity=".85"/><path d="M664 730.0L836 739.7841166816435" stroke="#FF4FA3" stroke-width="7" opacity=".85"/><path d="M664 750.0L836 758.1635714088377" stroke="#FFB02E" stroke-width="7" opacity=".85"/><path d="M664 770.0L836 766.392218866973" stroke="#FF4FA3" stroke-width="3" opacity=".85"/><path d="M664 790.0L836 805.6634739278213" stroke="#FFB02E" stroke-width="10" opacity=".85"/></g><g transform="rotate(2.5093809707767116 975.0 720.0)" filter="url(#Ss1210)"><rect x="875" y="620" width="200" height="200" rx="14" fill="#100e0b"/><rect x="885" y="630" width="180" height="180" rx="8" fill="url(#As1210)"/><circle cx="937.3" cy="701.6" r="18.7" fill="none" stroke="#0a0907" stroke-width="4" opacity=".7"/><circle cx="938.8" cy="779.0" r="23.4" fill="none" stroke="#0a0907" stroke-width="9" opacity=".7"/><circle cx="993.2" cy="755.1" r="53.7" fill="none" stroke="#0a0907" stroke-width="6" opacity=".7"/><circle cx="1009.5" cy="729.0" r="41.7" fill="none" stroke="#0a0907" stroke-width="4" opacity=".7"/><circle cx="1027.1" cy="690.0" r="43.2" fill="none" stroke="#0a0907" stroke-width="12" opacity=".7"/></g><g transform="rotate(2.8523436027695546 1200.0 720.0)" filter="url(#Ss1210)"><rect x="1100" y="620" width="200" height="200" rx="14" fill="#100e0b"/><rect x="1110" y="630" width="180" height="180" rx="8" fill="#0a0907"/><circle cx="1200.0" cy="710.0" r="56.00000000000001" fill="url(#As1210)"/><path d="M1120.0 780.0H1280.0" stroke="#FF4FA3" stroke-width="8"/><path d="M1120.0 796.0H1220.0" stroke="#fff" stroke-opacity=".6" stroke-width="5"/></g><g transform="rotate(-1.6492449658917945 1425.0 720.0)" filter="url(#Ss1210)"><rect x="1325" y="620" width="200" height="200" rx="14" fill="#100e0b"/><rect x="1335" y="630" width="180" height="180" rx="8" fill="#0a0907"/><path d="M1339 650.0L1511 630.8474478986326" stroke="#FF4FA3" stroke-width="4" opacity=".85"/><path d="M1339 670.0L1511 655.6669793904662" stroke="#FFB02E" stroke-width="9" opacity=".85"/><path d="M1339 690.0L1511 686.6810151675636" stroke="#FF4FA3" stroke-width="3" opacity=".85"/><path d="M1339 710.0L1511 724.6609669091604" stroke="#FFB02E" stroke-width="6" opacity=".85"/><path d="M1339 730.0L1511 706.6010204721798" stroke="#FF4FA3" stroke-width="10" opacity=".85"/><path d="M1339 750.0L1511 749.8549416986478" stroke="#FFB02E" stroke-width="8" opacity=".85"/><path d="M1339 770.0L1511 734.9583732552085" stroke="#FF4FA3" stroke-width="9" opacity=".85"/><path d="M1339 790.0L1511 791.3176200935989" stroke="#FFB02E" stroke-width="4" opacity=".85"/></g><g filter="url(#Ss1210)"><path d="M1420 800c-90 -40 -110 -150 -40 -230c8 50 40 70 60 70c-10 -60 30 -120 80 -150c-6 70 70 110 40 190c-20 60 -70 110 -140 120z" fill="url(#Vs1210)"/></g><rect width="1600" height="900" fill="none" stroke="none"/></svg>