<svg xmlns="http://www.w3.org/2000/svg" viewBox="0 0 1600 900" preserveAspectRatio="xMidYMid slice" xmlns:c2pa="http://c2pa.org/manifest"><metadata><c2pa:manifest>AAAWgmp1bWIAAAAeanVtZGMycGEAEQAQgAAAqgA4m3EDYzJwYQAAABZcanVtYgAAAEdqdW1kYzJtYQARABCAAACqADibcQN1cm46YzJwYTplNjU4Njc5Mi02MzFiLTRhYWItOTQzYS04ZjdmNGU2NzA3M2EAAAADl2p1bWIAAAApanVtZGMyYXMAEQAQgAAAqgA4m3EDYzJwYS5hc3NlcnRpb25zAAAAALxqdW1iAAAARGp1bWRjYm9yABEAEIAAAKoAOJtxE2MycGEuaW5ncmVkaWVudC52MwAAAAAYYzJzaCXuOusw5LFa5A1BM7V3C9UAAABwY2JvcqNpZGM6Zm9ybWF0bWltYWdlL3N2Zyt4bWxqaW5zdGFuY2VJRHgseG1wOmlpZDpjYjY2MWMyNy0zNzk2LTQ0ZDMtOWE5MC1kOThjMTIyNTJmOTZscmVsYXRpb25zaGlwaHBhcmVudE9mAAAB4mp1bWIAAABBanVtZGNib3IAEQAQgAAAqgA4m3ETYzJwYS5hY3Rpb25zLnYyAAAAABhjMnNo9gKzgnvdpaP9LSKoiLgcsAAAAZljYm9yomdhY3Rpb25zgqJmYWN0aW9ua2MycGEub3BlbmVkanBhcmFtZXRlcnOha2luZ3JlZGllbnRzgaJjdXJseC1zZWxmI2p1bWJmPWMycGEuYXNzZXJ0aW9ucy9jMnBhLmluZ3JlZGllbnQudjNkaGFzaFggh5Qeyn9TbFiNeoTsBPaKkei+xEdgLYnDF+nLmjHYS16kZmFjdGlvbngdY29tLmFudGhyb3BpYy5jbGF1ZGUucHJvdmlkZWRqcGFyYW1ldGVyc6F4H2NvbS5hbnRocm9waWMub3JpZ2luLWNvbmZpZGVuY2VndW5rbm93bmtkZXNjcmlwdGlvbnhmQ2xhdWRlIHByb3ZpZGVkIHRoaXMgZmlsZSBhdCB0aGUgcmVxdWVzdCBvZiBhIHVzZXIgYW5kIG1heSBoYXZlIGNyZWF0ZWQgb3IgbW9kaWZpZWQgdGhlIGZpbGUgY29udGVudHMubXNvZnR3YXJlQWdlbnShZG5hbWVmQ2xhdWRlcmFsbEFjdGlvbnNJbmNsdWRlZPUAAADIanVtYgAAAEBqdW1kY2JvcgARABCAAACqADibcRNjMnBhLmhhc2guZGF0YQAAAAAYYzJzaO188oeufl9OLW8kdzhltZEAAACAY2JvcqVjYWxnZnNoYTI1NmNwYWRNAAAAAAAAAAAAAAAAAGRoYXNoWCDPR0rZEzQkC9Q8Kt/ra8Bwesc1nfCiOXjpvrDEnmX0sWRuYW1lbmp1bWJmIG1hbmlmZXN0amV4Y2x1c2lvbnOBomVzdGFydBijZmxlbmd0aBkeBAAAAj5qdW1iAAAAJ2p1bWRjMmNsABEAEIAAAKoAOJtxA2MycGEuY2xhaW0udjIAAAACD2Nib3KlY2FsZ2ZzaGEyNTZpc2lnbmF0dXJleE1zZWxmI2p1bWJmPS9jMnBhL3VybjpjMnBhOmU2NTg2NzkyLTYzMWItNGFhYi05NDNhLThmN2Y0ZTY3MDczYS9jMnBhLnNpZ25hdHVyZWppbnN0YW5jZUlEeCx4bXA6aWlkOjNmNDVkZGJhLTM0ZTEtNGVmZS05ZjNkLTRlZmE2OWQ2OGNhOHJjcmVhdGVkX2Fzc2VydGlvbnODomN1cmx4LXNlbGYjanVtYmY9YzJwYS5hc3NlcnRpb25zL2MycGEuaW5ncmVkaWVudC52M2RoYXNoWCCHlB7Kf1NsWI16hOwE9oqR6L7ER2AticMX6cuaMdhLXqJjdXJseCpzZWxmI2p1bWJmPWMycGEuYXNzZXJ0aW9ucy9jMnBhLmFjdGlvbnMudjJkaGFzaFggA8jc6lbtI1aoL5Hb3S+7l1i0d/syISWSiE4UNLkA6BGiY3VybHgpc2VsZiNqdW1iZj1jMnBhLmFzc2VydGlvbnMvYzJwYS5oYXNoLmRhdGFkaGFzaFggAQYtLqd8DnE/xbE4NiJEY0di4vqiCZlNq0ooGF/TyL90Y2xhaW1fZ2VuZXJhdG9yX2luZm+jZG5hbWVvQW50aHJvcGljIEZpbGVzZ3ZlcnNpb25lMS4wLjBrc3BlY1ZlcnNpb25lMi40LjAAABA4anVtYgAAAChqdW1kYzJjcwARABCAAACqADibcQNjMnBhLnNpZ25hdHVyZQAAABAIY2JvctKEWQISogEmGCFZAgowggIGMIIBjaADAgECAhRA5aAK7sI50L64g/oGQgU9Z1UTADAKBggqhkjOPQQDAzBJMRcwFQYDVQQKEw5BbnRocm9waWMsIFBCQzEuMCwGA1UEAxMlQW50aHJvcGljIENvbnRlbnQgQ3JlZGVudGlhbHMgUm9vdCBDQTAeFw0yNjA4MDcxODQzNTZaFw0yODA4MDYxOTQzNTZaMEQxFzAVBgNVBAoTDkFudGhyb3BpYywgUEJDMSkwJwYDVQQDEyBBbnRocm9waWMgQ2xhdWRlIENvbnRlbnQgU2lnbmluZzBZMBMGByqGSM49AgEGCCqGSM49AwEHA0IABJh6CmvLUBgFFNU0vUKlOVtE6djd17L5SuwX0LemFisBM3dkd/3cyjxFA3Qo5S46fX0/ihY0VZ7mfb9KF703t5OjWDBWMA4GA1UdDwEB/wQEAwIHgDAVBgNVHSUEDjAMBgorBgEEAYPoXgIBMAwGA1UdEwEB/wQCMAAwHwYDVR0jBBgwFoAUzlHiBIFOZFsj+OPEz5o+nMHXXMIwCgYIKoZIzj0EAwMDZwAwZAIwMXMdFJ4BetLLVY7ORuE9noqbbAZOZn/aArXyTwFAZfKrPzxF2vPoJNf1+UCdg1XGAjBwX1zd9WGqYkqmL5SFqw1QySjr1zJfpJM9+1rdDwSPLMOPOjKuiXjoU/pUUeG9RwmhY3BhZFkNngAAAAAAAAAAAAAAAAAAAAAAAAAAAAAAAAAAAAAAAAAAAAAAAAAAAAAAAAAAAAAAAAAAAAAAAAAAAAAAAAAAAAAAAAAAAAAAAAAAAAAAAAAAAAAAAAAAAAAAAAAAAAAAAAAAAAAAAAAAAAAAAAAAAAAAAAAAAAAAAAAAAAAAAAAAAAAAAAAAAAAAAAAAAAAAAAAAAAAAAAAAAAAAAAAAAAAAAAAAAAAAAAAAAAAAAAAAAAAAAAAAAAAAAAAAAAAAAAAAAAAAAAAAAAAAAAAAAAAAAAAAAAAAAAAAAAAAAAAAAAAAAAAAAAAAAAAAAAAAAAAAAAAAAAAAAAAAAAAAAAAAAAAAAAAAAAAAAAAAAAAAAAAAAAAAAAAAAAAAAAAAAAAAAAAAAAAAAAAAAAAAAAAAAAAAAAAAAAAAAAAAAAAAAAAAAAAAAAAAAAAAAAAAAAAAAAAAAAAAAAAAAAAAAAAAAAAAAAAAAAAAAAAAAAAAAAAAAAAAAAAAAAAAAAAAAAAAAAAAAAAAAAAAAAAAAAAAAAAAAAAAAAAAAAAAAAAAAAAAAAAAAAAAAAAAAAAAAAAAAAAAAAAAAAAAAAAAAAAAAAAAAAAAAAAAAAAAAAAAAAAAAAAAAAAAAAAAAAAAAAAAAAAAAAAAAAAAAAAAAAAAAAAAAAAAAAAAAAAAAAAAAAAAAAAAAAAAAAAAAAAAAAAAAAAAAAAAAAAAAAAAAAAAAAAAAAAAAAAAAAAAAAAAAAAAAAAAAAAAAAAAAAAAAAAAAAAAAAAAAAAAAAAAAAAAAAAAAAAAAAAAAAAAAAAAAAAAAAAAAAAAAAAAAAAAAAAAAAAAAAAAAAAAAAAAAAAAAAAAAAAAAAAAAAAAAAAAAAAAAAAAAAAAAAAAAAAAAAAAAAAAAAAAAAAAAAAAAAAAAAAAAAAAAAAAAAAAAAAAAAAAAAAAAAAAAAAAAAAAAAAAAAAAAAAAAAAAAAAAAAAAAAAAAAAAAAAAAAAAAAAAAAAAAAAAAAAAAAAAAAAAAAAAAAAAAAAAAAAAAAAAAAAAAAAAAAAAAAAAAAAAAAAAAAAAAAAAAAAAAAAAAAAAAAAAAAAAAAAAAAAAAAAAAAAAAAAAAAAAAAAAAAAAAAAAAAAAAAAAAAAAAAAAAAAAAAAAAAAAAAAAAAAAAAAAAAAAAAAAAAAAAAAAAAAAAAAAAAAAAAAAAAAAAAAAAAAAAAAAAAAAAAAAAAAAAAAAAAAAAAAAAAAAAAAAAAAAAAAAAAAAAAAAAAAAAAAAAAAAAAAAAAAAAAAAAAAAAAAAAAAAAAAAAAAAAAAAAAAAAAAAAAAAAAAAAAAAAAAAAAAAAAAAAAAAAAAAAAAAAAAAAAAAAAAAAAAAAAAAAAAAAAAAAAAAAAAAAAAAAAAAAAAAAAAAAAAAAAAAAAAAAAAAAAAAAAAAAAAAAAAAAAAAAAAAAAAAAAAAAAAAAAAAAAAAAAAAAAAAAAAAAAAAAAAAAAAAAAAAAAAAAAAAAAAAAAAAAAAAAAAAAAAAAAAAAAAAAAAAAAAAAAAAAAAAAAAAAAAAAAAAAAAAAAAAAAAAAAAAAAAAAAAAAAAAAAAAAAAAAAAAAAAAAAAAAAAAAAAAAAAAAAAAAAAAAAAAAAAAAAAAAAAAAAAAAAAAAAAAAAAAAAAAAAAAAAAAAAAAAAAAAAAAAAAAAAAAAAAAAAAAAAAAAAAAAAAAAAAAAAAAAAAAAAAAAAAAAAAAAAAAAAAAAAAAAAAAAAAAAAAAAAAAAAAAAAAAAAAAAAAAAAAAAAAAAAAAAAAAAAAAAAAAAAAAAAAAAAAAAAAAAAAAAAAAAAAAAAAAAAAAAAAAAAAAAAAAAAAAAAAAAAAAAAAAAAAAAAAAAAAAAAAAAAAAAAAAAAAAAAAAAAAAAAAAAAAAAAAAAAAAAAAAAAAAAAAAAAAAAAAAAAAAAAAAAAAAAAAAAAAAAAAAAAAAAAAAAAAAAAAAAAAAAAAAAAAAAAAAAAAAAAAAAAAAAAAAAAAAAAAAAAAAAAAAAAAAAAAAAAAAAAAAAAAAAAAAAAAAAAAAAAAAAAAAAAAAAAAAAAAAAAAAAAAAAAAAAAAAAAAAAAAAAAAAAAAAAAAAAAAAAAAAAAAAAAAAAAAAAAAAAAAAAAAAAAAAAAAAAAAAAAAAAAAAAAAAAAAAAAAAAAAAAAAAAAAAAAAAAAAAAAAAAAAAAAAAAAAAAAAAAAAAAAAAAAAAAAAAAAAAAAAAAAAAAAAAAAAAAAAAAAAAAAAAAAAAAAAAAAAAAAAAAAAAAAAAAAAAAAAAAAAAAAAAAAAAAAAAAAAAAAAAAAAAAAAAAAAAAAAAAAAAAAAAAAAAAAAAAAAAAAAAAAAAAAAAAAAAAAAAAAAAAAAAAAAAAAAAAAAAAAAAAAAAAAAAAAAAAAAAAAAAAAAAAAAAAAAAAAAAAAAAAAAAAAAAAAAAAAAAAAAAAAAAAAAAAAAAAAAAAAAAAAAAAAAAAAAAAAAAAAAAAAAAAAAAAAAAAAAAAAAAAAAAAAAAAAAAAAAAAAAAAAAAAAAAAAAAAAAAAAAAAAAAAAAAAAAAAAAAAAAAAAAAAAAAAAAAAAAAAAAAAAAAAAAAAAAAAAAAAAAAAAAAAAAAAAAAAAAAAAAAAAAAAAAAAAAAAAAAAAAAAAAAAAAAAAAAAAAAAAAAAAAAAAAAAAAAAAAAAAAAAAAAAAAAAAAAAAAAAAAAAAAAAAAAAAAAAAAAAAAAAAAAAAAAAAAAAAAAAAAAAAAAAAAAAAAAAAAAAAAAAAAAAAAAAAAAAAAAAAAAAAAAAAAAAAAAAAAAAAAAAAAAAAAAAAAAAAAAAAAAAAAAAAAAAAAAAAAAAAAAAAAAAAAAAAAAAAAAAAAAAAAAAAAAAAAAAAAAAAAAAAAAAAAAAAAAAAAAAAAAAAAAAAAAAAAAAAAAAAAAAAAAAAAAAAAAAAAAAAAAAAAAAAAAAAAAAAAAAAAAAAAAAAAAAAAAAAAAAAAAAAAAAAAAAAAAAAAAAAAAAAAAAAAAAAAAAAAAAAAAAAAAAAAAAAAAAAAAAAAAAAAAAAAAAAAAAAAAAAAAAAAAAAAAAAAAAAAAAAAAAAAAAAAAAAAAAAAAAAAAAAAAAAAAAAAAAAAAAAAAAAAAAAAAAAAAAAAAAAAAAAAAAAAAAAAAAAAAAAAAAAAAAAAAAAAAAAAAAAAAAAAAAAAAAAAAAAAAAAAAAAAAAAAAAAAAAAAAAAAAAAAAAAAAAAAAAAAAAAAAAAAAAAAAAAAAAAAAAAAAAAAAAAAAAAAAAAAAAAAAAAAAAAAAAAAAAAAAAAAAAAAAAAAAAAAAAAAAAAAAAAAAAAAAAAAAAAAAAAAAAAAAAAAAAAAAAAAAAAAAAAAAAAAAAAAAAAAAAAAAAAAAAAAAAAAAAAAAAAAAAAAAAAAAAAAAAAAAAAAAAAAAAAAAAAAAAAAAAAAAAAAAAAAAAAAAAAAAAAAAAAAAAAAAAAAAAAAAAAAAAAAAAAAAAAAAAAAAAAAAAAAAAAAAAAAAAAAAAAAAAAAAAAAAAAAAAAAAAAAAAAAAAAAAAAAAAAAAAAAAAAAAAAAAAAAAAAAAAAAAAAAAAAAAAAAAAAAAAAAAAAAAAAAAAAAAAAAAAAAAAAAAAAAAAAAAAAAAAAAAAAAAAAAAAAAAAAAAAAAAAAAAAAAAAAAAAAAAAAAAAAAAAAAAAAAAAAAAAAAAAAAAAAAAAAAAAAAAAAAAAAAAAAAAAAAAAAAAAAAAAAAAAAAAAAAAAAAAAAAAAAAAAAAAAAAAAAAAAAAAAAAAAAAAAAAAAAAAAAAAAAAAAAAAAAAAAAAAAAAAAAAAAAAAAAAAAAAAAAAAAAAAAAAAAAAAAAAAAAAAAAAAAAAAAAAAAAAAAAAAAAAAAAAAAAAAAAAAAAAAAAAAAAAAAAAAAAAAAAAAAAAAAAAAAAAAAAAAAAAAAAAAAAAAAAAAAAAAAAAAAAAAAAAAAAAAAAAAAAAAAAAAAAAAAAAAAAAAAAAAAAAAAAAAAAAAAAAAAAAAAAAAAAAAAAAAAAAAAAAAAAAAAAAAAAAAAAAAAAAAAAAAAAAAAAAAAAAAAAAAAAAAAAAAAAAAAAAAAAAAAAAAAAAAAAAAAAAAAAAAAAAAAAAAAAAAAAAAAAAAAAAAAAAAAAAAAAAAAAAAAAAAAAAAAAAAAAAAAAAAAAAAAAAAAAAAAAAAAAAAAAAAAAAAAAAAAAAAAAAAAAAAAAAAAAAAAAAAAAAAAAAAAAAAAAAAAAAAAAAAAAAAAAAAAAAAAAAAAAAAAAAAAAAAAAAAAAAAAAAAAAAAAAAAAAAAAAAAAAAAAAAAAAAAAAAAAAAAAAAAAAAAAAAAAAAAAAAAAAAAAAAAAAAAAAAAAAAAAAAAAAAAAAAAAAAAAAAAAAAAAAAAAAAAAAAAAAAAAAAAAAAAAAAAAAAAAAAAAAAAAAAAAAAAAAAAAAAAAAAAAAAAAAAAAAAAAAAAAAAAAAAAAAAAAAAAAAAAAAAAAAAAAAAAAAAAAAAAAAAAAAAAAAAAAAAAAAAAAAAAAAAAAAAAAAAAAAAAAAAAAAAAAAAAAAAAAAAAAAAAAAAAAAAAAAAAAAAAAAAAAAAAAAAAAAAAAAAAAAAAAPZYQEHNaNR801sX8Wc9D46XXphyC1krbIoo/CrDkNqADRnwr4zaTQMddf5bJPiJL0BN9HBEwv0ef4rUuJ3+wT+7UHE=</c2pa:manifest></metadata><defs>
<radialGradient id="bgs1056" cx=".72" cy=".38" r="1.05"><stop offset="0" stop-color="#FF7A3D" stop-opacity=".30"/><stop offset=".45" stop-color="#16120e"/><stop offset="1" stop-color="#060605"/></radialGradient>
<linearGradient id="As1056" x1="0" y1="0" x2="1" y2="1"><stop offset="0" stop-color="#FF7A3D"/><stop offset="1" stop-color="#B14CFF"/></linearGradient>
<linearGradient id="Vs1056" x1="0" y1="0" x2="0" y2="1"><stop offset="0" stop-color="#fff" stop-opacity=".95"/><stop offset=".35" stop-color="#FF7A3D"/><stop offset="1" stop-color="#B14CFF"/></linearGradient>
<linearGradient id="Gs1056" x1="0" y1="0" x2="1" y2="1"><stop offset="0" stop-color="#fff" stop-opacity=".16"/><stop offset="1" stop-color="#fff" stop-opacity=".03"/></linearGradient>
<linearGradient id="Ms1056" x1="0" y1="0" x2="1" y2="0"><stop offset="0" stop-color="#d9dde2"/><stop offset=".5" stop-color="#8d949c"/><stop offset="1" stop-color="#4d535a"/></linearGradient>
<filter id="Bs1056" x="-50%" y="-50%" width="200%" height="200%"><feGaussianBlur stdDeviation="22"/></filter>
<filter id="bs1056" x="-50%" y="-50%" width="200%" height="200%"><feGaussianBlur stdDeviation="6"/></filter>
<filter id="Ss1056" x="-20%" y="-20%" width="140%" height="150%"><feDropShadow dx="0" dy="16" stdDeviation="16" flood-color="#000" flood-opacity=".55"/></filter>
<linearGradient id="lgs10560" x1="0" y1="0" x2="1" y2="0"><stop offset="0" stop-color="#0b3c5d"/><stop offset=".5" stop-color="#777"/><stop offset="1" stop-color="#ffb02e"/></linearGradient><linearGradient id="lgs10561" x1="0" y1="0" x2="1" y2="0"><stop offset="0" stop-color="#2d1b4e"/><stop offset=".5" stop-color="#777"/><stop offset="1" stop-color="#ff7a3d"/></linearGradient><linearGradient id="lgs10562" x1="0" y1="0" x2="1" y2="0"><stop offset="0" stop-color="#0f4c3a"/><stop offset=".5" stop-color="#777"/><stop offset="1" stop-color="#e8f25c"/></linearGradient></defs><rect width="1600" height="900" fill="url(#bgs1056)"/><circle cx="967.1" cy="362.5" r="260" fill="#FF7A3D" opacity=".20" filter="url(#Bs1056)"/><circle cx="1096.4" cy="812.4" r="230" fill="#B14CFF" opacity=".20" filter="url(#Bs1056)"/><circle cx="242.0" cy="739.8" r="240" fill="#FF7A3D" opacity=".20" filter="url(#Bs1056)"/><g stroke="#FF7A3D" stroke-opacity=".06"><path d="M-900 0L-1400 900"/><path d="M-810 0L-1310 900"/><path d="M-720 0L-1220 900"/><path d="M-630 0L-1130 900"/><path d="M-540 0L-1040 900"/><path d="M-450 0L-950 900"/><path d="M-360 0L-860 900"/><path d="M-270 0L-770 900"/><path d="M-180 0L-680 900"/><path d="M-90 0L-590 900"/><path d="M0 0L-500 900"/><path d="M90 0L-410 900"/><path d="M180 0L-320 900"/><path d="M270 0L-230 900"/><path d="M360 0L-140 900"/><path d="M450 0L-50 900"/><path d="M540 0L40 900"/><path d="M630 0L130 900"/><path d="M720 0L220 900"/><path d="M810 0L310 900"/><path d="M900 0L400 900"/><path d="M990 0L490 900"/><path d="M1080 0L580 900"/><path d="M1170 0L670 900"/><path d="M1260 0L760 900"/><path d="M1350 0L850 900"/><path d="M1440 0L940 900"/><path d="M1530 0L1030 900"/><path d="M1620 0L1120 900"/><path d="M1710 0L1210 900"/><path d="M1800 0L1300 900"/><path d="M1890 0L1390 900"/><path d="M1980 0L1480 900"/><path d="M2070 0L1570 900"/><path d="M2160 0L1660 900"/><path d="M2250 0L1750 900"/><path d="M2340 0L1840 900"/><path d="M2430 0L1930 900"/><path d="M2520 0L2020 900"/><path d="M2610 0L2110 900"/></g><circle cx="1457.6" cy="542.8" r="1.9" fill="#fff" opacity="0.42"/><circle cx="107.7" cy="591.9" r="1.0" fill="#fff" opacity="0.34"/><circle cx="1452.8" cy="371.2" r="1.8" fill="#fff" opacity="0.26"/><circle cx="54.4" cy="38.2" r="2.8" fill="#fff" opacity="0.30"/><circle cx="1552.2" cy="212.2" r="1.7" fill="#fff" opacity="0.15"/><circle cx="227.3" cy="801.5" r="1.2" fill="#fff" opacity="0.44"/><circle cx="870.3" cy="193.7" r="2.8" fill="#fff" opacity="0.10"/><circle cx="487.5" cy="392.0" r="2.5" fill="#fff" opacity="0.17"/><circle cx="1303.5" cy="685.1" r="2.6" fill="#fff" opacity="0.09"/><circle cx="418.1" cy="830.5" r="1.6" fill="#fff" opacity="0.11"/><circle cx="388.5" cy="224.5" r="2.6" fill="#fff" opacity="0.45"/><circle cx="749.0" cy="469.3" r="0.9" fill="#fff" opacity="0.28"/><circle cx="1025.8" cy="822.2" r="1.9" fill="#fff" opacity="0.38"/><circle cx="390.1" cy="810.4" r="2.3" fill="#fff" opacity="0.22"/><circle cx="1556.1" cy="337.0" r="2.0" fill="#fff" opacity="0.10"/><circle cx="770.1" cy="129.9" r="2.8" fill="#fff" opacity="0.08"/><circle cx="526.0" cy="388.2" r="1.7" fill="#fff" opacity="0.09"/><circle cx="308.9" cy="421.1" r="2.3" fill="#fff" opacity="0.40"/><circle cx="1167.0" cy="529.2" r="2.9" fill="#fff" opacity="0.40"/><circle cx="1541.9" cy="503.1" r="1.8" fill="#fff" opacity="0.45"/><circle cx="1291.9" cy="225.2" r="2.5" fill="#fff" opacity="0.23"/><circle cx="874.5" cy="727.7" r="2.5" fill="#fff" opacity="0.29"/><circle cx="478.7" cy="523.4" r="1.5" fill="#fff" opacity="0.09"/><circle cx="1517.2" cy="148.3" r="2.9" fill="#fff" opacity="0.26"/><circle cx="1592.2" cy="833.4" r="1.0" fill="#fff" opacity="0.18"/><circle cx="1207.6" cy="332.6" r="1.2" fill="#fff" opacity="0.20"/><circle cx="548.7" cy="158.5" r="1.6" fill="#fff" opacity="0.32"/><circle cx="1488.8" cy="433.9" r="2.9" fill="#fff" opacity="0.32"/><circle cx="273.6" cy="752.8" r="2.7" fill="#fff" opacity="0.15"/><circle cx="59.0" cy="247.6" r="2.6" fill="#fff" opacity="0.32"/><circle cx="1212.2" cy="837.9" r="1.9" fill="#fff" opacity="0.27"/><circle cx="566.4" cy="42.3" r="2.6" fill="#fff" opacity="0.14"/><circle cx="1563.1" cy="585.3" r="2.4" fill="#fff" opacity="0.33"/><circle cx="467.7" cy="568.6" r="2.5" fill="#fff" opacity="0.34"/><circle cx="711.7" cy="143.0" r="1.8" fill="#fff" opacity="0.17"/><circle cx="76.7" cy="55.1" r="2.8" fill="#fff" opacity="0.17"/><circle cx="440.7" cy="447.8" r="1.8" fill="#fff" opacity="0.21"/><circle cx="1082.8" cy="424.1" r="1.5" fill="#fff" opacity="0.43"/><circle cx="1366.7" cy="260.7" r="2.4" fill="#fff" opacity="0.09"/><circle cx="1594.7" cy="31.7" r="2.9" fill="#fff" opacity="0.39"/><circle cx="988.3" cy="191.1" r="1.0" fill="#fff" opacity="0.37"/><circle cx="263.0" cy="871.0" r="2.3" fill="#fff" opacity="0.40"/><circle cx="1455.4" cy="827.0" r="1.6" fill="#fff" opacity="0.30"/><circle cx="1077.5" cy="74.6" r="0.9" fill="#fff" opacity="0.14"/><circle cx="438.7" cy="656.2" r="1.6" fill="#fff" opacity="0.36"/><circle cx="1219.6" cy="624.9" r="1.0" fill="#fff" opacity="0.33"/><circle cx="830" cy="270" r="105" fill="#0d0b09" stroke="#fff" stroke-opacity=".2" filter="url(#Ss1056)"/><path d="M886.0 270.0L928.0 270.0" stroke="hsl(0.0,85%,60%)" stroke-width="8"/><path d="M885.5 277.3L927.2 282.8" stroke="hsl(7.5,85%,60%)" stroke-width="8"/><path d="M884.1 284.5L924.7 295.4" stroke="hsl(15.0,85%,60%)" stroke-width="8"/><path d="M881.7 291.4L920.5 307.5" stroke="hsl(22.5,85%,60%)" stroke-width="8"/><path d="M878.5 298.0L914.9 319.0" stroke="hsl(30.0,85%,60%)" stroke-width="8"/><path d="M874.4 304.1L907.7 329.7" stroke="hsl(37.5,85%,60%)" stroke-width="8"/><path d="M869.6 309.6L899.3 339.3" stroke="hsl(45.0,85%,60%)" stroke-width="8"/><path d="M864.1 314.4L889.7 347.7" stroke="hsl(52.5,85%,60%)" stroke-width="8"/><path d="M858.0 318.5L879.0 354.9" stroke="hsl(60.0,85%,60%)" stroke-width="8"/><path d="M851.4 321.7L867.5 360.5" stroke="hsl(67.5,85%,60%)" stroke-width="8"/><path d="M844.5 324.1L855.4 364.7" stroke="hsl(75.0,85%,60%)" stroke-width="8"/><path d="M837.3 325.5L842.8 367.2" stroke="hsl(82.5,85%,60%)" stroke-width="8"/><path d="M830.0 326.0L830.0 368.0" stroke="hsl(90.0,85%,60%)" stroke-width="8"/><path d="M822.7 325.5L817.2 367.2" stroke="hsl(97.5,85%,60%)" stroke-width="8"/><path d="M815.5 324.1L804.6 364.7" stroke="hsl(105.0,85%,60%)" stroke-width="8"/><path d="M808.6 321.7L792.5 360.5" stroke="hsl(112.5,85%,60%)" stroke-width="8"/><path d="M802.0 318.5L781.0 354.9" stroke="hsl(120.0,85%,60%)" stroke-width="8"/><path d="M795.9 314.4L770.3 347.8" stroke="hsl(127.5,85%,60%)" stroke-width="8"/><path d="M790.4 309.6L760.7 339.3" stroke="hsl(135.0,85%,60%)" stroke-width="8"/><path d="M785.6 304.1L752.3 329.7" stroke="hsl(142.5,85%,60%)" stroke-width="8"/><path d="M781.5 298.0L745.1 319.0" stroke="hsl(150.0,85%,60%)" stroke-width="8"/><path d="M778.3 291.4L739.5 307.5" stroke="hsl(157.5,85%,60%)" stroke-width="8"/><path d="M775.9 284.5L735.3 295.4" stroke="hsl(165.0,85%,60%)" stroke-width="8"/><path d="M774.5 277.3L732.8 282.8" stroke="hsl(172.5,85%,60%)" stroke-width="8"/><path d="M774.0 270.0L732.0 270.0" stroke="hsl(180.0,85%,60%)" stroke-width="8"/><path d="M774.5 262.7L732.8 257.2" stroke="hsl(187.5,85%,60%)" stroke-width="8"/><path d="M775.9 255.5L735.3 244.6" stroke="hsl(195.0,85%,60%)" stroke-width="8"/><path d="M778.3 248.6L739.5 232.5" stroke="hsl(202.5,85%,60%)" stroke-width="8"/><path d="M781.5 242.0L745.1 221.0" stroke="hsl(210.0,85%,60%)" stroke-width="8"/><path d="M785.6 235.9L752.2 210.4" stroke="hsl(217.5,85%,60%)" stroke-width="8"/><path d="M790.4 230.4L760.7 200.7" stroke="hsl(225.0,85%,60%)" stroke-width="8"/><path d="M795.9 225.6L770.3 192.3" stroke="hsl(232.5,85%,60%)" stroke-width="8"/><path d="M802.0 221.5L781.0 185.1" stroke="hsl(240.0,85%,60%)" stroke-width="8"/><path d="M808.6 218.3L792.5 179.5" stroke="hsl(247.5,85%,60%)" stroke-width="8"/><path d="M815.5 215.9L804.6 175.3" stroke="hsl(255.0,85%,60%)" stroke-width="8"/><path d="M822.7 214.5L817.2 172.8" stroke="hsl(262.5,85%,60%)" stroke-width="8"/><path d="M830.0 214.0L830.0 172.0" stroke="hsl(270.0,85%,60%)" stroke-width="8"/><path d="M837.3 214.5L842.8 172.8" stroke="hsl(277.5,85%,60%)" stroke-width="8"/><path d="M844.5 215.9L855.4 175.3" stroke="hsl(285.0,85%,60%)" stroke-width="8"/><path d="M851.4 218.3L867.5 179.5" stroke="hsl(292.5,85%,60%)" stroke-width="8"/><path d="M858.0 221.5L879.0 185.1" stroke="hsl(300.0,85%,60%)" stroke-width="8"/><path d="M864.1 225.6L889.6 192.2" stroke="hsl(307.5,85%,60%)" stroke-width="8"/><path d="M869.6 230.4L899.3 200.7" stroke="hsl(315.0,85%,60%)" stroke-width="8"/><path d="M874.4 235.9L907.7 210.3" stroke="hsl(322.5,85%,60%)" stroke-width="8"/><path d="M878.5 242.0L914.9 221.0" stroke="hsl(330.0,85%,60%)" stroke-width="8"/><path d="M881.7 248.6L920.5 232.5" stroke="hsl(337.5,85%,60%)" stroke-width="8"/><path d="M884.1 255.5L924.7 244.6" stroke="hsl(345.0,85%,60%)" stroke-width="8"/><path d="M885.5 262.7L927.2 257.2" stroke="hsl(352.5,85%,60%)" stroke-width="8"/><circle cx="823.3" cy="256.6" r="13" fill="#fff" stroke="#000" stroke-width="3"/><circle cx="1090" cy="270" r="105" fill="#0d0b09" stroke="#fff" stroke-opacity=".2" filter="url(#Ss1056)"/><path d="M1146.0 270.0L1188.0 270.0" stroke="hsl(40.0,85%,60%)" stroke-width="8"/><path d="M1145.5 277.3L1187.2 282.8" stroke="hsl(47.5,85%,60%)" stroke-width="8"/><path d="M1144.1 284.5L1184.7 295.4" stroke="hsl(55.0,85%,60%)" stroke-width="8"/><path d="M1141.7 291.4L1180.5 307.5" stroke="hsl(62.5,85%,60%)" stroke-width="8"/><path d="M1138.5 298.0L1174.9 319.0" stroke="hsl(70.0,85%,60%)" stroke-width="8"/><path d="M1134.4 304.1L1167.7 329.7" stroke="hsl(77.5,85%,60%)" stroke-width="8"/><path d="M1129.6 309.6L1159.3 339.3" stroke="hsl(85.0,85%,60%)" stroke-width="8"/><path d="M1124.1 314.4L1149.7 347.7" stroke="hsl(92.5,85%,60%)" stroke-width="8"/><path d="M1118.0 318.5L1139.0 354.9" stroke="hsl(100.0,85%,60%)" stroke-width="8"/><path d="M1111.4 321.7L1127.5 360.5" stroke="hsl(107.5,85%,60%)" stroke-width="8"/><path d="M1104.5 324.1L1115.4 364.7" stroke="hsl(115.0,85%,60%)" stroke-width="8"/><path d="M1097.3 325.5L1102.8 367.2" stroke="hsl(122.5,85%,60%)" stroke-width="8"/><path d="M1090.0 326.0L1090.0 368.0" stroke="hsl(130.0,85%,60%)" stroke-width="8"/><path d="M1082.7 325.5L1077.2 367.2" stroke="hsl(137.5,85%,60%)" stroke-width="8"/><path d="M1075.5 324.1L1064.6 364.7" stroke="hsl(145.0,85%,60%)" stroke-width="8"/><path d="M1068.6 321.7L1052.5 360.5" stroke="hsl(152.5,85%,60%)" stroke-width="8"/><path d="M1062.0 318.5L1041.0 354.9" stroke="hsl(160.0,85%,60%)" stroke-width="8"/><path d="M1055.9 314.4L1030.3 347.8" stroke="hsl(167.5,85%,60%)" stroke-width="8"/><path d="M1050.4 309.6L1020.7 339.3" stroke="hsl(175.0,85%,60%)" stroke-width="8"/><path d="M1045.6 304.1L1012.3 329.7" stroke="hsl(182.5,85%,60%)" stroke-width="8"/><path d="M1041.5 298.0L1005.1 319.0" stroke="hsl(190.0,85%,60%)" stroke-width="8"/><path d="M1038.3 291.4L999.5 307.5" stroke="hsl(197.5,85%,60%)" stroke-width="8"/><path d="M1035.9 284.5L995.3 295.4" stroke="hsl(205.0,85%,60%)" stroke-width="8"/><path d="M1034.5 277.3L992.8 282.8" stroke="hsl(212.5,85%,60%)" stroke-width="8"/><path d="M1034.0 270.0L992.0 270.0" stroke="hsl(220.0,85%,60%)" stroke-width="8"/><path d="M1034.5 262.7L992.8 257.2" stroke="hsl(227.5,85%,60%)" stroke-width="8"/><path d="M1035.9 255.5L995.3 244.6" stroke="hsl(235.0,85%,60%)" stroke-width="8"/><path d="M1038.3 248.6L999.5 232.5" stroke="hsl(242.5,85%,60%)" stroke-width="8"/><path d="M1041.5 242.0L1005.1 221.0" stroke="hsl(250.0,85%,60%)" stroke-width="8"/><path d="M1045.6 235.9L1012.2 210.4" stroke="hsl(257.5,85%,60%)" stroke-width="8"/><path d="M1050.4 230.4L1020.7 200.7" stroke="hsl(265.0,85%,60%)" stroke-width="8"/><path d="M1055.9 225.6L1030.3 192.3" stroke="hsl(272.5,85%,60%)" stroke-width="8"/><path d="M1062.0 221.5L1041.0 185.1" stroke="hsl(280.0,85%,60%)" stroke-width="8"/><path d="M1068.6 218.3L1052.5 179.5" stroke="hsl(287.5,85%,60%)" stroke-width="8"/><path d="M1075.5 215.9L1064.6 175.3" stroke="hsl(295.0,85%,60%)" stroke-width="8"/><path d="M1082.7 214.5L1077.2 172.8" stroke="hsl(302.5,85%,60%)" stroke-width="8"/><path d="M1090.0 214.0L1090.0 172.0" stroke="hsl(310.0,85%,60%)" stroke-width="8"/><path d="M1097.3 214.5L1102.8 172.8" stroke="hsl(317.5,85%,60%)" stroke-width="8"/><path d="M1104.5 215.9L1115.4 175.3" stroke="hsl(325.0,85%,60%)" stroke-width="8"/><path d="M1111.4 218.3L1127.5 179.5" stroke="hsl(332.5,85%,60%)" stroke-width="8"/><path d="M1118.0 221.5L1139.0 185.1" stroke="hsl(340.0,85%,60%)" stroke-width="8"/><path d="M1124.1 225.6L1149.6 192.2" stroke="hsl(347.5,85%,60%)" stroke-width="8"/><path d="M1129.6 230.4L1159.3 200.7" stroke="hsl(355.0,85%,60%)" stroke-width="8"/><path d="M1134.4 235.9L1167.7 210.3" stroke="hsl(2.5,85%,60%)" stroke-width="8"/><path d="M1138.5 242.0L1174.9 221.0" stroke="hsl(10.0,85%,60%)" stroke-width="8"/><path d="M1141.7 248.6L1180.5 232.5" stroke="hsl(17.5,85%,60%)" stroke-width="8"/><path d="M1144.1 255.5L1184.7 244.6" stroke="hsl(25.0,85%,60%)" stroke-width="8"/><path d="M1145.5 262.7L1187.2 257.2" stroke="hsl(32.5,85%,60%)" stroke-width="8"/><circle cx="1116.8" cy="285.1" r="13" fill="#fff" stroke="#000" stroke-width="3"/><circle cx="1350" cy="270" r="105" fill="#0d0b09" stroke="#fff" stroke-opacity=".2" filter="url(#Ss1056)"/><path d="M1406.0 270.0L1448.0 270.0" stroke="hsl(80.0,85%,60%)" stroke-width="8"/><path d="M1405.5 277.3L1447.2 282.8" stroke="hsl(87.5,85%,60%)" stroke-width="8"/><path d="M1404.1 284.5L1444.7 295.4" stroke="hsl(95.0,85%,60%)" stroke-width="8"/><path d="M1401.7 291.4L1440.5 307.5" stroke="hsl(102.5,85%,60%)" stroke-width="8"/><path d="M1398.5 298.0L1434.9 319.0" stroke="hsl(110.0,85%,60%)" stroke-width="8"/><path d="M1394.4 304.1L1427.7 329.7" stroke="hsl(117.5,85%,60%)" stroke-width="8"/><path d="M1389.6 309.6L1419.3 339.3" stroke="hsl(125.0,85%,60%)" stroke-width="8"/><path d="M1384.1 314.4L1409.7 347.7" stroke="hsl(132.5,85%,60%)" stroke-width="8"/><path d="M1378.0 318.5L1399.0 354.9" stroke="hsl(140.0,85%,60%)" stroke-width="8"/><path d="M1371.4 321.7L1387.5 360.5" stroke="hsl(147.5,85%,60%)" stroke-width="8"/><path d="M1364.5 324.1L1375.4 364.7" stroke="hsl(155.0,85%,60%)" stroke-width="8"/><path d="M1357.3 325.5L1362.8 367.2" stroke="hsl(162.5,85%,60%)" stroke-width="8"/><path d="M1350.0 326.0L1350.0 368.0" stroke="hsl(170.0,85%,60%)" stroke-width="8"/><path d="M1342.7 325.5L1337.2 367.2" stroke="hsl(177.5,85%,60%)" stroke-width="8"/><path d="M1335.5 324.1L1324.6 364.7" stroke="hsl(185.0,85%,60%)" stroke-width="8"/><path d="M1328.6 321.7L1312.5 360.5" stroke="hsl(192.5,85%,60%)" stroke-width="8"/><path d="M1322.0 318.5L1301.0 354.9" stroke="hsl(200.0,85%,60%)" stroke-width="8"/><path d="M1315.9 314.4L1290.3 347.8" stroke="hsl(207.5,85%,60%)" stroke-width="8"/><path d="M1310.4 309.6L1280.7 339.3" stroke="hsl(215.0,85%,60%)" stroke-width="8"/><path d="M1305.6 304.1L1272.3 329.7" stroke="hsl(222.5,85%,60%)" stroke-width="8"/><path d="M1301.5 298.0L1265.1 319.0" stroke="hsl(230.0,85%,60%)" stroke-width="8"/><path d="M1298.3 291.4L1259.5 307.5" stroke="hsl(237.5,85%,60%)" stroke-width="8"/><path d="M1295.9 284.5L1255.3 295.4" stroke="hsl(245.0,85%,60%)" stroke-width="8"/><path d="M1294.5 277.3L1252.8 282.8" stroke="hsl(252.5,85%,60%)" stroke-width="8"/><path d="M1294.0 270.0L1252.0 270.0" stroke="hsl(260.0,85%,60%)" stroke-width="8"/><path d="M1294.5 262.7L1252.8 257.2" stroke="hsl(267.5,85%,60%)" stroke-width="8"/><path d="M1295.9 255.5L1255.3 244.6" stroke="hsl(275.0,85%,60%)" stroke-width="8"/><path d="M1298.3 248.6L1259.5 232.5" stroke="hsl(282.5,85%,60%)" stroke-width="8"/><path d="M1301.5 242.0L1265.1 221.0" stroke="hsl(290.0,85%,60%)" stroke-width="8"/><path d="M1305.6 235.9L1272.2 210.4" stroke="hsl(297.5,85%,60%)" stroke-width="8"/><path d="M1310.4 230.4L1280.7 200.7" stroke="hsl(305.0,85%,60%)" stroke-width="8"/><path d="M1315.9 225.6L1290.3 192.3" stroke="hsl(312.5,85%,60%)" stroke-width="8"/><path d="M1322.0 221.5L1301.0 185.1" stroke="hsl(320.0,85%,60%)" stroke-width="8"/><path d="M1328.6 218.3L1312.5 179.5" stroke="hsl(327.5,85%,60%)" stroke-width="8"/><path d="M1335.5 215.9L1324.6 175.3" stroke="hsl(335.0,85%,60%)" stroke-width="8"/><path d="M1342.7 214.5L1337.2 172.8" stroke="hsl(342.5,85%,60%)" stroke-width="8"/><path d="M1350.0 214.0L1350.0 172.0" stroke="hsl(350.0,85%,60%)" stroke-width="8"/><path d="M1357.3 214.5L1362.8 172.8" stroke="hsl(357.5,85%,60%)" stroke-width="8"/><path d="M1364.5 215.9L1375.4 175.3" stroke="hsl(5.0,85%,60%)" stroke-width="8"/><path d="M1371.4 218.3L1387.5 179.5" stroke="hsl(12.5,85%,60%)" stroke-width="8"/><path d="M1378.0 221.5L1399.0 185.1" stroke="hsl(20.0,85%,60%)" stroke-width="8"/><path d="M1384.1 225.6L1409.6 192.2" stroke="hsl(27.5,85%,60%)" stroke-width="8"/><path d="M1389.6 230.4L1419.3 200.7" stroke="hsl(35.0,85%,60%)" stroke-width="8"/><path d="M1394.4 235.9L1427.7 210.3" stroke="hsl(42.5,85%,60%)" stroke-width="8"/><path d="M1398.5 242.0L1434.9 221.0" stroke="hsl(50.0,85%,60%)" stroke-width="8"/><path d="M1401.7 248.6L1440.5 232.5" stroke="hsl(57.5,85%,60%)" stroke-width="8"/><path d="M1404.1 255.5L1444.7 244.6" stroke="hsl(65.0,85%,60%)" stroke-width="8"/><path d="M1405.5 262.7L1447.2 257.2" stroke="hsl(72.5,85%,60%)" stroke-width="8"/><circle cx="1362.8" cy="264.2" r="13" fill="#fff" stroke="#000" stroke-width="3"/><g filter="url(#Ss1056)" opacity="1"><rect x="700" y="440" width="800" height="82" rx="18" fill="#14110d" fill-opacity=".86"/><rect x="700" y="440" width="800" height="82" rx="18" fill="url(#Gs1056)" stroke="#fff" stroke-opacity=".16"/></g><rect x="720" y="460" width="760" height="42" rx="10" fill="url(#lgs10560)"/><g filter="url(#Ss1056)" opacity="1"><rect x="700" y="545" width="800" height="82" rx="18" fill="#14110d" fill-opacity=".86"/><rect x="700" y="545" width="800" height="82" rx="18" fill="url(#Gs1056)" stroke="#fff" stroke-opacity=".16"/></g><rect x="720" y="565" width="760" height="42" rx="10" fill="url(#lgs10561)"/><g filter="url(#Ss1056)" opacity="1"><rect x="700" y="650" width="800" height="82" rx="18" fill="#14110d" fill-opacity=".86"/><rect x="700" y="650" width="800" height="82" rx="18" fill="url(#Gs1056)" stroke="#fff" stroke-opacity=".16"/></g><rect x="720" y="670" width="760" height="42" rx="10" fill="url(#lgs10562)"/><rect width="1600" height="900" fill="none" stroke="none"/></svg>