<svg xmlns="http://www.w3.org/2000/svg" viewBox="0 0 1600 900" preserveAspectRatio="xMidYMid slice" xmlns:c2pa="http://c2pa.org/manifest"><metadata><c2pa:manifest>AAAWgmp1bWIAAAAeanVtZGMycGEAEQAQgAAAqgA4m3EDYzJwYQAAABZcanVtYgAAAEdqdW1kYzJtYQARABCAAACqADibcQN1cm46YzJwYTplMWQ3NjgxYi0zMDY0LTQwZDgtYjhiOC0zNGU0ODI1NzAyOTAAAAADl2p1bWIAAAApanVtZGMyYXMAEQAQgAAAqgA4m3EDYzJwYS5hc3NlcnRpb25zAAAAALxqdW1iAAAARGp1bWRjYm9yABEAEIAAAKoAOJtxE2MycGEuaW5ncmVkaWVudC52MwAAAAAYYzJzaAxfXrzwzg1mh1fZY01G//gAAABwY2JvcqNpZGM6Zm9ybWF0bWltYWdlL3N2Zyt4bWxqaW5zdGFuY2VJRHgseG1wOmlpZDoxNTNiOWUxMS02NThkLTQ5MWMtODMzNi1hNjFlODFlODViMDFscmVsYXRpb25zaGlwaHBhcmVudE9mAAAB4mp1bWIAAABBanVtZGNib3IAEQAQgAAAqgA4m3ETYzJwYS5hY3Rpb25zLnYyAAAAABhjMnNo34bql15rXGx29oeLesR+ygAAAZljYm9yomdhY3Rpb25zgqJmYWN0aW9ua2MycGEub3BlbmVkanBhcmFtZXRlcnOha2luZ3JlZGllbnRzgaJjdXJseC1zZWxmI2p1bWJmPWMycGEuYXNzZXJ0aW9ucy9jMnBhLmluZ3JlZGllbnQudjNkaGFzaFggYrqvcqZkkAruscRoLWqLdpSBDe5mr6BHF5rq+X5twYWkZmFjdGlvbngdY29tLmFudGhyb3BpYy5jbGF1ZGUucHJvdmlkZWRqcGFyYW1ldGVyc6F4H2NvbS5hbnRocm9waWMub3JpZ2luLWNvbmZpZGVuY2VndW5rbm93bmtkZXNjcmlwdGlvbnhmQ2xhdWRlIHByb3ZpZGVkIHRoaXMgZmlsZSBhdCB0aGUgcmVxdWVzdCBvZiBhIHVzZXIgYW5kIG1heSBoYXZlIGNyZWF0ZWQgb3IgbW9kaWZpZWQgdGhlIGZpbGUgY29udGVudHMubXNvZnR3YXJlQWdlbnShZG5hbWVmQ2xhdWRlcmFsbEFjdGlvbnNJbmNsdWRlZPUAAADIanVtYgAAAEBqdW1kY2JvcgARABCAAACqADibcRNjMnBhLmhhc2guZGF0YQAAAAAYYzJzaNkyNPbawoRapiwyuJzp16QAAACAY2JvcqVjYWxnZnNoYTI1NmNwYWRNAAAAAAAAAAAAAAAAAGRoYXNoWCBsBco2i/02VnTI052V9lopPHE2E83XtJG0JJQu7VR78WRuYW1lbmp1bWJmIG1hbmlmZXN0amV4Y2x1c2lvbnOBomVzdGFydBijZmxlbmd0aBkeBAAAAj5qdW1iAAAAJ2p1bWRjMmNsABEAEIAAAKoAOJtxA2MycGEuY2xhaW0udjIAAAACD2Nib3KlY2FsZ2ZzaGEyNTZpc2lnbmF0dXJleE1zZWxmI2p1bWJmPS9jMnBhL3VybjpjMnBhOmUxZDc2ODFiLTMwNjQtNDBkOC1iOGI4LTM0ZTQ4MjU3MDI5MC9jMnBhLnNpZ25hdHVyZWppbnN0YW5jZUlEeCx4bXA6aWlkOjllOTIzNjA4LTRlZjYtNGI5Ny04MzFjLTljMDQyOTI0Y2FjY3JjcmVhdGVkX2Fzc2VydGlvbnODomN1cmx4LXNlbGYjanVtYmY9YzJwYS5hc3NlcnRpb25zL2MycGEuaW5ncmVkaWVudC52M2RoYXNoWCBiuq9ypmSQCu6xxGgtaot2lIEN7mavoEcXmur5fm3BhaJjdXJseCpzZWxmI2p1bWJmPWMycGEuYXNzZXJ0aW9ucy9jMnBhLmFjdGlvbnMudjJkaGFzaFggZFgOw+JhkbDwYVtvPpCeUmO7aYq+Hg02WDVJ/mHZ28miY3VybHgpc2VsZiNqdW1iZj1jMnBhLmFzc2VydGlvbnMvYzJwYS5oYXNoLmRhdGFkaGFzaFggqzCYmUB0KAg421jvzV/7eRkAKqG9GfgiCvReEl3zYy50Y2xhaW1fZ2VuZXJhdG9yX2luZm+jZG5hbWVvQW50aHJvcGljIEZpbGVzZ3ZlcnNpb25lMS4wLjBrc3BlY1ZlcnNpb25lMi40LjAAABA4anVtYgAAAChqdW1kYzJjcwARABCAAACqADibcQNjMnBhLnNpZ25hdHVyZQAAABAIY2JvctKEWQISogEmGCFZAgowggIGMIIBjaADAgECAhRA5aAK7sI50L64g/oGQgU9Z1UTADAKBggqhkjOPQQDAzBJMRcwFQYDVQQKEw5BbnRocm9waWMsIFBCQzEuMCwGA1UEAxMlQW50aHJvcGljIENvbnRlbnQgQ3JlZGVudGlhbHMgUm9vdCBDQTAeFw0yNjA4MDcxODQzNTZaFw0yODA4MDYxOTQzNTZaMEQxFzAVBgNVBAoTDkFudGhyb3BpYywgUEJDMSkwJwYDVQQDEyBBbnRocm9waWMgQ2xhdWRlIENvbnRlbnQgU2lnbmluZzBZMBMGByqGSM49AgEGCCqGSM49AwEHA0IABJh6CmvLUBgFFNU0vUKlOVtE6djd17L5SuwX0LemFisBM3dkd/3cyjxFA3Qo5S46fX0/ihY0VZ7mfb9KF703t5OjWDBWMA4GA1UdDwEB/wQEAwIHgDAVBgNVHSUEDjAMBgorBgEEAYPoXgIBMAwGA1UdEwEB/wQCMAAwHwYDVR0jBBgwFoAUzlHiBIFOZFsj+OPEz5o+nMHXXMIwCgYIKoZIzj0EAwMDZwAwZAIwMXMdFJ4BetLLVY7ORuE9noqbbAZOZn/aArXyTwFAZfKrPzxF2vPoJNf1+UCdg1XGAjBwX1zd9WGqYkqmL5SFqw1QySjr1zJfpJM9+1rdDwSPLMOPOjKuiXjoU/pUUeG9RwmhY3BhZFkNngAAAAAAAAAAAAAAAAAAAAAAAAAAAAAAAAAAAAAAAAAAAAAAAAAAAAAAAAAAAAAAAAAAAAAAAAAAAAAAAAAAAAAAAAAAAAAAAAAAAAAAAAAAAAAAAAAAAAAAAAAAAAAAAAAAAAAAAAAAAAAAAAAAAAAAAAAAAAAAAAAAAAAAAAAAAAAAAAAAAAAAAAAAAAAAAAAAAAAAAAAAAAAAAAAAAAAAAAAAAAAAAAAAAAAAAAAAAAAAAAAAAAAAAAAAAAAAAAAAAAAAAAAAAAAAAAAAAAAAAAAAAAAAAAAAAAAAAAAAAAAAAAAAAAAAAAAAAAAAAAAAAAAAAAAAAAAAAAAAAAAAAAAAAAAAAAAAAAAAAAAAAAAAAAAAAAAAAAAAAAAAAAAAAAAAAAAAAAAAAAAAAAAAAAAAAAAAAAAAAAAAAAAAAAAAAAAAAAAAAAAAAAAAAAAAAAAAAAAAAAAAAAAAAAAAAAAAAAAAAAAAAAAAAAAAAAAAAAAAAAAAAAAAAAAAAAAAAAAAAAAAAAAAAAAAAAAAAAAAAAAAAAAAAAAAAAAAAAAAAAAAAAAAAAAAAAAAAAAAAAAAAAAAAAAAAAAAAAAAAAAAAAAAAAAAAAAAAAAAAAAAAAAAAAAAAAAAAAAAAAAAAAAAAAAAAAAAAAAAAAAAAAAAAAAAAAAAAAAAAAAAAAAAAAAAAAAAAAAAAAAAAAAAAAAAAAAAAAAAAAAAAAAAAAAAAAAAAAAAAAAAAAAAAAAAAAAAAAAAAAAAAAAAAAAAAAAAAAAAAAAAAAAAAAAAAAAAAAAAAAAAAAAAAAAAAAAAAAAAAAAAAAAAAAAAAAAAAAAAAAAAAAAAAAAAAAAAAAAAAAAAAAAAAAAAAAAAAAAAAAAAAAAAAAAAAAAAAAAAAAAAAAAAAAAAAAAAAAAAAAAAAAAAAAAAAAAAAAAAAAAAAAAAAAAAAAAAAAAAAAAAAAAAAAAAAAAAAAAAAAAAAAAAAAAAAAAAAAAAAAAAAAAAAAAAAAAAAAAAAAAAAAAAAAAAAAAAAAAAAAAAAAAAAAAAAAAAAAAAAAAAAAAAAAAAAAAAAAAAAAAAAAAAAAAAAAAAAAAAAAAAAAAAAAAAAAAAAAAAAAAAAAAAAAAAAAAAAAAAAAAAAAAAAAAAAAAAAAAAAAAAAAAAAAAAAAAAAAAAAAAAAAAAAAAAAAAAAAAAAAAAAAAAAAAAAAAAAAAAAAAAAAAAAAAAAAAAAAAAAAAAAAAAAAAAAAAAAAAAAAAAAAAAAAAAAAAAAAAAAAAAAAAAAAAAAAAAAAAAAAAAAAAAAAAAAAAAAAAAAAAAAAAAAAAAAAAAAAAAAAAAAAAAAAAAAAAAAAAAAAAAAAAAAAAAAAAAAAAAAAAAAAAAAAAAAAAAAAAAAAAAAAAAAAAAAAAAAAAAAAAAAAAAAAAAAAAAAAAAAAAAAAAAAAAAAAAAAAAAAAAAAAAAAAAAAAAAAAAAAAAAAAAAAAAAAAAAAAAAAAAAAAAAAAAAAAAAAAAAAAAAAAAAAAAAAAAAAAAAAAAAAAAAAAAAAAAAAAAAAAAAAAAAAAAAAAAAAAAAAAAAAAAAAAAAAAAAAAAAAAAAAAAAAAAAAAAAAAAAAAAAAAAAAAAAAAAAAAAAAAAAAAAAAAAAAAAAAAAAAAAAAAAAAAAAAAAAAAAAAAAAAAAAAAAAAAAAAAAAAAAAAAAAAAAAAAAAAAAAAAAAAAAAAAAAAAAAAAAAAAAAAAAAAAAAAAAAAAAAAAAAAAAAAAAAAAAAAAAAAAAAAAAAAAAAAAAAAAAAAAAAAAAAAAAAAAAAAAAAAAAAAAAAAAAAAAAAAAAAAAAAAAAAAAAAAAAAAAAAAAAAAAAAAAAAAAAAAAAAAAAAAAAAAAAAAAAAAAAAAAAAAAAAAAAAAAAAAAAAAAAAAAAAAAAAAAAAAAAAAAAAAAAAAAAAAAAAAAAAAAAAAAAAAAAAAAAAAAAAAAAAAAAAAAAAAAAAAAAAAAAAAAAAAAAAAAAAAAAAAAAAAAAAAAAAAAAAAAAAAAAAAAAAAAAAAAAAAAAAAAAAAAAAAAAAAAAAAAAAAAAAAAAAAAAAAAAAAAAAAAAAAAAAAAAAAAAAAAAAAAAAAAAAAAAAAAAAAAAAAAAAAAAAAAAAAAAAAAAAAAAAAAAAAAAAAAAAAAAAAAAAAAAAAAAAAAAAAAAAAAAAAAAAAAAAAAAAAAAAAAAAAAAAAAAAAAAAAAAAAAAAAAAAAAAAAAAAAAAAAAAAAAAAAAAAAAAAAAAAAAAAAAAAAAAAAAAAAAAAAAAAAAAAAAAAAAAAAAAAAAAAAAAAAAAAAAAAAAAAAAAAAAAAAAAAAAAAAAAAAAAAAAAAAAAAAAAAAAAAAAAAAAAAAAAAAAAAAAAAAAAAAAAAAAAAAAAAAAAAAAAAAAAAAAAAAAAAAAAAAAAAAAAAAAAAAAAAAAAAAAAAAAAAAAAAAAAAAAAAAAAAAAAAAAAAAAAAAAAAAAAAAAAAAAAAAAAAAAAAAAAAAAAAAAAAAAAAAAAAAAAAAAAAAAAAAAAAAAAAAAAAAAAAAAAAAAAAAAAAAAAAAAAAAAAAAAAAAAAAAAAAAAAAAAAAAAAAAAAAAAAAAAAAAAAAAAAAAAAAAAAAAAAAAAAAAAAAAAAAAAAAAAAAAAAAAAAAAAAAAAAAAAAAAAAAAAAAAAAAAAAAAAAAAAAAAAAAAAAAAAAAAAAAAAAAAAAAAAAAAAAAAAAAAAAAAAAAAAAAAAAAAAAAAAAAAAAAAAAAAAAAAAAAAAAAAAAAAAAAAAAAAAAAAAAAAAAAAAAAAAAAAAAAAAAAAAAAAAAAAAAAAAAAAAAAAAAAAAAAAAAAAAAAAAAAAAAAAAAAAAAAAAAAAAAAAAAAAAAAAAAAAAAAAAAAAAAAAAAAAAAAAAAAAAAAAAAAAAAAAAAAAAAAAAAAAAAAAAAAAAAAAAAAAAAAAAAAAAAAAAAAAAAAAAAAAAAAAAAAAAAAAAAAAAAAAAAAAAAAAAAAAAAAAAAAAAAAAAAAAAAAAAAAAAAAAAAAAAAAAAAAAAAAAAAAAAAAAAAAAAAAAAAAAAAAAAAAAAAAAAAAAAAAAAAAAAAAAAAAAAAAAAAAAAAAAAAAAAAAAAAAAAAAAAAAAAAAAAAAAAAAAAAAAAAAAAAAAAAAAAAAAAAAAAAAAAAAAAAAAAAAAAAAAAAAAAAAAAAAAAAAAAAAAAAAAAAAAAAAAAAAAAAAAAAAAAAAAAAAAAAAAAAAAAAAAAAAAAAAAAAAAAAAAAAAAAAAAAAAAAAAAAAAAAAAAAAAAAAAAAAAAAAAAAAAAAAAAAAAAAAAAAAAAAAAAAAAAAAAAAAAAAAAAAAAAAAAAAAAAAAAAAAAAAAAAAAAAAAAAAAAAAAAAAAAAAAAAAAAAAAAAAAAAAAAAAAAAAAAAAAAAAAAAAAAAAAAAAAAAAAAAAAAAAAAAAAAAAAAAAAAAAAAAAAAAAAAAAAAAAAAAAAAAAAAAAAAAAAAAAAAAAAAAAAAAAAAAAAAAAAAAAAAAAAAAAAAAAAAAAAAAAAAAAAAAAAAAAAAAAAAAAAAAAAAAAAAAAAAAAAAAAAAAAAAAAAAAAAAAAAAAAAAAAAAAAAAAAAAAAAAAAAAAAAAAAAAAAAAAAAAAAAAAAAAAAAAAAAAAAAAAAAAAAAAAAAAAAAAAAAAAAAAAAAAAAAAAAAAAAAAAAAAAAAAAAAAAAAAAAAAAAAAAAAAAAAAAAAAAAAAAAAAAAAAAAAAAAAAAAAAAAAAAAAAAAAAAAAAAAAAAAAAAAAAAAAAAAAAAAAAAAAAAAAAAAAAAAAAAAAAAAAAAAAAAAAAAAAAAAAAAAAAAAAAAAAAAAAAAAAAAAAAAAAAAAAAAAAAAAAAAAAAAAAAAAAAAAAAAAAAAAAAAAAAAAAAAAAAAAAAAAAAAAAAAAAAAAAAAAAAAAAAAAAAAAAAAAAAAAAAAAAAAAAAAAAAAAAAAAAAAAAAAAAAAAAAAAAAAAAAAAAAAAAAAAAAAAAAAAAAAAAAAAAAAAAAAAAAAAAAAAAAAAAAAAAAAAAAAAAAAAAAAAAAAAAAAAAAAAAAAAAAAAAAAAAAAAAAAAAAAAAAAAAAAAAAAAAAAAAAAAAAAAAAAAAAAAAAAAAAAAAAAAAAAAAAAAAAAAAAAAAAAAAAAAAAAAAAAAAAAAAAAAAAAAAAAAAAAAAAAAAAAAAAAAAAAAAAAAAAAAAAAAAAAAAAAAAAAAAAAAAAAAAAAAAAAAAAAAAAAAAAAAAAAAAAAAAAAAAAAAAAAAAAAAAAAAAAAAAAAAAAAAAAAAAAAAAAAAAAAAAAAAAAAAAAAAAAAAAAAAAAAAAAAAAAAAAAAAAAAAAAAAAAAAAAAAAAAAAAAAAAAAAAAAAAAAAAAAAAAAAAAAAAAAAAAAAAAAAAAAAAAAAAAAAAAAAAAAAAAAAAAAAAAAAAAAAAAAAAAAAAAAAAAAAAAAAAAAAAAAAAAAAAAAAAAAAAAAAAAAAAAAAAAAAAAAAAAAAAAAAAAAAAAAAAAAAAAAAAAAAAAAAAAAAAAAAAAAAAAAAAAAAAAAAAAAAAAAAAAAAAAAAAAAAAAAAAAAAAAAAAAAAAAAAAAAAAAAAAAAAAAPZYQFCKb7I0rqJmC0Y0LnX58D9gF8qfER/KM6wp96vPoVcb1aCgtu22vexzsIJzVyTxlhiOilzoWtiGQB6n7DTgnx4=</c2pa:manifest></metadata>
<defs>
<radialGradient id="bglet2084" cx="0.66" cy="0.40" r="1"><stop offset="0" stop-color="#5d4a12" stop-opacity=".95"/><stop offset=".55" stop-color="#14120a"/><stop offset="1" stop-color="#070706"/></radialGradient>
<linearGradient id="glet2084" x1="0" y1="0" x2="0" y2="1"><stop offset="0" stop-color="#fff7d6"/><stop offset=".5" stop-color="#FFE9A0"/><stop offset="1" stop-color="#D9B34A"/></linearGradient>
<linearGradient id="hlet2084" x1="0" y1="0" x2="1" y2="1"><stop offset="0" stop-color="#FFE9A0"/><stop offset="1" stop-color="#5d4a12"/></linearGradient>
<filter id="gllet2084" x="-30%" y="-30%" width="160%" height="160%"><feGaussianBlur stdDeviation="14"/></filter>
<filter id="smlet2084" x="-30%" y="-30%" width="160%" height="160%"><feGaussianBlur stdDeviation="3"/></filter>
</defs>
<rect width="1600" height="900" fill="url(#bglet2084)"/>
<g stroke="#D9B34A" stroke-opacity=".07" stroke-width="1"><path d="M0 0V900"/><path d="M80 0V900"/><path d="M160 0V900"/><path d="M240 0V900"/><path d="M320 0V900"/><path d="M400 0V900"/><path d="M480 0V900"/><path d="M560 0V900"/><path d="M640 0V900"/><path d="M720 0V900"/><path d="M800 0V900"/><path d="M880 0V900"/><path d="M960 0V900"/><path d="M1040 0V900"/><path d="M1120 0V900"/><path d="M1200 0V900"/><path d="M1280 0V900"/><path d="M1360 0V900"/><path d="M1440 0V900"/><path d="M1520 0V900"/><path d="M0 0H1600"/><path d="M0 80H1600"/><path d="M0 160H1600"/><path d="M0 240H1600"/><path d="M0 320H1600"/><path d="M0 400H1600"/><path d="M0 480H1600"/><path d="M0 560H1600"/><path d="M0 640H1600"/><path d="M0 720H1600"/><path d="M0 800H1600"/><path d="M0 880H1600"/></g><circle cx="959.1" cy="616.1" r="149.6" fill="#D9B34A" opacity=".16" filter="url(#gllet2084)"/><circle cx="1014.4" cy="176.2" r="198.6" fill="#D9B34A" opacity=".16" filter="url(#gllet2084)"/><circle cx="1470.4" cy="206.7" r="142.5" fill="#D9B34A" opacity=".16" filter="url(#gllet2084)"/><circle cx="947.5" cy="483.0" r="2.9" fill="#fff7d6" opacity="0.22"/><circle cx="766.0" cy="310.8" r="1.6" fill="#fff7d6" opacity="0.24"/><circle cx="377.4" cy="697.8" r="3.1" fill="#fff7d6" opacity="0.40"/><circle cx="320.0" cy="784.3" r="2.4" fill="#fff7d6" opacity="0.49"/><circle cx="121.5" cy="202.2" r="1.6" fill="#fff7d6" opacity="0.17"/><circle cx="1275.2" cy="198.5" r="1.4" fill="#fff7d6" opacity="0.24"/><circle cx="307.6" cy="303.7" r="1.3" fill="#fff7d6" opacity="0.35"/><circle cx="376.5" cy="28.2" r="2.9" fill="#fff7d6" opacity="0.49"/><circle cx="372.1" cy="65.3" r="2.2" fill="#fff7d6" opacity="0.42"/><circle cx="1424.8" cy="234.1" r="2.3" fill="#fff7d6" opacity="0.30"/><circle cx="719.4" cy="705.6" r="2.6" fill="#fff7d6" opacity="0.13"/><circle cx="125.4" cy="169.8" r="1.0" fill="#fff7d6" opacity="0.30"/><circle cx="1082.6" cy="357.8" r="1.3" fill="#fff7d6" opacity="0.46"/><circle cx="1140.6" cy="825.1" r="2.9" fill="#fff7d6" opacity="0.23"/><circle cx="1188.4" cy="535.4" r="2.0" fill="#fff7d6" opacity="0.17"/><circle cx="1023.1" cy="95.9" r="2.0" fill="#fff7d6" opacity="0.35"/><circle cx="1215.3" cy="707.6" r="1.6" fill="#fff7d6" opacity="0.26"/><circle cx="757.8" cy="592.8" r="1.2" fill="#fff7d6" opacity="0.18"/><circle cx="1046.1" cy="19.6" r="1.5" fill="#fff7d6" opacity="0.40"/><circle cx="500.6" cy="677.2" r="1.8" fill="#fff7d6" opacity="0.40"/><circle cx="335.8" cy="221.5" r="1.0" fill="#fff7d6" opacity="0.39"/><circle cx="1417.3" cy="216.6" r="2.6" fill="#fff7d6" opacity="0.19"/><circle cx="1349.6" cy="360.6" r="2.3" fill="#fff7d6" opacity="0.49"/><circle cx="1028.3" cy="303.5" r="1.9" fill="#fff7d6" opacity="0.27"/><circle cx="355.9" cy="555.5" r="2.1" fill="#fff7d6" opacity="0.27"/><circle cx="877.5" cy="13.0" r="1.2" fill="#fff7d6" opacity="0.41"/><circle cx="1427.7" cy="73.6" r="1.2" fill="#fff7d6" opacity="0.17"/><circle cx="547.3" cy="426.2" r="1.7" fill="#fff7d6" opacity="0.17"/><circle cx="173.5" cy="589.8" r="2.8" fill="#fff7d6" opacity="0.14"/><circle cx="553.8" cy="48.3" r="1.2" fill="#fff7d6" opacity="0.33"/><circle cx="1503.7" cy="573.6" r="1.7" fill="#fff7d6" opacity="0.16"/><circle cx="247.8" cy="537.0" r="2.7" fill="#fff7d6" opacity="0.22"/><circle cx="567.0" cy="191.2" r="1.8" fill="#fff7d6" opacity="0.19"/><circle cx="828.9" cy="627.6" r="2.6" fill="#fff7d6" opacity="0.32"/><circle cx="1032.5" cy="529.7" r="3.2" fill="#fff7d6" opacity="0.44"/><circle cx="696.5" cy="698.7" r="1.5" fill="#fff7d6" opacity="0.16"/><circle cx="1479.8" cy="847.5" r="1.1" fill="#fff7d6" opacity="0.10"/><circle cx="1517.9" cy="704.3" r="3.0" fill="#fff7d6" opacity="0.36"/><circle cx="695.2" cy="819.2" r="2.5" fill="#fff7d6" opacity="0.42"/><circle cx="1247.7" cy="557.3" r="3.2" fill="#fff7d6" opacity="0.47"/><g transform="rotate(-4.3 1100 450)"><rect x="760" y="130" width="680" height="640" rx="18" fill="#0f0e0a" stroke="#D9B34A" stroke-opacity=".6" stroke-width="2"/><path d="M800 215H1400" stroke="#D9B34A" stroke-opacity=".22"/><rect x="810" y="195" width="87" height="7" rx="3.5" fill="#FFE9A0" opacity="0.69"/><rect x="918" y="195" width="96" height="7" rx="3.5" fill="#FFE9A0" opacity="0.51"/><rect x="1034" y="195" width="61" height="7" rx="3.5" fill="#fff7d6" opacity="0.59"/><rect x="1110" y="195" width="66" height="7" rx="3.5" fill="#fff7d6" opacity="0.61"/><rect x="1189" y="195" width="33" height="7" rx="3.5" fill="#fff7d6" opacity="0.54"/><rect x="1235" y="195" width="48" height="7" rx="3.5" fill="#FFE9A0" opacity="0.43"/><rect x="1299" y="195" width="51" height="7" rx="3.5" fill="#fff7d6" opacity="0.57"/><path d="M800 261H1400" stroke="#D9B34A" stroke-opacity=".22"/><rect x="810" y="241" width="56" height="7" rx="3.5" fill="#fff7d6" opacity="0.65"/><rect x="878" y="241" width="93" height="7" rx="3.5" fill="#fff7d6" opacity="0.59"/><rect x="992" y="241" width="32" height="7" rx="3.5" fill="#FFE9A0" opacity="0.76"/><rect x="1040" y="241" width="73" height="7" rx="3.5" fill="#fff7d6" opacity="0.69"/><rect x="1127" y="241" width="54" height="7" rx="3.5" fill="#fff7d6" opacity="0.59"/><rect x="1195" y="241" width="49" height="7" rx="3.5" fill="#fff7d6" opacity="0.60"/><rect x="1259" y="241" width="39" height="7" rx="3.5" fill="#FFE9A0" opacity="0.65"/><path d="M800 307H1400" stroke="#D9B34A" stroke-opacity=".22"/><rect x="810" y="287" width="30" height="7" rx="3.5" fill="#fff7d6" opacity="0.53"/><rect x="863" y="287" width="37" height="7" rx="3.5" fill="#fff7d6" opacity="0.79"/><rect x="912" y="287" width="33" height="7" rx="3.5" fill="#fff7d6" opacity="0.68"/><rect x="961" y="287" width="72" height="7" rx="3.5" fill="#FFE9A0" opacity="0.47"/><rect x="1050" y="287" width="63" height="7" rx="3.5" fill="#FFE9A0" opacity="0.70"/><rect x="1125" y="287" width="35" height="7" rx="3.5" fill="#fff7d6" opacity="0.62"/><rect x="1178" y="287" width="55" height="7" rx="3.5" fill="#fff7d6" opacity="0.56"/><rect x="1251" y="287" width="53" height="7" rx="3.5" fill="#fff7d6" opacity="0.46"/><path d="M800 353H1400" stroke="#D9B34A" stroke-opacity=".22"/><rect x="810" y="333" width="31" height="7" rx="3.5" fill="#fff7d6" opacity="0.79"/><rect x="859" y="333" width="57" height="7" rx="3.5" fill="#fff7d6" opacity="0.60"/><rect x="940" y="333" width="33" height="7" rx="3.5" fill="#fff7d6" opacity="0.70"/><rect x="997" y="333" width="80" height="7" rx="3.5" fill="#fff7d6" opacity="0.51"/><rect x="1089" y="333" width="48" height="7" rx="3.5" fill="#fff7d6" opacity="0.41"/><rect x="1152" y="333" width="86" height="7" rx="3.5" fill="#FFE9A0" opacity="0.56"/><rect x="1254" y="333" width="62" height="7" rx="3.5" fill="#fff7d6" opacity="0.56"/><path d="M800 399H1400" stroke="#D9B34A" stroke-opacity=".22"/><rect x="810" y="379" width="48" height="7" rx="3.5" fill="#fff7d6" opacity="0.72"/><rect x="873" y="379" width="85" height="7" rx="3.5" fill="#fff7d6" opacity="0.44"/><rect x="973" y="379" width="87" height="7" rx="3.5" fill="#fff7d6" opacity="0.77"/><rect x="1079" y="379" width="85" height="7" rx="3.5" fill="#fff7d6" opacity="0.77"/><rect x="1185" y="379" width="52" height="7" rx="3.5" fill="#FFE9A0" opacity="0.74"/><rect x="1250" y="379" width="98" height="7" rx="3.5" fill="#fff7d6" opacity="0.70"/><path d="M800 445H1400" stroke="#D9B34A" stroke-opacity=".22"/><rect x="810" y="425" width="88" height="7" rx="3.5" fill="#fff7d6" opacity="0.63"/><rect x="921" y="425" width="59" height="7" rx="3.5" fill="#FFE9A0" opacity="0.78"/><rect x="1003" y="425" width="96" height="7" rx="3.5" fill="#fff7d6" opacity="0.41"/><rect x="1114" y="425" width="94" height="7" rx="3.5" fill="#FFE9A0" opacity="0.41"/><rect x="1227" y="425" width="33" height="7" rx="3.5" fill="#fff7d6" opacity="0.54"/><rect x="1282" y="425" width="48" height="7" rx="3.5" fill="#fff7d6" opacity="0.78"/><path d="M800 491H1400" stroke="#D9B34A" stroke-opacity=".22"/><rect x="810" y="471" width="45" height="7" rx="3.5" fill="#fff7d6" opacity="0.68"/><rect x="867" y="471" width="97" height="7" rx="3.5" fill="#FFE9A0" opacity="0.43"/><rect x="978" y="471" width="86" height="7" rx="3.5" fill="#FFE9A0" opacity="0.48"/><rect x="1079" y="471" width="76" height="7" rx="3.5" fill="#fff7d6" opacity="0.73"/><rect x="1178" y="471" width="50" height="7" rx="3.5" fill="#fff7d6" opacity="0.54"/><rect x="1246" y="471" width="52" height="7" rx="3.5" fill="#FFE9A0" opacity="0.66"/><path d="M800 537H1400" stroke="#D9B34A" stroke-opacity=".22"/><rect x="810" y="517" width="30" height="7" rx="3.5" fill="#fff7d6" opacity="0.41"/><rect x="852" y="517" width="82" height="7" rx="3.5" fill="#fff7d6" opacity="0.49"/><rect x="946" y="517" width="84" height="7" rx="3.5" fill="#fff7d6" opacity="0.56"/><rect x="1047" y="517" width="52" height="7" rx="3.5" fill="#fff7d6" opacity="0.53"/><rect x="1112" y="517" width="49" height="7" rx="3.5" fill="#FFE9A0" opacity="0.64"/><rect x="1178" y="517" width="75" height="7" rx="3.5" fill="#fff7d6" opacity="0.65"/><rect x="1269" y="517" width="100" height="7" rx="3.5" fill="#FFE9A0" opacity="0.59"/><path d="M800 583H1400" stroke="#D9B34A" stroke-opacity=".22"/><rect x="810" y="563" width="109" height="7" rx="3.5" fill="#fff7d6" opacity="0.60"/><rect x="938" y="563" width="104" height="7" rx="3.5" fill="#fff7d6" opacity="0.45"/><rect x="1060" y="563" width="37" height="7" rx="3.5" fill="#fff7d6" opacity="0.45"/><rect x="1121" y="563" width="33" height="7" rx="3.5" fill="#fff7d6" opacity="0.78"/><rect x="1168" y="563" width="37" height="7" rx="3.5" fill="#fff7d6" opacity="0.62"/><rect x="1229" y="563" width="104" height="7" rx="3.5" fill="#fff7d6" opacity="0.56"/><path d="M800 629H1400" stroke="#D9B34A" stroke-opacity=".22"/><rect x="810" y="609" width="84" height="7" rx="3.5" fill="#FFE9A0" opacity="0.69"/><rect x="918" y="609" width="72" height="7" rx="3.5" fill="#FFE9A0" opacity="0.75"/><rect x="1007" y="609" width="91" height="7" rx="3.5" fill="#FFE9A0" opacity="0.80"/><rect x="1122" y="609" width="63" height="7" rx="3.5" fill="#fff7d6" opacity="0.56"/><rect x="1198" y="609" width="65" height="7" rx="3.5" fill="#fff7d6" opacity="0.64"/><rect x="1286" y="609" width="96" height="7" rx="3.5" fill="#fff7d6" opacity="0.47"/><path d="M800 675H1400" stroke="#D9B34A" stroke-opacity=".22"/><path d="M800 721H1400" stroke="#D9B34A" stroke-opacity=".22"/><path d="M800 140V760" stroke="#ff6b5a" stroke-opacity=".45"/></g><text x="1330" y="250" font-family="Georgia,serif" font-size="320" fill="#FFE9A0" opacity=".28">”</text><g transform="rotate(38 1330 640)"><rect x="1210" y="620" width="300" height="34" rx="6" fill="url(#glet2084)"/><path d="M1210 620L1160 637L1210 654Z" fill="#fff7d6"/><rect x="1480" y="620" width="30" height="34" fill="#5d4a12"/></g></svg>