<svg xmlns="http://www.w3.org/2000/svg" viewBox="0 0 1600 900" preserveAspectRatio="xMidYMid slice" xmlns:c2pa="http://c2pa.org/manifest"><metadata><c2pa:manifest>AAAWgmp1bWIAAAAeanVtZGMycGEAEQAQgAAAqgA4m3EDYzJwYQAAABZcanVtYgAAAEdqdW1kYzJtYQARABCAAACqADibcQN1cm46YzJwYTo2NTA2NzY2Zi1lMTU1LTRkYjYtYTcwMi1jNDVlZTY2N2I3YjUAAAADl2p1bWIAAAApanVtZGMyYXMAEQAQgAAAqgA4m3EDYzJwYS5hc3NlcnRpb25zAAAAALxqdW1iAAAARGp1bWRjYm9yABEAEIAAAKoAOJtxE2MycGEuaW5ncmVkaWVudC52MwAAAAAYYzJzaOx7TnwhNNCJRKK+xzLaSLIAAABwY2JvcqNpZGM6Zm9ybWF0bWltYWdlL3N2Zyt4bWxqaW5zdGFuY2VJRHgseG1wOmlpZDpmZmU5M2RkNS0zZDg1LTRhOWItYTk1ZC1lYTFlNmExMDJiZDBscmVsYXRpb25zaGlwaHBhcmVudE9mAAAB4mp1bWIAAABBanVtZGNib3IAEQAQgAAAqgA4m3ETYzJwYS5hY3Rpb25zLnYyAAAAABhjMnNoXa3zw5Xb4pn17emKEVN1XAAAAZljYm9yomdhY3Rpb25zgqJmYWN0aW9ua2MycGEub3BlbmVkanBhcmFtZXRlcnOha2luZ3JlZGllbnRzgaJjdXJseC1zZWxmI2p1bWJmPWMycGEuYXNzZXJ0aW9ucy9jMnBhLmluZ3JlZGllbnQudjNkaGFzaFggPL8wk6H+I9RpCtfWWr3gTX7JeavS4pt1Ues3n2U2SPqkZmFjdGlvbngdY29tLmFudGhyb3BpYy5jbGF1ZGUucHJvdmlkZWRqcGFyYW1ldGVyc6F4H2NvbS5hbnRocm9waWMub3JpZ2luLWNvbmZpZGVuY2VndW5rbm93bmtkZXNjcmlwdGlvbnhmQ2xhdWRlIHByb3ZpZGVkIHRoaXMgZmlsZSBhdCB0aGUgcmVxdWVzdCBvZiBhIHVzZXIgYW5kIG1heSBoYXZlIGNyZWF0ZWQgb3IgbW9kaWZpZWQgdGhlIGZpbGUgY29udGVudHMubXNvZnR3YXJlQWdlbnShZG5hbWVmQ2xhdWRlcmFsbEFjdGlvbnNJbmNsdWRlZPUAAADIanVtYgAAAEBqdW1kY2JvcgARABCAAACqADibcRNjMnBhLmhhc2guZGF0YQAAAAAYYzJzaOrzefiD4u/fDPfENBkX668AAACAY2JvcqVjYWxnZnNoYTI1NmNwYWRNAAAAAAAAAAAAAAAAAGRoYXNoWCBK77Oy9VyzHVOd8PvtEOOBYQ4FytcruuROQjr5ESY5C2RuYW1lbmp1bWJmIG1hbmlmZXN0amV4Y2x1c2lvbnOBomVzdGFydBijZmxlbmd0aBkeBAAAAj5qdW1iAAAAJ2p1bWRjMmNsABEAEIAAAKoAOJtxA2MycGEuY2xhaW0udjIAAAACD2Nib3KlY2FsZ2ZzaGEyNTZpc2lnbmF0dXJleE1zZWxmI2p1bWJmPS9jMnBhL3VybjpjMnBhOjY1MDY3NjZmLWUxNTUtNGRiNi1hNzAyLWM0NWVlNjY3YjdiNS9jMnBhLnNpZ25hdHVyZWppbnN0YW5jZUlEeCx4bXA6aWlkOjFkNDUzNjI0LTc0YjAtNDg2Ni1iNDQ2LTlkOTJiYzZmZTk4M3JjcmVhdGVkX2Fzc2VydGlvbnODomN1cmx4LXNlbGYjanVtYmY9YzJwYS5hc3NlcnRpb25zL2MycGEuaW5ncmVkaWVudC52M2RoYXNoWCA8vzCTof4j1GkK19ZaveBNfsl5q9Lim3VR6zefZTZI+qJjdXJseCpzZWxmI2p1bWJmPWMycGEuYXNzZXJ0aW9ucy9jMnBhLmFjdGlvbnMudjJkaGFzaFggqx907Pd9sP/mi2Ctj6NmTOSkNspl6zRIpxqK69n/cIiiY3VybHgpc2VsZiNqdW1iZj1jMnBhLmFzc2VydGlvbnMvYzJwYS5oYXNoLmRhdGFkaGFzaFggJ+5czO5GBwsbVHLOcx6J80hAbD3AB89oWFDXsL+WTLV0Y2xhaW1fZ2VuZXJhdG9yX2luZm+jZG5hbWVvQW50aHJvcGljIEZpbGVzZ3ZlcnNpb25lMS4wLjBrc3BlY1ZlcnNpb25lMi40LjAAABA4anVtYgAAAChqdW1kYzJjcwARABCAAACqADibcQNjMnBhLnNpZ25hdHVyZQAAABAIY2JvctKEWQISogEmGCFZAgowggIGMIIBjaADAgECAhRA5aAK7sI50L64g/oGQgU9Z1UTADAKBggqhkjOPQQDAzBJMRcwFQYDVQQKEw5BbnRocm9waWMsIFBCQzEuMCwGA1UEAxMlQW50aHJvcGljIENvbnRlbnQgQ3JlZGVudGlhbHMgUm9vdCBDQTAeFw0yNjA4MDcxODQzNTZaFw0yODA4MDYxOTQzNTZaMEQxFzAVBgNVBAoTDkFudGhyb3BpYywgUEJDMSkwJwYDVQQDEyBBbnRocm9waWMgQ2xhdWRlIENvbnRlbnQgU2lnbmluZzBZMBMGByqGSM49AgEGCCqGSM49AwEHA0IABJh6CmvLUBgFFNU0vUKlOVtE6djd17L5SuwX0LemFisBM3dkd/3cyjxFA3Qo5S46fX0/ihY0VZ7mfb9KF703t5OjWDBWMA4GA1UdDwEB/wQEAwIHgDAVBgNVHSUEDjAMBgorBgEEAYPoXgIBMAwGA1UdEwEB/wQCMAAwHwYDVR0jBBgwFoAUzlHiBIFOZFsj+OPEz5o+nMHXXMIwCgYIKoZIzj0EAwMDZwAwZAIwMXMdFJ4BetLLVY7ORuE9noqbbAZOZn/aArXyTwFAZfKrPzxF2vPoJNf1+UCdg1XGAjBwX1zd9WGqYkqmL5SFqw1QySjr1zJfpJM9+1rdDwSPLMOPOjKuiXjoU/pUUeG9RwmhY3BhZFkNngAAAAAAAAAAAAAAAAAAAAAAAAAAAAAAAAAAAAAAAAAAAAAAAAAAAAAAAAAAAAAAAAAAAAAAAAAAAAAAAAAAAAAAAAAAAAAAAAAAAAAAAAAAAAAAAAAAAAAAAAAAAAAAAAAAAAAAAAAAAAAAAAAAAAAAAAAAAAAAAAAAAAAAAAAAAAAAAAAAAAAAAAAAAAAAAAAAAAAAAAAAAAAAAAAAAAAAAAAAAAAAAAAAAAAAAAAAAAAAAAAAAAAAAAAAAAAAAAAAAAAAAAAAAAAAAAAAAAAAAAAAAAAAAAAAAAAAAAAAAAAAAAAAAAAAAAAAAAAAAAAAAAAAAAAAAAAAAAAAAAAAAAAAAAAAAAAAAAAAAAAAAAAAAAAAAAAAAAAAAAAAAAAAAAAAAAAAAAAAAAAAAAAAAAAAAAAAAAAAAAAAAAAAAAAAAAAAAAAAAAAAAAAAAAAAAAAAAAAAAAAAAAAAAAAAAAAAAAAAAAAAAAAAAAAAAAAAAAAAAAAAAAAAAAAAAAAAAAAAAAAAAAAAAAAAAAAAAAAAAAAAAAAAAAAAAAAAAAAAAAAAAAAAAAAAAAAAAAAAAAAAAAAAAAAAAAAAAAAAAAAAAAAAAAAAAAAAAAAAAAAAAAAAAAAAAAAAAAAAAAAAAAAAAAAAAAAAAAAAAAAAAAAAAAAAAAAAAAAAAAAAAAAAAAAAAAAAAAAAAAAAAAAAAAAAAAAAAAAAAAAAAAAAAAAAAAAAAAAAAAAAAAAAAAAAAAAAAAAAAAAAAAAAAAAAAAAAAAAAAAAAAAAAAAAAAAAAAAAAAAAAAAAAAAAAAAAAAAAAAAAAAAAAAAAAAAAAAAAAAAAAAAAAAAAAAAAAAAAAAAAAAAAAAAAAAAAAAAAAAAAAAAAAAAAAAAAAAAAAAAAAAAAAAAAAAAAAAAAAAAAAAAAAAAAAAAAAAAAAAAAAAAAAAAAAAAAAAAAAAAAAAAAAAAAAAAAAAAAAAAAAAAAAAAAAAAAAAAAAAAAAAAAAAAAAAAAAAAAAAAAAAAAAAAAAAAAAAAAAAAAAAAAAAAAAAAAAAAAAAAAAAAAAAAAAAAAAAAAAAAAAAAAAAAAAAAAAAAAAAAAAAAAAAAAAAAAAAAAAAAAAAAAAAAAAAAAAAAAAAAAAAAAAAAAAAAAAAAAAAAAAAAAAAAAAAAAAAAAAAAAAAAAAAAAAAAAAAAAAAAAAAAAAAAAAAAAAAAAAAAAAAAAAAAAAAAAAAAAAAAAAAAAAAAAAAAAAAAAAAAAAAAAAAAAAAAAAAAAAAAAAAAAAAAAAAAAAAAAAAAAAAAAAAAAAAAAAAAAAAAAAAAAAAAAAAAAAAAAAAAAAAAAAAAAAAAAAAAAAAAAAAAAAAAAAAAAAAAAAAAAAAAAAAAAAAAAAAAAAAAAAAAAAAAAAAAAAAAAAAAAAAAAAAAAAAAAAAAAAAAAAAAAAAAAAAAAAAAAAAAAAAAAAAAAAAAAAAAAAAAAAAAAAAAAAAAAAAAAAAAAAAAAAAAAAAAAAAAAAAAAAAAAAAAAAAAAAAAAAAAAAAAAAAAAAAAAAAAAAAAAAAAAAAAAAAAAAAAAAAAAAAAAAAAAAAAAAAAAAAAAAAAAAAAAAAAAAAAAAAAAAAAAAAAAAAAAAAAAAAAAAAAAAAAAAAAAAAAAAAAAAAAAAAAAAAAAAAAAAAAAAAAAAAAAAAAAAAAAAAAAAAAAAAAAAAAAAAAAAAAAAAAAAAAAAAAAAAAAAAAAAAAAAAAAAAAAAAAAAAAAAAAAAAAAAAAAAAAAAAAAAAAAAAAAAAAAAAAAAAAAAAAAAAAAAAAAAAAAAAAAAAAAAAAAAAAAAAAAAAAAAAAAAAAAAAAAAAAAAAAAAAAAAAAAAAAAAAAAAAAAAAAAAAAAAAAAAAAAAAAAAAAAAAAAAAAAAAAAAAAAAAAAAAAAAAAAAAAAAAAAAAAAAAAAAAAAAAAAAAAAAAAAAAAAAAAAAAAAAAAAAAAAAAAAAAAAAAAAAAAAAAAAAAAAAAAAAAAAAAAAAAAAAAAAAAAAAAAAAAAAAAAAAAAAAAAAAAAAAAAAAAAAAAAAAAAAAAAAAAAAAAAAAAAAAAAAAAAAAAAAAAAAAAAAAAAAAAAAAAAAAAAAAAAAAAAAAAAAAAAAAAAAAAAAAAAAAAAAAAAAAAAAAAAAAAAAAAAAAAAAAAAAAAAAAAAAAAAAAAAAAAAAAAAAAAAAAAAAAAAAAAAAAAAAAAAAAAAAAAAAAAAAAAAAAAAAAAAAAAAAAAAAAAAAAAAAAAAAAAAAAAAAAAAAAAAAAAAAAAAAAAAAAAAAAAAAAAAAAAAAAAAAAAAAAAAAAAAAAAAAAAAAAAAAAAAAAAAAAAAAAAAAAAAAAAAAAAAAAAAAAAAAAAAAAAAAAAAAAAAAAAAAAAAAAAAAAAAAAAAAAAAAAAAAAAAAAAAAAAAAAAAAAAAAAAAAAAAAAAAAAAAAAAAAAAAAAAAAAAAAAAAAAAAAAAAAAAAAAAAAAAAAAAAAAAAAAAAAAAAAAAAAAAAAAAAAAAAAAAAAAAAAAAAAAAAAAAAAAAAAAAAAAAAAAAAAAAAAAAAAAAAAAAAAAAAAAAAAAAAAAAAAAAAAAAAAAAAAAAAAAAAAAAAAAAAAAAAAAAAAAAAAAAAAAAAAAAAAAAAAAAAAAAAAAAAAAAAAAAAAAAAAAAAAAAAAAAAAAAAAAAAAAAAAAAAAAAAAAAAAAAAAAAAAAAAAAAAAAAAAAAAAAAAAAAAAAAAAAAAAAAAAAAAAAAAAAAAAAAAAAAAAAAAAAAAAAAAAAAAAAAAAAAAAAAAAAAAAAAAAAAAAAAAAAAAAAAAAAAAAAAAAAAAAAAAAAAAAAAAAAAAAAAAAAAAAAAAAAAAAAAAAAAAAAAAAAAAAAAAAAAAAAAAAAAAAAAAAAAAAAAAAAAAAAAAAAAAAAAAAAAAAAAAAAAAAAAAAAAAAAAAAAAAAAAAAAAAAAAAAAAAAAAAAAAAAAAAAAAAAAAAAAAAAAAAAAAAAAAAAAAAAAAAAAAAAAAAAAAAAAAAAAAAAAAAAAAAAAAAAAAAAAAAAAAAAAAAAAAAAAAAAAAAAAAAAAAAAAAAAAAAAAAAAAAAAAAAAAAAAAAAAAAAAAAAAAAAAAAAAAAAAAAAAAAAAAAAAAAAAAAAAAAAAAAAAAAAAAAAAAAAAAAAAAAAAAAAAAAAAAAAAAAAAAAAAAAAAAAAAAAAAAAAAAAAAAAAAAAAAAAAAAAAAAAAAAAAAAAAAAAAAAAAAAAAAAAAAAAAAAAAAAAAAAAAAAAAAAAAAAAAAAAAAAAAAAAAAAAAAAAAAAAAAAAAAAAAAAAAAAAAAAAAAAAAAAAAAAAAAAAAAAAAAAAAAAAAAAAAAAAAAAAAAAAAAAAAAAAAAAAAAAAAAAAAAAAAAAAAAAAAAAAAAAAAAAAAAAAAAAAAAAAAAAAAAAAAAAAAAAAAAAAAAAAAAAAAAAAAAAAAAAAAAAAAAAAAAAAAAAAAAAAAAAAAAAAAAAAAAAAAAAAAAAAAAAAAAAAAAAAAAAAAAAAAAAAAAAAAAAAAAAAAAAAAAAAAAAAAAAAAAAAAAAAAAAAAAAAAAAAAAAAAAAAAAAAAAAAAAAAAAAAAAAAAAAAAAAAAAAAAAAAAAAAAAAAAAAAAAAAAAAAAAAAAAAAAAAAAAAAAAAAAAAAAAAAAAAAAAAAAAAAAAAAAAAAAAAAAAAAAAAAAAAAAAAAAAAAAAAAAAAAAAAAAAAAAAAAAAAAAAAAAAAAAAAAAAAAAAAAAAAAAAAAAAAAAAAAAAAAAAAAAAAAAAAAAAAAAAAAAAAAAAAAAAAAAAAAAAAAAAAAAAAAAAAAAAAAAAAAAAAAAAAAAAAAAAAAAAAAAAAAAAAAAAAAAAAAAAAAAAAAAAAAAAAAAAAAAAAAAAAAAAAAAAAAAAAAAAAAAAAAAAAAAAAAAAAAAAAAAAAAAAAAAAAAAAAAAAAAAAAAAAAAAAAAAAAAAAAAAAAAAAAAAAAAAAAAAAAAAAAAAAAAAAAAAAAAAAAAAAAAAAAAAAAAAAAAAAAAAAAAAAAAAAAAAAAAAAAAAAAAAAAAAAAAAAAAAAAAAAAAAAAAAAAAAAAAAAAAAAAAAAAAAAAAAAAAAAAAAAAAAAAAAAAAAAAAAAAAAAAAAAAAAAAAAAAAAAAAAAAAAAAAAAAAAAAAAAAAAAAAAAAAAAAAAAAAAAAAAAAAAAAAAAAAAAAAAAAAAAAAAAAAAAAAAAAAAAAAAAAAAAAAAAAAAAAAAAAAAAAAAAAAAAAAAAAAAAAAAAAAAAAAAAAAAAAAAAAAAAAAAAAAAAAAAAAAAAAAAAAAAAAAAAAAAAAAAAAAAAAAAAAAAAAAAAAAAAAAAAAAAAAAAAAAAAAAAAAAAAAAAAAAAAAAAAAAAAAAAAAAAAAAAAAAAAAAAAAAAAAAAAAAAAAAAAAAAAAAAAAAAAAAAAAAAAAAAAAAAAAAAAAAAAAAAAAAAAAAAAAAAAAAAAAAAAAAAAAAAAAAAAAAAAAAAAAAAAAAAAAAAAAAAAAAAAAAAAAAAAAAAAAAAAAAAAAAAAAAAAAAAAAAAAAAAAAAAAAAAAAAAAAAAAAAAAAAAAAAAAAAAAAAAAAAAAAAAAAAAAAAPZYQILxyarOv+J17QSx8LQcY2ZPnK83BldWvGSq941ThR5A9RAhPxHaps/e6Bs9WOBie3RpRlRG67H1eB5kX+hdc2M=</c2pa:manifest></metadata><defs>
<radialGradient id="bgs1182" cx=".72" cy=".38" r="1.05"><stop offset="0" stop-color="#FFB02E" stop-opacity=".30"/><stop offset=".45" stop-color="#16120e"/><stop offset="1" stop-color="#060605"/></radialGradient>
<linearGradient id="As1182" x1="0" y1="0" x2="1" y2="1"><stop offset="0" stop-color="#FFB02E"/><stop offset="1" stop-color="#FF5A36"/></linearGradient>
<linearGradient id="Vs1182" x1="0" y1="0" x2="0" y2="1"><stop offset="0" stop-color="#fff" stop-opacity=".95"/><stop offset=".35" stop-color="#FFB02E"/><stop offset="1" stop-color="#FF5A36"/></linearGradient>
<linearGradient id="Gs1182" x1="0" y1="0" x2="1" y2="1"><stop offset="0" stop-color="#fff" stop-opacity=".16"/><stop offset="1" stop-color="#fff" stop-opacity=".03"/></linearGradient>
<linearGradient id="Ms1182" x1="0" y1="0" x2="1" y2="0"><stop offset="0" stop-color="#d9dde2"/><stop offset=".5" stop-color="#8d949c"/><stop offset="1" stop-color="#4d535a"/></linearGradient>
<filter id="Bs1182" x="-50%" y="-50%" width="200%" height="200%"><feGaussianBlur stdDeviation="22"/></filter>
<filter id="bs1182" x="-50%" y="-50%" width="200%" height="200%"><feGaussianBlur stdDeviation="6"/></filter>
<filter id="Ss1182" x="-20%" y="-20%" width="140%" height="150%"><feDropShadow dx="0" dy="16" stdDeviation="16" flood-color="#000" flood-opacity=".55"/></filter>
</defs><rect width="1600" height="900" fill="url(#bgs1182)"/><circle cx="1304.7" cy="187.6" r="260" fill="#FFB02E" opacity=".20" filter="url(#Bs1182)"/><circle cx="723.5" cy="531.1" r="230" fill="#FF5A36" opacity=".20" filter="url(#Bs1182)"/><circle cx="204.9" cy="525.0" r="240" fill="#FFB02E" opacity=".20" filter="url(#Bs1182)"/><g stroke="#FFB02E" stroke-opacity=".06"><path d="M-900 0L-1400 900"/><path d="M-810 0L-1310 900"/><path d="M-720 0L-1220 900"/><path d="M-630 0L-1130 900"/><path d="M-540 0L-1040 900"/><path d="M-450 0L-950 900"/><path d="M-360 0L-860 900"/><path d="M-270 0L-770 900"/><path d="M-180 0L-680 900"/><path d="M-90 0L-590 900"/><path d="M0 0L-500 900"/><path d="M90 0L-410 900"/><path d="M180 0L-320 900"/><path d="M270 0L-230 900"/><path d="M360 0L-140 900"/><path d="M450 0L-50 900"/><path d="M540 0L40 900"/><path d="M630 0L130 900"/><path d="M720 0L220 900"/><path d="M810 0L310 900"/><path d="M900 0L400 900"/><path d="M990 0L490 900"/><path d="M1080 0L580 900"/><path d="M1170 0L670 900"/><path d="M1260 0L760 900"/><path d="M1350 0L850 900"/><path d="M1440 0L940 900"/><path d="M1530 0L1030 900"/><path d="M1620 0L1120 900"/><path d="M1710 0L1210 900"/><path d="M1800 0L1300 900"/><path d="M1890 0L1390 900"/><path d="M1980 0L1480 900"/><path d="M2070 0L1570 900"/><path d="M2160 0L1660 900"/><path d="M2250 0L1750 900"/><path d="M2340 0L1840 900"/><path d="M2430 0L1930 900"/><path d="M2520 0L2020 900"/><path d="M2610 0L2110 900"/></g><circle cx="1082.7" cy="273.4" r="2.7" fill="#fff" opacity="0.28"/><circle cx="353.9" cy="128.2" r="2.3" fill="#fff" opacity="0.31"/><circle cx="1525.4" cy="105.6" r="1.6" fill="#fff" opacity="0.44"/><circle cx="350.4" cy="757.6" r="1.3" fill="#fff" opacity="0.36"/><circle cx="743.8" cy="22.0" r="2.8" fill="#fff" opacity="0.29"/><circle cx="490.0" cy="418.2" r="1.2" fill="#fff" opacity="0.15"/><circle cx="1136.2" cy="364.9" r="2.7" fill="#fff" opacity="0.44"/><circle cx="1469.5" cy="110.1" r="1.6" fill="#fff" opacity="0.36"/><circle cx="289.2" cy="696.4" r="1.4" fill="#fff" opacity="0.30"/><circle cx="771.8" cy="477.7" r="2.5" fill="#fff" opacity="0.15"/><circle cx="716.6" cy="743.7" r="1.9" fill="#fff" opacity="0.44"/><circle cx="279.1" cy="884.7" r="2.4" fill="#fff" opacity="0.44"/><circle cx="962.8" cy="330.7" r="2.1" fill="#fff" opacity="0.38"/><circle cx="1.2" cy="95.1" r="2.4" fill="#fff" opacity="0.20"/><circle cx="56.1" cy="570.3" r="1.9" fill="#fff" opacity="0.14"/><circle cx="743.5" cy="469.1" r="2.9" fill="#fff" opacity="0.27"/><circle cx="1574.7" cy="145.5" r="2.7" fill="#fff" opacity="0.28"/><circle cx="361.4" cy="679.4" r="2.4" fill="#fff" opacity="0.13"/><circle cx="1287.5" cy="821.7" r="2.6" fill="#fff" opacity="0.09"/><circle cx="110.8" cy="196.6" r="1.9" fill="#fff" opacity="0.19"/><circle cx="514.8" cy="522.0" r="2.5" fill="#fff" opacity="0.11"/><circle cx="660.7" cy="722.7" r="2.6" fill="#fff" opacity="0.41"/><circle cx="1274.2" cy="420.9" r="1.3" fill="#fff" opacity="0.28"/><circle cx="1105.8" cy="808.3" r="1.7" fill="#fff" opacity="0.20"/><circle cx="1220.1" cy="340.5" r="1.6" fill="#fff" opacity="0.39"/><circle cx="1336.0" cy="666.0" r="1.0" fill="#fff" opacity="0.33"/><circle cx="845.2" cy="360.6" r="2.7" fill="#fff" opacity="0.20"/><circle cx="137.0" cy="174.1" r="1.1" fill="#fff" opacity="0.15"/><circle cx="1365.7" cy="547.3" r="0.9" fill="#fff" opacity="0.13"/><circle cx="958.9" cy="362.0" r="1.9" fill="#fff" opacity="0.32"/><circle cx="535.7" cy="72.9" r="2.3" fill="#fff" opacity="0.09"/><circle cx="1060.8" cy="708.8" r="1.5" fill="#fff" opacity="0.25"/><circle cx="1423.0" cy="269.9" r="2.6" fill="#fff" opacity="0.35"/><circle cx="1070.1" cy="396.9" r="2.0" fill="#fff" opacity="0.12"/><circle cx="943.4" cy="541.0" r="1.3" fill="#fff" opacity="0.29"/><circle cx="740.2" cy="694.8" r="1.2" fill="#fff" opacity="0.16"/><circle cx="860.6" cy="581.8" r="2.1" fill="#fff" opacity="0.23"/><circle cx="515.8" cy="246.3" r="2.0" fill="#fff" opacity="0.17"/><circle cx="971.2" cy="640.0" r="1.9" fill="#fff" opacity="0.41"/><circle cx="134.5" cy="94.3" r="2.6" fill="#fff" opacity="0.41"/><circle cx="1068.9" cy="781.8" r="2.8" fill="#fff" opacity="0.20"/><circle cx="835.3" cy="156.8" r="1.5" fill="#fff" opacity="0.38"/><circle cx="1048.8" cy="733.1" r="2.7" fill="#fff" opacity="0.11"/><circle cx="984.7" cy="625.7" r="2.0" fill="#fff" opacity="0.35"/><circle cx="698.6" cy="222.0" r="1.2" fill="#fff" opacity="0.23"/><circle cx="103.4" cy="602.7" r="2.4" fill="#fff" opacity="0.32"/><g filter="url(#Ss1182)" opacity="1"><rect x="660" y="200" width="860" height="500" rx="30" fill="#14110d" fill-opacity=".86"/><rect x="660" y="200" width="860" height="500" rx="30" fill="url(#Gs1182)" stroke="#fff" stroke-opacity=".16"/></g><path d="M1090 215V690" stroke="#fff" stroke-opacity=".25" stroke-dasharray="8 10" stroke-width="3"/><rect x="700" y="372.0" width="9" height="143.0" rx="3" fill="#8a8f96" opacity=".7"/><rect x="715" y="379.3" width="9" height="151.2" rx="3" fill="#8a8f96" opacity=".7"/><rect x="730" y="375.1" width="9" height="163.6" rx="3" fill="#8a8f96" opacity=".7"/><rect x="745" y="379.7" width="9" height="156.2" rx="3" fill="#8a8f96" opacity=".7"/><rect x="760" y="379.4" width="9" height="164.1" rx="3" fill="#8a8f96" opacity=".7"/><rect x="775" y="367.5" width="9" height="149.6" rx="3" fill="#8a8f96" opacity=".7"/><rect x="790" y="374.7" width="9" height="151.4" rx="3" fill="#8a8f96" opacity=".7"/><rect x="805" y="370.7" width="9" height="163.8" rx="3" fill="#8a8f96" opacity=".7"/><rect x="820" y="374.0" width="9" height="145.7" rx="3" fill="#8a8f96" opacity=".7"/><rect x="835" y="368.3" width="9" height="152.9" rx="3" fill="#8a8f96" opacity=".7"/><rect x="850" y="368.9" width="9" height="162.5" rx="3" fill="#8a8f96" opacity=".7"/><rect x="865" y="366.8" width="9" height="160.6" rx="3" fill="#8a8f96" opacity=".7"/><rect x="880" y="368.4" width="9" height="162.8" rx="3" fill="#8a8f96" opacity=".7"/><rect x="895" y="372.0" width="9" height="157.3" rx="3" fill="#8a8f96" opacity=".7"/><rect x="910" y="377.8" width="9" height="149.6" rx="3" fill="#8a8f96" opacity=".7"/><rect x="925" y="376.7" width="9" height="142.3" rx="3" fill="#8a8f96" opacity=".7"/><rect x="940" y="376.4" width="9" height="150.1" rx="3" fill="#8a8f96" opacity=".7"/><rect x="955" y="377.2" width="9" height="157.7" rx="3" fill="#8a8f96" opacity=".7"/><rect x="970" y="367.4" width="9" height="152.8" rx="3" fill="#8a8f96" opacity=".7"/><rect x="985" y="372.2" width="9" height="147.8" rx="3" fill="#8a8f96" opacity=".7"/><rect x="1000" y="373.4" width="9" height="163.0" rx="3" fill="#8a8f96" opacity=".7"/><rect x="1015" y="377.3" width="9" height="157.2" rx="3" fill="#8a8f96" opacity=".7"/><rect x="1030" y="369.1" width="9" height="142.1" rx="3" fill="#8a8f96" opacity=".7"/><rect x="1045" y="372.8" width="9" height="152.4" rx="3" fill="#8a8f96" opacity=".7"/><path d="M690 380H1060M690 520H1060" stroke="#ff5252" stroke-width="3" stroke-dasharray="10 8"/><rect x="1120.0" y="447.0" width="8.2" height="6.0" rx="4.5" fill="url(#Vs1182)"/><rect x="1135.0" y="422.4" width="8.2" height="55.3" rx="4.5" fill="url(#Vs1182)"/><rect x="1150.0" y="397.3" width="8.2" height="105.3" rx="4.5" fill="url(#Vs1182)"/><rect x="1165.0" y="430.7" width="8.2" height="38.6" rx="4.5" fill="url(#Vs1182)"/><rect x="1180.0" y="414.2" width="8.2" height="71.7" rx="4.5" fill="url(#Vs1182)"/><rect x="1195.0" y="390.3" width="8.2" height="119.3" rx="4.5" fill="url(#Vs1182)"/><rect x="1210.0" y="418.9" width="8.2" height="62.2" rx="4.5" fill="url(#Vs1182)"/><rect x="1225.0" y="370.8" width="8.2" height="158.5" rx="4.5" fill="url(#Vs1182)"/><rect x="1240.0" y="396.4" width="8.2" height="107.3" rx="4.5" fill="url(#Vs1182)"/><rect x="1255.0" y="371.8" width="8.2" height="156.3" rx="4.5" fill="url(#Vs1182)"/><rect x="1270.0" y="369.8" width="8.2" height="160.5" rx="4.5" fill="url(#Vs1182)"/><rect x="1285.0" y="395.3" width="8.2" height="109.4" rx="4.5" fill="url(#Vs1182)"/><rect x="1300.0" y="378.5" width="8.2" height="143.0" rx="4.5" fill="url(#Vs1182)"/><rect x="1315.0" y="325.9" width="8.2" height="248.3" rx="4.5" fill="url(#Vs1182)"/><rect x="1330.0" y="340.6" width="8.2" height="218.9" rx="4.5" fill="url(#Vs1182)"/><rect x="1345.0" y="297.2" width="8.2" height="305.6" rx="4.5" fill="url(#Vs1182)"/><rect x="1360.0" y="311.1" width="8.2" height="277.8" rx="4.5" fill="url(#Vs1182)"/><rect x="1375.0" y="415.2" width="8.2" height="69.5" rx="4.5" fill="url(#Vs1182)"/><rect x="1390.0" y="369.2" width="8.2" height="161.6" rx="4.5" fill="url(#Vs1182)"/><rect x="1405.0" y="418.7" width="8.2" height="62.7" rx="4.5" fill="url(#Vs1182)"/><rect x="1420.0" y="404.4" width="8.2" height="91.2" rx="4.5" fill="url(#Vs1182)"/><rect x="1435.0" y="431.0" width="8.2" height="38.0" rx="4.5" fill="url(#Vs1182)"/><rect x="1450.0" y="399.6" width="8.2" height="100.7" rx="4.5" fill="url(#Vs1182)"/><rect x="1465.0" y="426.8" width="8.2" height="46.3" rx="4.5" fill="url(#Vs1182)"/><text x="880" y="255" text-anchor="middle" font-family="monospace" font-size="24" letter-spacing="6" fill="#9aa0a8" opacity=".95">BARATO</text><text x="1300" y="255" text-anchor="middle" font-family="monospace" font-size="24" letter-spacing="6" fill="#FFB02E" opacity=".95">PRO</text><circle cx="1090" cy="700" r="46" fill="url(#As1182)"/><text x="1090" y="712" text-anchor="middle" font-family="monospace" font-size="30" letter-spacing="6" fill="#0a0907" opacity=".95">VS</text><rect width="1600" height="900" fill="none" stroke="none"/></svg>