<svg xmlns="http://www.w3.org/2000/svg" viewBox="0 0 1600 900" preserveAspectRatio="xMidYMid slice" xmlns:c2pa="http://c2pa.org/manifest"><metadata><c2pa:manifest>AAAWgmp1bWIAAAAeanVtZGMycGEAEQAQgAAAqgA4m3EDYzJwYQAAABZcanVtYgAAAEdqdW1kYzJtYQARABCAAACqADibcQN1cm46YzJwYToxOTY1NjYwNS1lYThkLTQ2YjYtYTM5MC1jMDgxMzMzN2RhNGQAAAADl2p1bWIAAAApanVtZGMyYXMAEQAQgAAAqgA4m3EDYzJwYS5hc3NlcnRpb25zAAAAALxqdW1iAAAARGp1bWRjYm9yABEAEIAAAKoAOJtxE2MycGEuaW5ncmVkaWVudC52MwAAAAAYYzJzaDWTUaSCbql2SZcuEnRUNegAAABwY2JvcqNpZGM6Zm9ybWF0bWltYWdlL3N2Zyt4bWxqaW5zdGFuY2VJRHgseG1wOmlpZDozOTA5ZGNmYS03ZGY3LTRiNTAtOTg5Yy01ODAyOTYzOTY3ZTlscmVsYXRpb25zaGlwaHBhcmVudE9mAAAB4mp1bWIAAABBanVtZGNib3IAEQAQgAAAqgA4m3ETYzJwYS5hY3Rpb25zLnYyAAAAABhjMnNoJgc+FmtBCFJ4rRZLWKOCygAAAZljYm9yomdhY3Rpb25zgqJmYWN0aW9ua2MycGEub3BlbmVkanBhcmFtZXRlcnOha2luZ3JlZGllbnRzgaJjdXJseC1zZWxmI2p1bWJmPWMycGEuYXNzZXJ0aW9ucy9jMnBhLmluZ3JlZGllbnQudjNkaGFzaFggfxUB7jbrJ1t2rZwiod+ppQaUH13fdJi3aNNnOeSDMzakZmFjdGlvbngdY29tLmFudGhyb3BpYy5jbGF1ZGUucHJvdmlkZWRqcGFyYW1ldGVyc6F4H2NvbS5hbnRocm9waWMub3JpZ2luLWNvbmZpZGVuY2VndW5rbm93bmtkZXNjcmlwdGlvbnhmQ2xhdWRlIHByb3ZpZGVkIHRoaXMgZmlsZSBhdCB0aGUgcmVxdWVzdCBvZiBhIHVzZXIgYW5kIG1heSBoYXZlIGNyZWF0ZWQgb3IgbW9kaWZpZWQgdGhlIGZpbGUgY29udGVudHMubXNvZnR3YXJlQWdlbnShZG5hbWVmQ2xhdWRlcmFsbEFjdGlvbnNJbmNsdWRlZPUAAADIanVtYgAAAEBqdW1kY2JvcgARABCAAACqADibcRNjMnBhLmhhc2guZGF0YQAAAAAYYzJzaH3YKfnYc50sAW7SnaFDoKkAAACAY2JvcqVjYWxnZnNoYTI1NmNwYWRNAAAAAAAAAAAAAAAAAGRoYXNoWCBmvAdzCS2aLsB9L01qGBFtdkKEjkyB6vntuNvrnvSVEWRuYW1lbmp1bWJmIG1hbmlmZXN0amV4Y2x1c2lvbnOBomVzdGFydBijZmxlbmd0aBkeBAAAAj5qdW1iAAAAJ2p1bWRjMmNsABEAEIAAAKoAOJtxA2MycGEuY2xhaW0udjIAAAACD2Nib3KlY2FsZ2ZzaGEyNTZpc2lnbmF0dXJleE1zZWxmI2p1bWJmPS9jMnBhL3VybjpjMnBhOjE5NjU2NjA1LWVhOGQtNDZiNi1hMzkwLWMwODEzMzM3ZGE0ZC9jMnBhLnNpZ25hdHVyZWppbnN0YW5jZUlEeCx4bXA6aWlkOjU0OTViOWYxLTM4OTktNGQ5Ny1iMmU5LTcwNDk5ODk3YzZhOHJjcmVhdGVkX2Fzc2VydGlvbnODomN1cmx4LXNlbGYjanVtYmY9YzJwYS5hc3NlcnRpb25zL2MycGEuaW5ncmVkaWVudC52M2RoYXNoWCB/FQHuNusnW3atnCKh36mlBpQfXd90mLdo02c55IMzNqJjdXJseCpzZWxmI2p1bWJmPWMycGEuYXNzZXJ0aW9ucy9jMnBhLmFjdGlvbnMudjJkaGFzaFggiuruvC+ZIfQmFjL3HEfOv62hiiNYooEgj4YoNyti4LSiY3VybHgpc2VsZiNqdW1iZj1jMnBhLmFzc2VydGlvbnMvYzJwYS5oYXNoLmRhdGFkaGFzaFggbj98PlUgfZtDdRBf+9zkD4axutjdKNkvZsUx/4tbYXZ0Y2xhaW1fZ2VuZXJhdG9yX2luZm+jZG5hbWVvQW50aHJvcGljIEZpbGVzZ3ZlcnNpb25lMS4wLjBrc3BlY1ZlcnNpb25lMi40LjAAABA4anVtYgAAAChqdW1kYzJjcwARABCAAACqADibcQNjMnBhLnNpZ25hdHVyZQAAABAIY2JvctKEWQISogEmGCFZAgowggIGMIIBjaADAgECAhRA5aAK7sI50L64g/oGQgU9Z1UTADAKBggqhkjOPQQDAzBJMRcwFQYDVQQKEw5BbnRocm9waWMsIFBCQzEuMCwGA1UEAxMlQW50aHJvcGljIENvbnRlbnQgQ3JlZGVudGlhbHMgUm9vdCBDQTAeFw0yNjA4MDcxODQzNTZaFw0yODA4MDYxOTQzNTZaMEQxFzAVBgNVBAoTDkFudGhyb3BpYywgUEJDMSkwJwYDVQQDEyBBbnRocm9waWMgQ2xhdWRlIENvbnRlbnQgU2lnbmluZzBZMBMGByqGSM49AgEGCCqGSM49AwEHA0IABJh6CmvLUBgFFNU0vUKlOVtE6djd17L5SuwX0LemFisBM3dkd/3cyjxFA3Qo5S46fX0/ihY0VZ7mfb9KF703t5OjWDBWMA4GA1UdDwEB/wQEAwIHgDAVBgNVHSUEDjAMBgorBgEEAYPoXgIBMAwGA1UdEwEB/wQCMAAwHwYDVR0jBBgwFoAUzlHiBIFOZFsj+OPEz5o+nMHXXMIwCgYIKoZIzj0EAwMDZwAwZAIwMXMdFJ4BetLLVY7ORuE9noqbbAZOZn/aArXyTwFAZfKrPzxF2vPoJNf1+UCdg1XGAjBwX1zd9WGqYkqmL5SFqw1QySjr1zJfpJM9+1rdDwSPLMOPOjKuiXjoU/pUUeG9RwmhY3BhZFkNngAAAAAAAAAAAAAAAAAAAAAAAAAAAAAAAAAAAAAAAAAAAAAAAAAAAAAAAAAAAAAAAAAAAAAAAAAAAAAAAAAAAAAAAAAAAAAAAAAAAAAAAAAAAAAAAAAAAAAAAAAAAAAAAAAAAAAAAAAAAAAAAAAAAAAAAAAAAAAAAAAAAAAAAAAAAAAAAAAAAAAAAAAAAAAAAAAAAAAAAAAAAAAAAAAAAAAAAAAAAAAAAAAAAAAAAAAAAAAAAAAAAAAAAAAAAAAAAAAAAAAAAAAAAAAAAAAAAAAAAAAAAAAAAAAAAAAAAAAAAAAAAAAAAAAAAAAAAAAAAAAAAAAAAAAAAAAAAAAAAAAAAAAAAAAAAAAAAAAAAAAAAAAAAAAAAAAAAAAAAAAAAAAAAAAAAAAAAAAAAAAAAAAAAAAAAAAAAAAAAAAAAAAAAAAAAAAAAAAAAAAAAAAAAAAAAAAAAAAAAAAAAAAAAAAAAAAAAAAAAAAAAAAAAAAAAAAAAAAAAAAAAAAAAAAAAAAAAAAAAAAAAAAAAAAAAAAAAAAAAAAAAAAAAAAAAAAAAAAAAAAAAAAAAAAAAAAAAAAAAAAAAAAAAAAAAAAAAAAAAAAAAAAAAAAAAAAAAAAAAAAAAAAAAAAAAAAAAAAAAAAAAAAAAAAAAAAAAAAAAAAAAAAAAAAAAAAAAAAAAAAAAAAAAAAAAAAAAAAAAAAAAAAAAAAAAAAAAAAAAAAAAAAAAAAAAAAAAAAAAAAAAAAAAAAAAAAAAAAAAAAAAAAAAAAAAAAAAAAAAAAAAAAAAAAAAAAAAAAAAAAAAAAAAAAAAAAAAAAAAAAAAAAAAAAAAAAAAAAAAAAAAAAAAAAAAAAAAAAAAAAAAAAAAAAAAAAAAAAAAAAAAAAAAAAAAAAAAAAAAAAAAAAAAAAAAAAAAAAAAAAAAAAAAAAAAAAAAAAAAAAAAAAAAAAAAAAAAAAAAAAAAAAAAAAAAAAAAAAAAAAAAAAAAAAAAAAAAAAAAAAAAAAAAAAAAAAAAAAAAAAAAAAAAAAAAAAAAAAAAAAAAAAAAAAAAAAAAAAAAAAAAAAAAAAAAAAAAAAAAAAAAAAAAAAAAAAAAAAAAAAAAAAAAAAAAAAAAAAAAAAAAAAAAAAAAAAAAAAAAAAAAAAAAAAAAAAAAAAAAAAAAAAAAAAAAAAAAAAAAAAAAAAAAAAAAAAAAAAAAAAAAAAAAAAAAAAAAAAAAAAAAAAAAAAAAAAAAAAAAAAAAAAAAAAAAAAAAAAAAAAAAAAAAAAAAAAAAAAAAAAAAAAAAAAAAAAAAAAAAAAAAAAAAAAAAAAAAAAAAAAAAAAAAAAAAAAAAAAAAAAAAAAAAAAAAAAAAAAAAAAAAAAAAAAAAAAAAAAAAAAAAAAAAAAAAAAAAAAAAAAAAAAAAAAAAAAAAAAAAAAAAAAAAAAAAAAAAAAAAAAAAAAAAAAAAAAAAAAAAAAAAAAAAAAAAAAAAAAAAAAAAAAAAAAAAAAAAAAAAAAAAAAAAAAAAAAAAAAAAAAAAAAAAAAAAAAAAAAAAAAAAAAAAAAAAAAAAAAAAAAAAAAAAAAAAAAAAAAAAAAAAAAAAAAAAAAAAAAAAAAAAAAAAAAAAAAAAAAAAAAAAAAAAAAAAAAAAAAAAAAAAAAAAAAAAAAAAAAAAAAAAAAAAAAAAAAAAAAAAAAAAAAAAAAAAAAAAAAAAAAAAAAAAAAAAAAAAAAAAAAAAAAAAAAAAAAAAAAAAAAAAAAAAAAAAAAAAAAAAAAAAAAAAAAAAAAAAAAAAAAAAAAAAAAAAAAAAAAAAAAAAAAAAAAAAAAAAAAAAAAAAAAAAAAAAAAAAAAAAAAAAAAAAAAAAAAAAAAAAAAAAAAAAAAAAAAAAAAAAAAAAAAAAAAAAAAAAAAAAAAAAAAAAAAAAAAAAAAAAAAAAAAAAAAAAAAAAAAAAAAAAAAAAAAAAAAAAAAAAAAAAAAAAAAAAAAAAAAAAAAAAAAAAAAAAAAAAAAAAAAAAAAAAAAAAAAAAAAAAAAAAAAAAAAAAAAAAAAAAAAAAAAAAAAAAAAAAAAAAAAAAAAAAAAAAAAAAAAAAAAAAAAAAAAAAAAAAAAAAAAAAAAAAAAAAAAAAAAAAAAAAAAAAAAAAAAAAAAAAAAAAAAAAAAAAAAAAAAAAAAAAAAAAAAAAAAAAAAAAAAAAAAAAAAAAAAAAAAAAAAAAAAAAAAAAAAAAAAAAAAAAAAAAAAAAAAAAAAAAAAAAAAAAAAAAAAAAAAAAAAAAAAAAAAAAAAAAAAAAAAAAAAAAAAAAAAAAAAAAAAAAAAAAAAAAAAAAAAAAAAAAAAAAAAAAAAAAAAAAAAAAAAAAAAAAAAAAAAAAAAAAAAAAAAAAAAAAAAAAAAAAAAAAAAAAAAAAAAAAAAAAAAAAAAAAAAAAAAAAAAAAAAAAAAAAAAAAAAAAAAAAAAAAAAAAAAAAAAAAAAAAAAAAAAAAAAAAAAAAAAAAAAAAAAAAAAAAAAAAAAAAAAAAAAAAAAAAAAAAAAAAAAAAAAAAAAAAAAAAAAAAAAAAAAAAAAAAAAAAAAAAAAAAAAAAAAAAAAAAAAAAAAAAAAAAAAAAAAAAAAAAAAAAAAAAAAAAAAAAAAAAAAAAAAAAAAAAAAAAAAAAAAAAAAAAAAAAAAAAAAAAAAAAAAAAAAAAAAAAAAAAAAAAAAAAAAAAAAAAAAAAAAAAAAAAAAAAAAAAAAAAAAAAAAAAAAAAAAAAAAAAAAAAAAAAAAAAAAAAAAAAAAAAAAAAAAAAAAAAAAAAAAAAAAAAAAAAAAAAAAAAAAAAAAAAAAAAAAAAAAAAAAAAAAAAAAAAAAAAAAAAAAAAAAAAAAAAAAAAAAAAAAAAAAAAAAAAAAAAAAAAAAAAAAAAAAAAAAAAAAAAAAAAAAAAAAAAAAAAAAAAAAAAAAAAAAAAAAAAAAAAAAAAAAAAAAAAAAAAAAAAAAAAAAAAAAAAAAAAAAAAAAAAAAAAAAAAAAAAAAAAAAAAAAAAAAAAAAAAAAAAAAAAAAAAAAAAAAAAAAAAAAAAAAAAAAAAAAAAAAAAAAAAAAAAAAAAAAAAAAAAAAAAAAAAAAAAAAAAAAAAAAAAAAAAAAAAAAAAAAAAAAAAAAAAAAAAAAAAAAAAAAAAAAAAAAAAAAAAAAAAAAAAAAAAAAAAAAAAAAAAAAAAAAAAAAAAAAAAAAAAAAAAAAAAAAAAAAAAAAAAAAAAAAAAAAAAAAAAAAAAAAAAAAAAAAAAAAAAAAAAAAAAAAAAAAAAAAAAAAAAAAAAAAAAAAAAAAAAAAAAAAAAAAAAAAAAAAAAAAAAAAAAAAAAAAAAAAAAAAAAAAAAAAAAAAAAAAAAAAAAAAAAAAAAAAAAAAAAAAAAAAAAAAAAAAAAAAAAAAAAAAAAAAAAAAAAAAAAAAAAAAAAAAAAAAAAAAAAAAAAAAAAAAAAAAAAAAAAAAAAAAAAAAAAAAAAAAAAAAAAAAAAAAAAAAAAAAAAAAAAAAAAAAAAAAAAAAAAAAAAAAAAAAAAAAAAAAAAAAAAAAAAAAAAAAAAAAAAAAAAAAAAAAAAAAAAAAAAAAAAAAAAAAAAAAAAAAAAAAAAAAAAAAAAAAAAAAAAAAAAAAAAAAAAAAAAAAAAAAAAAAAAAAAAAAAAAAAAAAAAAAAAAAAAAAAAAAAAAAAAAAAAAAAAAAAAAAAAAAAAAAAAAAAAAAAAAAAAAAAAAAAAAAAAAAAAAAAAAAAAAAAAAAAAAAAAAAAAAAAAAAAAAAAAAAAAAAAAAAAAAAAAAAAAAAAAAAAAAAAAAAAAAAAAAAAAAAAAAAAAAAAAAAAAAAAAAAAAAAAAAAAAAAAAAAAAAAAAAAAAAAAAAAAAAAAAAAAAAAAAAAAAAAAAAAAAAAAAAAAAAAAAAAAAAAAAAAAAAAAAAAAAAAAAAAAAAAAAAAAAAAAAAAAAAAAAAAAAAAAAAAAAAAAAAAAAAAAAAAAAAAAAAAAAAAAAAAAAAAAAAAAAAAAAAAAAAAAAAAAAAAAAAAAAAAAAAAAAAAAAAAAAAAAAAAAAAAAAAAAAAAAAAAAAAAAAAAAAAAAAAAAAAAAAAAAAAAAAAAAAAAAAAAAAAAAAAAAAAAAAAAAAAAAAAAAAAAAAAAAAAAAAAAAAAAAAAAAAAAAAAAAAAAAAAAAAAAAAAAAAAAAAAAAAAAAAAAAAAAAAAAAAAAAAAAAAAAAAAAAAAAAAAAAAAAAAAAAAAAAAAAAAAAAAAAAAAAAAAAAAAAAAAAAAAAAAAAAAAAAAAAAAAAAAAAAAAAAAAAAAAAAAAAAAAAAAAAAAAAAAAAAAAAAAAAAAAAAAAAAAAAAAAAAAAAAAAAAAAAAAAAAAAAAAAAAAAAAAAAAAAAAAAAAAAAAAAAAAAAAAAAAAAAAAAAAAAAAAAAAAAAAAAAAAAAAAAAAAAAAAAAAAAAAAAAAAAAAAAAAAAAAAAAAAAAAAAAAAAAAAAAAAAAAAAAAAAAAAAAAAAAAAAAAAAAAAAAAAAAAAAAAAAAAAAAAAAAAAAAAAAAAAAAAAAAAAAAAAAAAAAAAAAAAAAAAAAAAAAAAAAAAAAAAAAAAAAAAAAAAAAAAAAAAAAAAAAAAAAAAAAAAAAAAAAAAAAAAAAAAAAAAAPZYQAqRHVAXZJdJS/h3vrC3rrq6561JJGDm7e3uWmgxqcqukphliSPMNTpnC9/C37KUq45hKgwKgYy9v2zr8vAVEyI=</c2pa:manifest></metadata><defs>
<radialGradient id="bgs1154" cx=".72" cy=".38" r="1.05"><stop offset="0" stop-color="#FF4FA3" stop-opacity=".30"/><stop offset=".45" stop-color="#16120e"/><stop offset="1" stop-color="#060605"/></radialGradient>
<linearGradient id="As1154" x1="0" y1="0" x2="1" y2="1"><stop offset="0" stop-color="#FF4FA3"/><stop offset="1" stop-color="#FFB02E"/></linearGradient>
<linearGradient id="Vs1154" x1="0" y1="0" x2="0" y2="1"><stop offset="0" stop-color="#fff" stop-opacity=".95"/><stop offset=".35" stop-color="#FF4FA3"/><stop offset="1" stop-color="#FFB02E"/></linearGradient>
<linearGradient id="Gs1154" x1="0" y1="0" x2="1" y2="1"><stop offset="0" stop-color="#fff" stop-opacity=".16"/><stop offset="1" stop-color="#fff" stop-opacity=".03"/></linearGradient>
<linearGradient id="Ms1154" x1="0" y1="0" x2="1" y2="0"><stop offset="0" stop-color="#d9dde2"/><stop offset=".5" stop-color="#8d949c"/><stop offset="1" stop-color="#4d535a"/></linearGradient>
<filter id="Bs1154" x="-50%" y="-50%" width="200%" height="200%"><feGaussianBlur stdDeviation="22"/></filter>
<filter id="bs1154" x="-50%" y="-50%" width="200%" height="200%"><feGaussianBlur stdDeviation="6"/></filter>
<filter id="Ss1154" x="-20%" y="-20%" width="140%" height="150%"><feDropShadow dx="0" dy="16" stdDeviation="16" flood-color="#000" flood-opacity=".55"/></filter>
</defs><rect width="1600" height="900" fill="url(#bgs1154)"/><circle cx="1483.0" cy="270.9" r="260" fill="#FF4FA3" opacity=".20" filter="url(#Bs1154)"/><circle cx="713.2" cy="768.2" r="230" fill="#FFB02E" opacity=".20" filter="url(#Bs1154)"/><circle cx="359.9" cy="461.3" r="240" fill="#FF4FA3" opacity=".20" filter="url(#Bs1154)"/><g stroke="#FF4FA3" stroke-opacity=".06"><path d="M-900 0L-1400 900"/><path d="M-810 0L-1310 900"/><path d="M-720 0L-1220 900"/><path d="M-630 0L-1130 900"/><path d="M-540 0L-1040 900"/><path d="M-450 0L-950 900"/><path d="M-360 0L-860 900"/><path d="M-270 0L-770 900"/><path d="M-180 0L-680 900"/><path d="M-90 0L-590 900"/><path d="M0 0L-500 900"/><path d="M90 0L-410 900"/><path d="M180 0L-320 900"/><path d="M270 0L-230 900"/><path d="M360 0L-140 900"/><path d="M450 0L-50 900"/><path d="M540 0L40 900"/><path d="M630 0L130 900"/><path d="M720 0L220 900"/><path d="M810 0L310 900"/><path d="M900 0L400 900"/><path d="M990 0L490 900"/><path d="M1080 0L580 900"/><path d="M1170 0L670 900"/><path d="M1260 0L760 900"/><path d="M1350 0L850 900"/><path d="M1440 0L940 900"/><path d="M1530 0L1030 900"/><path d="M1620 0L1120 900"/><path d="M1710 0L1210 900"/><path d="M1800 0L1300 900"/><path d="M1890 0L1390 900"/><path d="M1980 0L1480 900"/><path d="M2070 0L1570 900"/><path d="M2160 0L1660 900"/><path d="M2250 0L1750 900"/><path d="M2340 0L1840 900"/><path d="M2430 0L1930 900"/><path d="M2520 0L2020 900"/><path d="M2610 0L2110 900"/></g><circle cx="1037.5" cy="21.9" r="2.0" fill="#fff" opacity="0.24"/><circle cx="235.8" cy="566.4" r="2.2" fill="#fff" opacity="0.30"/><circle cx="123.6" cy="134.4" r="1.4" fill="#fff" opacity="0.24"/><circle cx="104.5" cy="574.8" r="1.3" fill="#fff" opacity="0.27"/><circle cx="202.0" cy="722.6" r="2.0" fill="#fff" opacity="0.28"/><circle cx="1273.6" cy="414.1" r="1.8" fill="#fff" opacity="0.42"/><circle cx="42.5" cy="308.9" r="2.4" fill="#fff" opacity="0.25"/><circle cx="1209.3" cy="221.4" r="1.7" fill="#fff" opacity="0.11"/><circle cx="358.4" cy="278.7" r="2.3" fill="#fff" opacity="0.39"/><circle cx="1282.8" cy="809.8" r="2.6" fill="#fff" opacity="0.40"/><circle cx="605.4" cy="310.9" r="1.1" fill="#fff" opacity="0.37"/><circle cx="1111.4" cy="171.3" r="1.3" fill="#fff" opacity="0.18"/><circle cx="316.1" cy="733.1" r="1.7" fill="#fff" opacity="0.40"/><circle cx="202.6" cy="772.2" r="2.1" fill="#fff" opacity="0.16"/><circle cx="790.4" cy="821.8" r="1.3" fill="#fff" opacity="0.41"/><circle cx="473.3" cy="562.6" r="1.1" fill="#fff" opacity="0.38"/><circle cx="354.0" cy="336.2" r="2.7" fill="#fff" opacity="0.44"/><circle cx="25.9" cy="221.8" r="1.2" fill="#fff" opacity="0.09"/><circle cx="1418.9" cy="754.7" r="1.6" fill="#fff" opacity="0.19"/><circle cx="1239.4" cy="891.7" r="2.2" fill="#fff" opacity="0.11"/><circle cx="1183.0" cy="488.8" r="2.1" fill="#fff" opacity="0.15"/><circle cx="759.4" cy="412.7" r="1.6" fill="#fff" opacity="0.38"/><circle cx="1419.7" cy="54.2" r="2.2" fill="#fff" opacity="0.43"/><circle cx="1037.8" cy="545.4" r="1.4" fill="#fff" opacity="0.11"/><circle cx="153.5" cy="456.5" r="1.3" fill="#fff" opacity="0.09"/><circle cx="1502.5" cy="584.6" r="2.1" fill="#fff" opacity="0.33"/><circle cx="801.6" cy="673.7" r="2.9" fill="#fff" opacity="0.41"/><circle cx="228.9" cy="2.5" r="2.7" fill="#fff" opacity="0.39"/><circle cx="368.9" cy="576.5" r="1.0" fill="#fff" opacity="0.15"/><circle cx="500.0" cy="626.9" r="2.1" fill="#fff" opacity="0.23"/><circle cx="1102.5" cy="209.1" r="1.1" fill="#fff" opacity="0.43"/><circle cx="915.4" cy="225.4" r="2.5" fill="#fff" opacity="0.29"/><circle cx="1182.8" cy="329.3" r="1.0" fill="#fff" opacity="0.12"/><circle cx="1002.1" cy="688.4" r="2.9" fill="#fff" opacity="0.41"/><circle cx="1009.2" cy="683.1" r="2.7" fill="#fff" opacity="0.29"/><circle cx="973.0" cy="307.4" r="1.7" fill="#fff" opacity="0.38"/><circle cx="895.6" cy="789.3" r="2.0" fill="#fff" opacity="0.44"/><circle cx="1097.3" cy="770.4" r="1.5" fill="#fff" opacity="0.39"/><circle cx="333.4" cy="25.7" r="2.8" fill="#fff" opacity="0.43"/><circle cx="346.7" cy="76.4" r="1.4" fill="#fff" opacity="0.16"/><circle cx="511.7" cy="239.9" r="1.0" fill="#fff" opacity="0.14"/><circle cx="930.1" cy="88.5" r="0.9" fill="#fff" opacity="0.37"/><circle cx="287.4" cy="109.6" r="1.7" fill="#fff" opacity="0.14"/><circle cx="995.9" cy="842.8" r="1.8" fill="#fff" opacity="0.33"/><circle cx="1174.8" cy="712.0" r="1.4" fill="#fff" opacity="0.40"/><circle cx="374.6" cy="730.8" r="2.1" fill="#fff" opacity="0.33"/><g transform="rotate(3 1040.0 450.0)" filter="url(#Ss1154)"><rect x="780" y="190" width="520" height="520" rx="14" fill="#100e0b"/><rect x="790" y="200" width="500" height="500" rx="8" fill="#0a0907"/><path d="M794 220.0L1286 226.57851794052382" stroke="#FF4FA3" stroke-width="8" opacity=".85"/><path d="M794 285.7142857142857L1286 278.8184698941132" stroke="#FFB02E" stroke-width="7" opacity=".85"/><path d="M794 351.42857142857144L1286 344.69983618523077" stroke="#FF4FA3" stroke-width="10" opacity=".85"/><path d="M794 417.1428571428571L1286 427.688907278405" stroke="#FFB02E" stroke-width="6" opacity=".85"/><path d="M794 482.85714285714283L1286 448.1138603877704" stroke="#FF4FA3" stroke-width="5" opacity=".85"/><path d="M794 548.5714285714286L1286 550.2289467452795" stroke="#FFB02E" stroke-width="6" opacity=".85"/><path d="M794 614.2857142857142L1286 615.4659741386799" stroke="#FF4FA3" stroke-width="4" opacity=".85"/><path d="M794 680.0L1286 667.54898352024" stroke="#FFB02E" stroke-width="8" opacity=".85"/></g><circle cx="820" cy="260" r="46" fill="#ff4d4d" filter="url(#Ss1154)"/><path d="M802 242l36 36M838 242l-36 36" stroke="#fff" stroke-width="9" stroke-linecap="round"/><circle cx="1180" cy="420" r="46" fill="#ff4d4d" filter="url(#Ss1154)"/><path d="M1162 402l36 36M1198 402l-36 36" stroke="#fff" stroke-width="9" stroke-linecap="round"/><circle cx="940" cy="600" r="46" fill="#ff4d4d" filter="url(#Ss1154)"/><path d="M922 582l36 36M958 582l-36 36" stroke="#fff" stroke-width="9" stroke-linecap="round"/><g stroke="#ff4d4d" stroke-width="3" stroke-dasharray="10 8" fill="none"><rect x="770" y="180" width="540" height="540" rx="10"/></g><text x="1040" y="780" text-anchor="middle" font-family="monospace" font-size="26" letter-spacing="6" fill="#ff6b6b" opacity=".95">7 ERRORES</text><rect width="1600" height="900" fill="none" stroke="none"/></svg>