<svg xmlns="http://www.w3.org/2000/svg" viewBox="0 0 1600 900" preserveAspectRatio="xMidYMid slice" xmlns:c2pa="http://c2pa.org/manifest"><metadata><c2pa:manifest>AAAWgmp1bWIAAAAeanVtZGMycGEAEQAQgAAAqgA4m3EDYzJwYQAAABZcanVtYgAAAEdqdW1kYzJtYQARABCAAACqADibcQN1cm46YzJwYTo0YjBlMmM4Ni0zMjVhLTQyZWQtODUwMS00ZTkxYjhiYjNmOWIAAAADl2p1bWIAAAApanVtZGMyYXMAEQAQgAAAqgA4m3EDYzJwYS5hc3NlcnRpb25zAAAAALxqdW1iAAAARGp1bWRjYm9yABEAEIAAAKoAOJtxE2MycGEuaW5ncmVkaWVudC52MwAAAAAYYzJzaKf1GFh13DT2kolkOuJhSJMAAABwY2JvcqNpZGM6Zm9ybWF0bWltYWdlL3N2Zyt4bWxqaW5zdGFuY2VJRHgseG1wOmlpZDpjY2Q2YjY2MC04NTJhLTRkYzYtYTYzYi0yYjViMDA5YzcyMmJscmVsYXRpb25zaGlwaHBhcmVudE9mAAAB4mp1bWIAAABBanVtZGNib3IAEQAQgAAAqgA4m3ETYzJwYS5hY3Rpb25zLnYyAAAAABhjMnNom69hqe1mEq4hpx0K+fpZmwAAAZljYm9yomdhY3Rpb25zgqJmYWN0aW9ua2MycGEub3BlbmVkanBhcmFtZXRlcnOha2luZ3JlZGllbnRzgaJjdXJseC1zZWxmI2p1bWJmPWMycGEuYXNzZXJ0aW9ucy9jMnBhLmluZ3JlZGllbnQudjNkaGFzaFggbUmAZZdq/Oi6DL/JI69EQ7VZrK/joinvC6TNQwOk0q6kZmFjdGlvbngdY29tLmFudGhyb3BpYy5jbGF1ZGUucHJvdmlkZWRqcGFyYW1ldGVyc6F4H2NvbS5hbnRocm9waWMub3JpZ2luLWNvbmZpZGVuY2VndW5rbm93bmtkZXNjcmlwdGlvbnhmQ2xhdWRlIHByb3ZpZGVkIHRoaXMgZmlsZSBhdCB0aGUgcmVxdWVzdCBvZiBhIHVzZXIgYW5kIG1heSBoYXZlIGNyZWF0ZWQgb3IgbW9kaWZpZWQgdGhlIGZpbGUgY29udGVudHMubXNvZnR3YXJlQWdlbnShZG5hbWVmQ2xhdWRlcmFsbEFjdGlvbnNJbmNsdWRlZPUAAADIanVtYgAAAEBqdW1kY2JvcgARABCAAACqADibcRNjMnBhLmhhc2guZGF0YQAAAAAYYzJzaHyMW5NsKZSmi9vXCw1KAA0AAACAY2JvcqVjYWxnZnNoYTI1NmNwYWRNAAAAAAAAAAAAAAAAAGRoYXNoWCDKFDhof4uun2DBfuhp5BTFaGp+axsCJDdHQUBJUUZ642RuYW1lbmp1bWJmIG1hbmlmZXN0amV4Y2x1c2lvbnOBomVzdGFydBijZmxlbmd0aBkeBAAAAj5qdW1iAAAAJ2p1bWRjMmNsABEAEIAAAKoAOJtxA2MycGEuY2xhaW0udjIAAAACD2Nib3KlY2FsZ2ZzaGEyNTZpc2lnbmF0dXJleE1zZWxmI2p1bWJmPS9jMnBhL3VybjpjMnBhOjRiMGUyYzg2LTMyNWEtNDJlZC04NTAxLTRlOTFiOGJiM2Y5Yi9jMnBhLnNpZ25hdHVyZWppbnN0YW5jZUlEeCx4bXA6aWlkOjM2NTk0NDViLTkyYTktNDczYS05NzMzLWQwMGNhYWU4OTBhY3JjcmVhdGVkX2Fzc2VydGlvbnODomN1cmx4LXNlbGYjanVtYmY9YzJwYS5hc3NlcnRpb25zL2MycGEuaW5ncmVkaWVudC52M2RoYXNoWCBtSYBll2r86LoMv8kjr0RDtVmsr+OiKe8LpM1DA6TSrqJjdXJseCpzZWxmI2p1bWJmPWMycGEuYXNzZXJ0aW9ucy9jMnBhLmFjdGlvbnMudjJkaGFzaFggIAXXvwP2bHci0YKfMB9nue6Y24ScdU+clfgOPcW0IOmiY3VybHgpc2VsZiNqdW1iZj1jMnBhLmFzc2VydGlvbnMvYzJwYS5oYXNoLmRhdGFkaGFzaFggQDJaP+o6wBMEKi1HloOggxGnr0inW/P+VkV/UspOsCJ0Y2xhaW1fZ2VuZXJhdG9yX2luZm+jZG5hbWVvQW50aHJvcGljIEZpbGVzZ3ZlcnNpb25lMS4wLjBrc3BlY1ZlcnNpb25lMi40LjAAABA4anVtYgAAAChqdW1kYzJjcwARABCAAACqADibcQNjMnBhLnNpZ25hdHVyZQAAABAIY2JvctKEWQISogEmGCFZAgowggIGMIIBjaADAgECAhRA5aAK7sI50L64g/oGQgU9Z1UTADAKBggqhkjOPQQDAzBJMRcwFQYDVQQKEw5BbnRocm9waWMsIFBCQzEuMCwGA1UEAxMlQW50aHJvcGljIENvbnRlbnQgQ3JlZGVudGlhbHMgUm9vdCBDQTAeFw0yNjA4MDcxODQzNTZaFw0yODA4MDYxOTQzNTZaMEQxFzAVBgNVBAoTDkFudGhyb3BpYywgUEJDMSkwJwYDVQQDEyBBbnRocm9waWMgQ2xhdWRlIENvbnRlbnQgU2lnbmluZzBZMBMGByqGSM49AgEGCCqGSM49AwEHA0IABJh6CmvLUBgFFNU0vUKlOVtE6djd17L5SuwX0LemFisBM3dkd/3cyjxFA3Qo5S46fX0/ihY0VZ7mfb9KF703t5OjWDBWMA4GA1UdDwEB/wQEAwIHgDAVBgNVHSUEDjAMBgorBgEEAYPoXgIBMAwGA1UdEwEB/wQCMAAwHwYDVR0jBBgwFoAUzlHiBIFOZFsj+OPEz5o+nMHXXMIwCgYIKoZIzj0EAwMDZwAwZAIwMXMdFJ4BetLLVY7ORuE9noqbbAZOZn/aArXyTwFAZfKrPzxF2vPoJNf1+UCdg1XGAjBwX1zd9WGqYkqmL5SFqw1QySjr1zJfpJM9+1rdDwSPLMOPOjKuiXjoU/pUUeG9RwmhY3BhZFkNngAAAAAAAAAAAAAAAAAAAAAAAAAAAAAAAAAAAAAAAAAAAAAAAAAAAAAAAAAAAAAAAAAAAAAAAAAAAAAAAAAAAAAAAAAAAAAAAAAAAAAAAAAAAAAAAAAAAAAAAAAAAAAAAAAAAAAAAAAAAAAAAAAAAAAAAAAAAAAAAAAAAAAAAAAAAAAAAAAAAAAAAAAAAAAAAAAAAAAAAAAAAAAAAAAAAAAAAAAAAAAAAAAAAAAAAAAAAAAAAAAAAAAAAAAAAAAAAAAAAAAAAAAAAAAAAAAAAAAAAAAAAAAAAAAAAAAAAAAAAAAAAAAAAAAAAAAAAAAAAAAAAAAAAAAAAAAAAAAAAAAAAAAAAAAAAAAAAAAAAAAAAAAAAAAAAAAAAAAAAAAAAAAAAAAAAAAAAAAAAAAAAAAAAAAAAAAAAAAAAAAAAAAAAAAAAAAAAAAAAAAAAAAAAAAAAAAAAAAAAAAAAAAAAAAAAAAAAAAAAAAAAAAAAAAAAAAAAAAAAAAAAAAAAAAAAAAAAAAAAAAAAAAAAAAAAAAAAAAAAAAAAAAAAAAAAAAAAAAAAAAAAAAAAAAAAAAAAAAAAAAAAAAAAAAAAAAAAAAAAAAAAAAAAAAAAAAAAAAAAAAAAAAAAAAAAAAAAAAAAAAAAAAAAAAAAAAAAAAAAAAAAAAAAAAAAAAAAAAAAAAAAAAAAAAAAAAAAAAAAAAAAAAAAAAAAAAAAAAAAAAAAAAAAAAAAAAAAAAAAAAAAAAAAAAAAAAAAAAAAAAAAAAAAAAAAAAAAAAAAAAAAAAAAAAAAAAAAAAAAAAAAAAAAAAAAAAAAAAAAAAAAAAAAAAAAAAAAAAAAAAAAAAAAAAAAAAAAAAAAAAAAAAAAAAAAAAAAAAAAAAAAAAAAAAAAAAAAAAAAAAAAAAAAAAAAAAAAAAAAAAAAAAAAAAAAAAAAAAAAAAAAAAAAAAAAAAAAAAAAAAAAAAAAAAAAAAAAAAAAAAAAAAAAAAAAAAAAAAAAAAAAAAAAAAAAAAAAAAAAAAAAAAAAAAAAAAAAAAAAAAAAAAAAAAAAAAAAAAAAAAAAAAAAAAAAAAAAAAAAAAAAAAAAAAAAAAAAAAAAAAAAAAAAAAAAAAAAAAAAAAAAAAAAAAAAAAAAAAAAAAAAAAAAAAAAAAAAAAAAAAAAAAAAAAAAAAAAAAAAAAAAAAAAAAAAAAAAAAAAAAAAAAAAAAAAAAAAAAAAAAAAAAAAAAAAAAAAAAAAAAAAAAAAAAAAAAAAAAAAAAAAAAAAAAAAAAAAAAAAAAAAAAAAAAAAAAAAAAAAAAAAAAAAAAAAAAAAAAAAAAAAAAAAAAAAAAAAAAAAAAAAAAAAAAAAAAAAAAAAAAAAAAAAAAAAAAAAAAAAAAAAAAAAAAAAAAAAAAAAAAAAAAAAAAAAAAAAAAAAAAAAAAAAAAAAAAAAAAAAAAAAAAAAAAAAAAAAAAAAAAAAAAAAAAAAAAAAAAAAAAAAAAAAAAAAAAAAAAAAAAAAAAAAAAAAAAAAAAAAAAAAAAAAAAAAAAAAAAAAAAAAAAAAAAAAAAAAAAAAAAAAAAAAAAAAAAAAAAAAAAAAAAAAAAAAAAAAAAAAAAAAAAAAAAAAAAAAAAAAAAAAAAAAAAAAAAAAAAAAAAAAAAAAAAAAAAAAAAAAAAAAAAAAAAAAAAAAAAAAAAAAAAAAAAAAAAAAAAAAAAAAAAAAAAAAAAAAAAAAAAAAAAAAAAAAAAAAAAAAAAAAAAAAAAAAAAAAAAAAAAAAAAAAAAAAAAAAAAAAAAAAAAAAAAAAAAAAAAAAAAAAAAAAAAAAAAAAAAAAAAAAAAAAAAAAAAAAAAAAAAAAAAAAAAAAAAAAAAAAAAAAAAAAAAAAAAAAAAAAAAAAAAAAAAAAAAAAAAAAAAAAAAAAAAAAAAAAAAAAAAAAAAAAAAAAAAAAAAAAAAAAAAAAAAAAAAAAAAAAAAAAAAAAAAAAAAAAAAAAAAAAAAAAAAAAAAAAAAAAAAAAAAAAAAAAAAAAAAAAAAAAAAAAAAAAAAAAAAAAAAAAAAAAAAAAAAAAAAAAAAAAAAAAAAAAAAAAAAAAAAAAAAAAAAAAAAAAAAAAAAAAAAAAAAAAAAAAAAAAAAAAAAAAAAAAAAAAAAAAAAAAAAAAAAAAAAAAAAAAAAAAAAAAAAAAAAAAAAAAAAAAAAAAAAAAAAAAAAAAAAAAAAAAAAAAAAAAAAAAAAAAAAAAAAAAAAAAAAAAAAAAAAAAAAAAAAAAAAAAAAAAAAAAAAAAAAAAAAAAAAAAAAAAAAAAAAAAAAAAAAAAAAAAAAAAAAAAAAAAAAAAAAAAAAAAAAAAAAAAAAAAAAAAAAAAAAAAAAAAAAAAAAAAAAAAAAAAAAAAAAAAAAAAAAAAAAAAAAAAAAAAAAAAAAAAAAAAAAAAAAAAAAAAAAAAAAAAAAAAAAAAAAAAAAAAAAAAAAAAAAAAAAAAAAAAAAAAAAAAAAAAAAAAAAAAAAAAAAAAAAAAAAAAAAAAAAAAAAAAAAAAAAAAAAAAAAAAAAAAAAAAAAAAAAAAAAAAAAAAAAAAAAAAAAAAAAAAAAAAAAAAAAAAAAAAAAAAAAAAAAAAAAAAAAAAAAAAAAAAAAAAAAAAAAAAAAAAAAAAAAAAAAAAAAAAAAAAAAAAAAAAAAAAAAAAAAAAAAAAAAAAAAAAAAAAAAAAAAAAAAAAAAAAAAAAAAAAAAAAAAAAAAAAAAAAAAAAAAAAAAAAAAAAAAAAAAAAAAAAAAAAAAAAAAAAAAAAAAAAAAAAAAAAAAAAAAAAAAAAAAAAAAAAAAAAAAAAAAAAAAAAAAAAAAAAAAAAAAAAAAAAAAAAAAAAAAAAAAAAAAAAAAAAAAAAAAAAAAAAAAAAAAAAAAAAAAAAAAAAAAAAAAAAAAAAAAAAAAAAAAAAAAAAAAAAAAAAAAAAAAAAAAAAAAAAAAAAAAAAAAAAAAAAAAAAAAAAAAAAAAAAAAAAAAAAAAAAAAAAAAAAAAAAAAAAAAAAAAAAAAAAAAAAAAAAAAAAAAAAAAAAAAAAAAAAAAAAAAAAAAAAAAAAAAAAAAAAAAAAAAAAAAAAAAAAAAAAAAAAAAAAAAAAAAAAAAAAAAAAAAAAAAAAAAAAAAAAAAAAAAAAAAAAAAAAAAAAAAAAAAAAAAAAAAAAAAAAAAAAAAAAAAAAAAAAAAAAAAAAAAAAAAAAAAAAAAAAAAAAAAAAAAAAAAAAAAAAAAAAAAAAAAAAAAAAAAAAAAAAAAAAAAAAAAAAAAAAAAAAAAAAAAAAAAAAAAAAAAAAAAAAAAAAAAAAAAAAAAAAAAAAAAAAAAAAAAAAAAAAAAAAAAAAAAAAAAAAAAAAAAAAAAAAAAAAAAAAAAAAAAAAAAAAAAAAAAAAAAAAAAAAAAAAAAAAAAAAAAAAAAAAAAAAAAAAAAAAAAAAAAAAAAAAAAAAAAAAAAAAAAAAAAAAAAAAAAAAAAAAAAAAAAAAAAAAAAAAAAAAAAAAAAAAAAAAAAAAAAAAAAAAAAAAAAAAAAAAAAAAAAAAAAAAAAAAAAAAAAAAAAAAAAAAAAAAAAAAAAAAAAAAAAAAAAAAAAAAAAAAAAAAAAAAAAAAAAAAAAAAAAAAAAAAAAAAAAAAAAAAAAAAAAAAAAAAAAAAAAAAAAAAAAAAAAAAAAAAAAAAAAAAAAAAAAAAAAAAAAAAAAAAAAAAAAAAAAAAAAAAAAAAAAAAAAAAAAAAAAAAAAAAAAAAAAAAAAAAAAAAAAAAAAAAAAAAAAAAAAAAAAAAAAAAAAAAAAAAAAAAAAAAAAAAAAAAAAAAAAAAAAAAAAAAAAAAAAAAAAAAAAAAAAAAAAAAAAAAAAAAAAAAAAAAAAAAAAAAAAAAAAAAAAAAAAAAAAAAAAAAAAAAAAAAAAAAAAAAAAAAAAAAAAAAAAAAAAAAAAAAAAAAAAAAAAAAAAAAAAAAAAAAAAAAAAAAAAAAAAAAAAAAAAAAAAAAAAAAAAAAAAAAAAAAAAAAAAAAAAAAAAAAAAAAAAAAAAAAAAAAAAAAAAAAAAAAAAAAAAAAAAAAAAAAAAAAAAAAAAAAAAAAAAAAAAAAAAAAAAAAAAAAAAAAAAAAAAAAAAAAAAAAAAAAAAAAAAAAAAAAAAAAAAAAAAAAAAAAAAAAAAAAAAAAAAAAAAAAAAAAAAAAAAAAAAAAAAAAAAAAAAAAAAAAAAAAAAAAAAAAAAAAAAAAAAAAAAAAAAAAAAAAAAAAAAAAAAAAAAAAAAAAAAAAAAAAAAAAAAAAAAAAAAAAAAAAAAAAAAAAAAAAAAAAAAAAAAAAAAAAAAAAAAAAAAAAAAAAAAAAAAAAAAAAAAAAAAAAAAAAAAAAAAAAAAAAAAAAAAAAAAAAAAAAAAAAAAAAAAAAAAAAAAAAAAAAAAAAAAAAAAAAAAAAAAAAAAAAAAAAAAAAAAAAAAAAAAAAAAAAAAAAAAAAAAAAAAAAAAAAAAAAAAAAAAAAAAAAAAAAAAAAAAAAAAAAAAAAAAAAAAAAAAAAAAAAAAAAAAAAAAAAAAAAAAAAAAAAAAAAAAAAAAAAAAAAAAAAAAAAAAAAAAAAAAAAAAAAAAAAAAAAAAAAAAAAAAAAAAAAAAAAAAAAAAAAAAAAAAAAAAAAAAAAPZYQKA62XxeURaeyWKzZMSMwr0wu8w4mg8RowekQia67XkRaVuonA1f1ny4oSDy6COHthCX2gQDbVVF/rK8RHYGKdE=</c2pa:manifest></metadata>
<defs>
<radialGradient id="bgvid2091" cx="0.62" cy="0.27" r="1"><stop offset="0" stop-color="#6a3515" stop-opacity=".95"/><stop offset=".55" stop-color="#14120a"/><stop offset="1" stop-color="#070706"/></radialGradient>
<linearGradient id="gvid2091" x1="0" y1="0" x2="0" y2="1"><stop offset="0" stop-color="#ffd9bd"/><stop offset=".5" stop-color="#F0A56E"/><stop offset="1" stop-color="#C2703A"/></linearGradient>
<linearGradient id="hvid2091" x1="0" y1="0" x2="1" y2="1"><stop offset="0" stop-color="#F0A56E"/><stop offset="1" stop-color="#6a3515"/></linearGradient>
<filter id="glvid2091" x="-30%" y="-30%" width="160%" height="160%"><feGaussianBlur stdDeviation="14"/></filter>
<filter id="smvid2091" x="-30%" y="-30%" width="160%" height="160%"><feGaussianBlur stdDeviation="3"/></filter>
</defs>
<rect width="1600" height="900" fill="url(#bgvid2091)"/>
<g stroke="#C2703A" stroke-opacity=".07" stroke-width="1"><path d="M0 0V900"/><path d="M80 0V900"/><path d="M160 0V900"/><path d="M240 0V900"/><path d="M320 0V900"/><path d="M400 0V900"/><path d="M480 0V900"/><path d="M560 0V900"/><path d="M640 0V900"/><path d="M720 0V900"/><path d="M800 0V900"/><path d="M880 0V900"/><path d="M960 0V900"/><path d="M1040 0V900"/><path d="M1120 0V900"/><path d="M1200 0V900"/><path d="M1280 0V900"/><path d="M1360 0V900"/><path d="M1440 0V900"/><path d="M1520 0V900"/><path d="M0 0H1600"/><path d="M0 80H1600"/><path d="M0 160H1600"/><path d="M0 240H1600"/><path d="M0 320H1600"/><path d="M0 400H1600"/><path d="M0 480H1600"/><path d="M0 560H1600"/><path d="M0 640H1600"/><path d="M0 720H1600"/><path d="M0 800H1600"/><path d="M0 880H1600"/></g><circle cx="770.1" cy="358.9" r="141.9" fill="#C2703A" opacity=".16" filter="url(#glvid2091)"/><circle cx="903.7" cy="601.2" r="257.2" fill="#C2703A" opacity=".16" filter="url(#glvid2091)"/><circle cx="940.8" cy="220.9" r="137.7" fill="#C2703A" opacity=".16" filter="url(#glvid2091)"/><circle cx="44.8" cy="446.7" r="2.8" fill="#ffd9bd" opacity="0.43"/><circle cx="537.9" cy="713.3" r="1.2" fill="#ffd9bd" opacity="0.24"/><circle cx="629.3" cy="331.4" r="1.0" fill="#ffd9bd" opacity="0.47"/><circle cx="655.8" cy="600.0" r="1.3" fill="#ffd9bd" opacity="0.46"/><circle cx="339.5" cy="725.5" r="1.0" fill="#ffd9bd" opacity="0.19"/><circle cx="129.9" cy="521.4" r="2.8" fill="#ffd9bd" opacity="0.39"/><circle cx="538.6" cy="734.1" r="2.2" fill="#ffd9bd" opacity="0.34"/><circle cx="1521.0" cy="731.2" r="2.1" fill="#ffd9bd" opacity="0.36"/><circle cx="868.6" cy="127.9" r="2.3" fill="#ffd9bd" opacity="0.42"/><circle cx="1337.8" cy="222.2" r="1.1" fill="#ffd9bd" opacity="0.24"/><circle cx="546.0" cy="600.8" r="2.7" fill="#ffd9bd" opacity="0.13"/><circle cx="1208.5" cy="497.9" r="1.5" fill="#ffd9bd" opacity="0.11"/><circle cx="853.6" cy="103.4" r="1.4" fill="#ffd9bd" opacity="0.21"/><circle cx="1429.6" cy="599.4" r="2.9" fill="#ffd9bd" opacity="0.48"/><circle cx="403.0" cy="396.9" r="2.0" fill="#ffd9bd" opacity="0.27"/><circle cx="852.4" cy="345.8" r="2.0" fill="#ffd9bd" opacity="0.21"/><circle cx="1508.4" cy="435.3" r="2.2" fill="#ffd9bd" opacity="0.40"/><circle cx="1524.3" cy="540.2" r="3.1" fill="#ffd9bd" opacity="0.35"/><circle cx="723.4" cy="369.2" r="2.3" fill="#ffd9bd" opacity="0.47"/><circle cx="33.8" cy="820.9" r="2.5" fill="#ffd9bd" opacity="0.30"/><circle cx="18.0" cy="609.3" r="1.5" fill="#ffd9bd" opacity="0.28"/><circle cx="1309.2" cy="849.8" r="3.2" fill="#ffd9bd" opacity="0.41"/><circle cx="1424.0" cy="874.6" r="2.5" fill="#ffd9bd" opacity="0.49"/><circle cx="1420.1" cy="497.1" r="3.1" fill="#ffd9bd" opacity="0.45"/><circle cx="622.4" cy="711.2" r="1.9" fill="#ffd9bd" opacity="0.27"/><circle cx="421.7" cy="226.7" r="2.0" fill="#ffd9bd" opacity="0.13"/><circle cx="1245.1" cy="112.7" r="2.6" fill="#ffd9bd" opacity="0.18"/><circle cx="1235.1" cy="533.0" r="1.4" fill="#ffd9bd" opacity="0.42"/><circle cx="1184.0" cy="261.4" r="2.8" fill="#ffd9bd" opacity="0.25"/><circle cx="227.3" cy="432.7" r="1.6" fill="#ffd9bd" opacity="0.17"/><circle cx="1324.8" cy="156.4" r="3.0" fill="#ffd9bd" opacity="0.27"/><circle cx="1471.0" cy="270.6" r="1.9" fill="#ffd9bd" opacity="0.10"/><circle cx="1453.6" cy="800.4" r="2.2" fill="#ffd9bd" opacity="0.13"/><circle cx="54.6" cy="797.6" r="1.1" fill="#ffd9bd" opacity="0.18"/><circle cx="1264.9" cy="88.4" r="2.1" fill="#ffd9bd" opacity="0.47"/><circle cx="1346.7" cy="451.1" r="2.5" fill="#ffd9bd" opacity="0.25"/><circle cx="510.0" cy="842.1" r="1.6" fill="#ffd9bd" opacity="0.49"/><circle cx="808.3" cy="128.3" r="2.0" fill="#ffd9bd" opacity="0.20"/><circle cx="510.4" cy="147.4" r="2.1" fill="#ffd9bd" opacity="0.49"/><circle cx="948.9" cy="600.9" r="3.1" fill="#ffd9bd" opacity="0.25"/><g transform="rotate(-6 1100 450)"><rect x="780" y="340" width="640" height="400" rx="14" fill="#0d0c09" stroke="#C2703A" stroke-width="3"/><path d="M790 340l-40 -90h60l40 90z" fill="#0a0a08" stroke="#C2703A" stroke-width="2" transform="translate(0,0)"/><path d="M868 340l-40 -90h60l40 90z" fill="#F0A56E" stroke="#C2703A" stroke-width="2" transform="translate(0,0)"/><path d="M946 340l-40 -90h60l40 90z" fill="#0a0a08" stroke="#C2703A" stroke-width="2" transform="translate(0,0)"/><path d="M1024 340l-40 -90h60l40 90z" fill="#F0A56E" stroke="#C2703A" stroke-width="2" transform="translate(0,0)"/><path d="M1102 340l-40 -90h60l40 90z" fill="#0a0a08" stroke="#C2703A" stroke-width="2" transform="translate(0,0)"/><path d="M1180 340l-40 -90h60l40 90z" fill="#F0A56E" stroke="#C2703A" stroke-width="2" transform="translate(0,0)"/><path d="M1258 340l-40 -90h60l40 90z" fill="#0a0a08" stroke="#C2703A" stroke-width="2" transform="translate(0,0)"/><path d="M1336 340l-40 -90h60l40 90z" fill="#F0A56E" stroke="#C2703A" stroke-width="2" transform="translate(0,0)"/><rect x="780" y="250" width="640" height="90" fill="none"/><text x="810" y="420" font-family="monospace" font-size="22" fill="#C2703A" letter-spacing="3">ESCENA</text><rect x="810" y="440" width="150" height="3" fill="#C2703A" opacity=".5"/><text x="1015" y="420" font-family="monospace" font-size="22" fill="#C2703A" letter-spacing="3">TOMA</text><rect x="1015" y="440" width="150" height="3" fill="#C2703A" opacity=".5"/><text x="1220" y="420" font-family="monospace" font-size="22" fill="#C2703A" letter-spacing="3">CÁMARA</text><rect x="1220" y="440" width="150" height="3" fill="#C2703A" opacity=".5"/><path d="M1060 520L1060 680L1200 600Z" fill="url(#gvid2091)"/></g><g opacity=".85"><rect x="700" y="790" width="800" height="64" fill="#0d0c09" stroke="#C2703A" stroke-opacity=".6"/><rect x="712" y="798" width="22" height="12" rx="3" fill="#C2703A" opacity=".6"/><rect x="712" y="834" width="22" height="12" rx="3" fill="#C2703A" opacity=".6"/><rect x="752" y="798" width="22" height="12" rx="3" fill="#C2703A" opacity=".6"/><rect x="752" y="834" width="22" height="12" rx="3" fill="#C2703A" opacity=".6"/><rect x="792" y="798" width="22" height="12" rx="3" fill="#C2703A" opacity=".6"/><rect x="792" y="834" width="22" height="12" rx="3" fill="#C2703A" opacity=".6"/><rect x="832" y="798" width="22" height="12" rx="3" fill="#C2703A" opacity=".6"/><rect x="832" y="834" width="22" height="12" rx="3" fill="#C2703A" opacity=".6"/><rect x="872" y="798" width="22" height="12" rx="3" fill="#C2703A" opacity=".6"/><rect x="872" y="834" width="22" height="12" rx="3" fill="#C2703A" opacity=".6"/><rect x="912" y="798" width="22" height="12" rx="3" fill="#C2703A" opacity=".6"/><rect x="912" y="834" width="22" height="12" rx="3" fill="#C2703A" opacity=".6"/><rect x="952" y="798" width="22" height="12" rx="3" fill="#C2703A" opacity=".6"/><rect x="952" y="834" width="22" height="12" rx="3" fill="#C2703A" opacity=".6"/><rect x="992" y="798" width="22" height="12" rx="3" fill="#C2703A" opacity=".6"/><rect x="992" y="834" width="22" height="12" rx="3" fill="#C2703A" opacity=".6"/><rect x="1032" y="798" width="22" height="12" rx="3" fill="#C2703A" opacity=".6"/><rect x="1032" y="834" width="22" height="12" rx="3" fill="#C2703A" opacity=".6"/><rect x="1072" y="798" width="22" height="12" rx="3" fill="#C2703A" opacity=".6"/><rect x="1072" y="834" width="22" height="12" rx="3" fill="#C2703A" opacity=".6"/><rect x="1112" y="798" width="22" height="12" rx="3" fill="#C2703A" opacity=".6"/><rect x="1112" y="834" width="22" height="12" rx="3" fill="#C2703A" opacity=".6"/><rect x="1152" y="798" width="22" height="12" rx="3" fill="#C2703A" opacity=".6"/><rect x="1152" y="834" width="22" height="12" rx="3" fill="#C2703A" opacity=".6"/><rect x="1192" y="798" width="22" height="12" rx="3" fill="#C2703A" opacity=".6"/><rect x="1192" y="834" width="22" height="12" rx="3" fill="#C2703A" opacity=".6"/><rect x="1232" y="798" width="22" height="12" rx="3" fill="#C2703A" opacity=".6"/><rect x="1232" y="834" width="22" height="12" rx="3" fill="#C2703A" opacity=".6"/><rect x="1272" y="798" width="22" height="12" rx="3" fill="#C2703A" opacity=".6"/><rect x="1272" y="834" width="22" height="12" rx="3" fill="#C2703A" opacity=".6"/><rect x="1312" y="798" width="22" height="12" rx="3" fill="#C2703A" opacity=".6"/><rect x="1312" y="834" width="22" height="12" rx="3" fill="#C2703A" opacity=".6"/><rect x="1352" y="798" width="22" height="12" rx="3" fill="#C2703A" opacity=".6"/><rect x="1352" y="834" width="22" height="12" rx="3" fill="#C2703A" opacity=".6"/><rect x="1392" y="798" width="22" height="12" rx="3" fill="#C2703A" opacity=".6"/><rect x="1392" y="834" width="22" height="12" rx="3" fill="#C2703A" opacity=".6"/><rect x="1432" y="798" width="22" height="12" rx="3" fill="#C2703A" opacity=".6"/><rect x="1432" y="834" width="22" height="12" rx="3" fill="#C2703A" opacity=".6"/><rect x="1472" y="798" width="22" height="12" rx="3" fill="#C2703A" opacity=".6"/><rect x="1472" y="834" width="22" height="12" rx="3" fill="#C2703A" opacity=".6"/></g><path d="M1480 70L1100 300" stroke="#ffd9bd" stroke-width="60" stroke-opacity=".12" stroke-linecap="round"/></svg>