<svg xmlns="http://www.w3.org/2000/svg" viewBox="0 0 1600 900" preserveAspectRatio="xMidYMid slice" xmlns:c2pa="http://c2pa.org/manifest"><metadata><c2pa:manifest>AAAWgmp1bWIAAAAeanVtZGMycGEAEQAQgAAAqgA4m3EDYzJwYQAAABZcanVtYgAAAEdqdW1kYzJtYQARABCAAACqADibcQN1cm46YzJwYToyNDVkZDcyNS01YjA1LTQ2MTUtYjYzOC1lMzlmNjMzMDBlOGQAAAADl2p1bWIAAAApanVtZGMyYXMAEQAQgAAAqgA4m3EDYzJwYS5hc3NlcnRpb25zAAAAALxqdW1iAAAARGp1bWRjYm9yABEAEIAAAKoAOJtxE2MycGEuaW5ncmVkaWVudC52MwAAAAAYYzJzaFEvMG8d3mRIPmH87omMb5QAAABwY2JvcqNpZGM6Zm9ybWF0bWltYWdlL3N2Zyt4bWxqaW5zdGFuY2VJRHgseG1wOmlpZDowODc1NjBkOS01ZGVlLTQxOGEtYTU0MS0xN2JkNWNlMmQ1MjNscmVsYXRpb25zaGlwaHBhcmVudE9mAAAB4mp1bWIAAABBanVtZGNib3IAEQAQgAAAqgA4m3ETYzJwYS5hY3Rpb25zLnYyAAAAABhjMnNo6pXs7wPXQH/fAY973sJRlQAAAZljYm9yomdhY3Rpb25zgqJmYWN0aW9ua2MycGEub3BlbmVkanBhcmFtZXRlcnOha2luZ3JlZGllbnRzgaJjdXJseC1zZWxmI2p1bWJmPWMycGEuYXNzZXJ0aW9ucy9jMnBhLmluZ3JlZGllbnQudjNkaGFzaFgguQxFWtzgVRWx0T5rawJb3qAAOshv8465ZGKed9PlQaqkZmFjdGlvbngdY29tLmFudGhyb3BpYy5jbGF1ZGUucHJvdmlkZWRqcGFyYW1ldGVyc6F4H2NvbS5hbnRocm9waWMub3JpZ2luLWNvbmZpZGVuY2VndW5rbm93bmtkZXNjcmlwdGlvbnhmQ2xhdWRlIHByb3ZpZGVkIHRoaXMgZmlsZSBhdCB0aGUgcmVxdWVzdCBvZiBhIHVzZXIgYW5kIG1heSBoYXZlIGNyZWF0ZWQgb3IgbW9kaWZpZWQgdGhlIGZpbGUgY29udGVudHMubXNvZnR3YXJlQWdlbnShZG5hbWVmQ2xhdWRlcmFsbEFjdGlvbnNJbmNsdWRlZPUAAADIanVtYgAAAEBqdW1kY2JvcgARABCAAACqADibcRNjMnBhLmhhc2guZGF0YQAAAAAYYzJzaPqfmUSfQZ2ZfOzB6LUYMmEAAACAY2JvcqVjYWxnZnNoYTI1NmNwYWRNAAAAAAAAAAAAAAAAAGRoYXNoWCAGnDSZ/oFmiw93mnYJkmq4TZ9Oy7YbYnl24xPkxLw3SmRuYW1lbmp1bWJmIG1hbmlmZXN0amV4Y2x1c2lvbnOBomVzdGFydBijZmxlbmd0aBkeBAAAAj5qdW1iAAAAJ2p1bWRjMmNsABEAEIAAAKoAOJtxA2MycGEuY2xhaW0udjIAAAACD2Nib3KlY2FsZ2ZzaGEyNTZpc2lnbmF0dXJleE1zZWxmI2p1bWJmPS9jMnBhL3VybjpjMnBhOjI0NWRkNzI1LTViMDUtNDYxNS1iNjM4LWUzOWY2MzMwMGU4ZC9jMnBhLnNpZ25hdHVyZWppbnN0YW5jZUlEeCx4bXA6aWlkOjJjMjFjN2E4LWUyNTAtNDdiMC1iMTRmLTkyZTM5ZTNlNGNiMHJjcmVhdGVkX2Fzc2VydGlvbnODomN1cmx4LXNlbGYjanVtYmY9YzJwYS5hc3NlcnRpb25zL2MycGEuaW5ncmVkaWVudC52M2RoYXNoWCC5DEVa3OBVFbHRPmtrAlveoAA6yG/zjrlkYp530+VBqqJjdXJseCpzZWxmI2p1bWJmPWMycGEuYXNzZXJ0aW9ucy9jMnBhLmFjdGlvbnMudjJkaGFzaFggO67HfqzTAJOH6wShHMR4HDWDBKeHYtAYEhGywnbP5A2iY3VybHgpc2VsZiNqdW1iZj1jMnBhLmFzc2VydGlvbnMvYzJwYS5oYXNoLmRhdGFkaGFzaFggRYgGU+ZCFg7dPnK+4DxC/fD+grLMScCwHOpGV7n3ZUV0Y2xhaW1fZ2VuZXJhdG9yX2luZm+jZG5hbWVvQW50aHJvcGljIEZpbGVzZ3ZlcnNpb25lMS4wLjBrc3BlY1ZlcnNpb25lMi40LjAAABA4anVtYgAAAChqdW1kYzJjcwARABCAAACqADibcQNjMnBhLnNpZ25hdHVyZQAAABAIY2JvctKEWQISogEmGCFZAgowggIGMIIBjaADAgECAhRA5aAK7sI50L64g/oGQgU9Z1UTADAKBggqhkjOPQQDAzBJMRcwFQYDVQQKEw5BbnRocm9waWMsIFBCQzEuMCwGA1UEAxMlQW50aHJvcGljIENvbnRlbnQgQ3JlZGVudGlhbHMgUm9vdCBDQTAeFw0yNjA4MDcxODQzNTZaFw0yODA4MDYxOTQzNTZaMEQxFzAVBgNVBAoTDkFudGhyb3BpYywgUEJDMSkwJwYDVQQDEyBBbnRocm9waWMgQ2xhdWRlIENvbnRlbnQgU2lnbmluZzBZMBMGByqGSM49AgEGCCqGSM49AwEHA0IABJh6CmvLUBgFFNU0vUKlOVtE6djd17L5SuwX0LemFisBM3dkd/3cyjxFA3Qo5S46fX0/ihY0VZ7mfb9KF703t5OjWDBWMA4GA1UdDwEB/wQEAwIHgDAVBgNVHSUEDjAMBgorBgEEAYPoXgIBMAwGA1UdEwEB/wQCMAAwHwYDVR0jBBgwFoAUzlHiBIFOZFsj+OPEz5o+nMHXXMIwCgYIKoZIzj0EAwMDZwAwZAIwMXMdFJ4BetLLVY7ORuE9noqbbAZOZn/aArXyTwFAZfKrPzxF2vPoJNf1+UCdg1XGAjBwX1zd9WGqYkqmL5SFqw1QySjr1zJfpJM9+1rdDwSPLMOPOjKuiXjoU/pUUeG9RwmhY3BhZFkNngAAAAAAAAAAAAAAAAAAAAAAAAAAAAAAAAAAAAAAAAAAAAAAAAAAAAAAAAAAAAAAAAAAAAAAAAAAAAAAAAAAAAAAAAAAAAAAAAAAAAAAAAAAAAAAAAAAAAAAAAAAAAAAAAAAAAAAAAAAAAAAAAAAAAAAAAAAAAAAAAAAAAAAAAAAAAAAAAAAAAAAAAAAAAAAAAAAAAAAAAAAAAAAAAAAAAAAAAAAAAAAAAAAAAAAAAAAAAAAAAAAAAAAAAAAAAAAAAAAAAAAAAAAAAAAAAAAAAAAAAAAAAAAAAAAAAAAAAAAAAAAAAAAAAAAAAAAAAAAAAAAAAAAAAAAAAAAAAAAAAAAAAAAAAAAAAAAAAAAAAAAAAAAAAAAAAAAAAAAAAAAAAAAAAAAAAAAAAAAAAAAAAAAAAAAAAAAAAAAAAAAAAAAAAAAAAAAAAAAAAAAAAAAAAAAAAAAAAAAAAAAAAAAAAAAAAAAAAAAAAAAAAAAAAAAAAAAAAAAAAAAAAAAAAAAAAAAAAAAAAAAAAAAAAAAAAAAAAAAAAAAAAAAAAAAAAAAAAAAAAAAAAAAAAAAAAAAAAAAAAAAAAAAAAAAAAAAAAAAAAAAAAAAAAAAAAAAAAAAAAAAAAAAAAAAAAAAAAAAAAAAAAAAAAAAAAAAAAAAAAAAAAAAAAAAAAAAAAAAAAAAAAAAAAAAAAAAAAAAAAAAAAAAAAAAAAAAAAAAAAAAAAAAAAAAAAAAAAAAAAAAAAAAAAAAAAAAAAAAAAAAAAAAAAAAAAAAAAAAAAAAAAAAAAAAAAAAAAAAAAAAAAAAAAAAAAAAAAAAAAAAAAAAAAAAAAAAAAAAAAAAAAAAAAAAAAAAAAAAAAAAAAAAAAAAAAAAAAAAAAAAAAAAAAAAAAAAAAAAAAAAAAAAAAAAAAAAAAAAAAAAAAAAAAAAAAAAAAAAAAAAAAAAAAAAAAAAAAAAAAAAAAAAAAAAAAAAAAAAAAAAAAAAAAAAAAAAAAAAAAAAAAAAAAAAAAAAAAAAAAAAAAAAAAAAAAAAAAAAAAAAAAAAAAAAAAAAAAAAAAAAAAAAAAAAAAAAAAAAAAAAAAAAAAAAAAAAAAAAAAAAAAAAAAAAAAAAAAAAAAAAAAAAAAAAAAAAAAAAAAAAAAAAAAAAAAAAAAAAAAAAAAAAAAAAAAAAAAAAAAAAAAAAAAAAAAAAAAAAAAAAAAAAAAAAAAAAAAAAAAAAAAAAAAAAAAAAAAAAAAAAAAAAAAAAAAAAAAAAAAAAAAAAAAAAAAAAAAAAAAAAAAAAAAAAAAAAAAAAAAAAAAAAAAAAAAAAAAAAAAAAAAAAAAAAAAAAAAAAAAAAAAAAAAAAAAAAAAAAAAAAAAAAAAAAAAAAAAAAAAAAAAAAAAAAAAAAAAAAAAAAAAAAAAAAAAAAAAAAAAAAAAAAAAAAAAAAAAAAAAAAAAAAAAAAAAAAAAAAAAAAAAAAAAAAAAAAAAAAAAAAAAAAAAAAAAAAAAAAAAAAAAAAAAAAAAAAAAAAAAAAAAAAAAAAAAAAAAAAAAAAAAAAAAAAAAAAAAAAAAAAAAAAAAAAAAAAAAAAAAAAAAAAAAAAAAAAAAAAAAAAAAAAAAAAAAAAAAAAAAAAAAAAAAAAAAAAAAAAAAAAAAAAAAAAAAAAAAAAAAAAAAAAAAAAAAAAAAAAAAAAAAAAAAAAAAAAAAAAAAAAAAAAAAAAAAAAAAAAAAAAAAAAAAAAAAAAAAAAAAAAAAAAAAAAAAAAAAAAAAAAAAAAAAAAAAAAAAAAAAAAAAAAAAAAAAAAAAAAAAAAAAAAAAAAAAAAAAAAAAAAAAAAAAAAAAAAAAAAAAAAAAAAAAAAAAAAAAAAAAAAAAAAAAAAAAAAAAAAAAAAAAAAAAAAAAAAAAAAAAAAAAAAAAAAAAAAAAAAAAAAAAAAAAAAAAAAAAAAAAAAAAAAAAAAAAAAAAAAAAAAAAAAAAAAAAAAAAAAAAAAAAAAAAAAAAAAAAAAAAAAAAAAAAAAAAAAAAAAAAAAAAAAAAAAAAAAAAAAAAAAAAAAAAAAAAAAAAAAAAAAAAAAAAAAAAAAAAAAAAAAAAAAAAAAAAAAAAAAAAAAAAAAAAAAAAAAAAAAAAAAAAAAAAAAAAAAAAAAAAAAAAAAAAAAAAAAAAAAAAAAAAAAAAAAAAAAAAAAAAAAAAAAAAAAAAAAAAAAAAAAAAAAAAAAAAAAAAAAAAAAAAAAAAAAAAAAAAAAAAAAAAAAAAAAAAAAAAAAAAAAAAAAAAAAAAAAAAAAAAAAAAAAAAAAAAAAAAAAAAAAAAAAAAAAAAAAAAAAAAAAAAAAAAAAAAAAAAAAAAAAAAAAAAAAAAAAAAAAAAAAAAAAAAAAAAAAAAAAAAAAAAAAAAAAAAAAAAAAAAAAAAAAAAAAAAAAAAAAAAAAAAAAAAAAAAAAAAAAAAAAAAAAAAAAAAAAAAAAAAAAAAAAAAAAAAAAAAAAAAAAAAAAAAAAAAAAAAAAAAAAAAAAAAAAAAAAAAAAAAAAAAAAAAAAAAAAAAAAAAAAAAAAAAAAAAAAAAAAAAAAAAAAAAAAAAAAAAAAAAAAAAAAAAAAAAAAAAAAAAAAAAAAAAAAAAAAAAAAAAAAAAAAAAAAAAAAAAAAAAAAAAAAAAAAAAAAAAAAAAAAAAAAAAAAAAAAAAAAAAAAAAAAAAAAAAAAAAAAAAAAAAAAAAAAAAAAAAAAAAAAAAAAAAAAAAAAAAAAAAAAAAAAAAAAAAAAAAAAAAAAAAAAAAAAAAAAAAAAAAAAAAAAAAAAAAAAAAAAAAAAAAAAAAAAAAAAAAAAAAAAAAAAAAAAAAAAAAAAAAAAAAAAAAAAAAAAAAAAAAAAAAAAAAAAAAAAAAAAAAAAAAAAAAAAAAAAAAAAAAAAAAAAAAAAAAAAAAAAAAAAAAAAAAAAAAAAAAAAAAAAAAAAAAAAAAAAAAAAAAAAAAAAAAAAAAAAAAAAAAAAAAAAAAAAAAAAAAAAAAAAAAAAAAAAAAAAAAAAAAAAAAAAAAAAAAAAAAAAAAAAAAAAAAAAAAAAAAAAAAAAAAAAAAAAAAAAAAAAAAAAAAAAAAAAAAAAAAAAAAAAAAAAAAAAAAAAAAAAAAAAAAAAAAAAAAAAAAAAAAAAAAAAAAAAAAAAAAAAAAAAAAAAAAAAAAAAAAAAAAAAAAAAAAAAAAAAAAAAAAAAAAAAAAAAAAAAAAAAAAAAAAAAAAAAAAAAAAAAAAAAAAAAAAAAAAAAAAAAAAAAAAAAAAAAAAAAAAAAAAAAAAAAAAAAAAAAAAAAAAAAAAAAAAAAAAAAAAAAAAAAAAAAAAAAAAAAAAAAAAAAAAAAAAAAAAAAAAAAAAAAAAAAAAAAAAAAAAAAAAAAAAAAAAAAAAAAAAAAAAAAAAAAAAAAAAAAAAAAAAAAAAAAAAAAAAAAAAAAAAAAAAAAAAAAAAAAAAAAAAAAAAAAAAAAAAAAAAAAAAAAAAAAAAAAAAAAAAAAAAAAAAAAAAAAAAAAAAAAAAAAAAAAAAAAAAAAAAAAAAAAAAAAAAAAAAAAAAAAAAAAAAAAAAAAAAAAAAAAAAAAAAAAAAAAAAAAAAAAAAAAAAAAAAAAAAAAAAAAAAAAAAAAAAAAAAAAAAAAAAAAAAAAAAAAAAAAAAAAAAAAAAAAAAAAAAAAAAAAAAAAAAAAAAAAAAAAAAAAAAAAAAAAAAAAAAAAAAAAAAAAAAAAAAAAAAAAAAAAAAAAAAAAAAAAAAAAAAAAAAAAAAAAAAAAAAAAAAAAAAAAAAAAAAAAAAAAAAAAAAAAAAAAAAAAAAAAAAAAAAAAAAAAAAAAAAAAAAAAAAAAAAAAAAAAAAAAAAAAAAAAAAAAAAAAAAAAAAAAAAAAAAAAAAAAAAAAAAAAAAAAAAAAAAAAAAAAAAAAAAAAAAAAAAAAAAAAAAAAAAAAAAAAAAAAAAAAAAAAAAAAAAAAAAAAAAAAAAAAAAAAAAAAAAAAAAAAAAAAAAAAAAAAAAAAAAAAAAAAAAAAAAAAAAAAAAAAAAAAAAAAAAAAAAAAAAAAAAAAAAAAAAAAAAAAAAAAAAAAAAAAAAAAAAAAAAAAAAAAAAAAAAAAAAAAAAAAAAAAAAAAAAAAAAAAAAAAAAAAAAAAAAAAAAAAAAAAAAAAAAAAAAAAAAAAAAAAAAAAAAAAAAAAAAAAAAAAAAAAAAAAAAAAAAAAAAAAAAAAAAAAAAAAAAAAAAAAAAAAAAAAAAAAAAAAAAAAAAAAAAAAAAAAAAAAAAAAAAAAAAAAAAAAAAAAAAAAAAAAAAAAAAAAAAAAAAAAAAAAAAAAAAAAAAAAAAAAAAAAAAAAAAAAAAAAAAAAAAAAAAAAAAAAAAAAAAAAAAAAAAAAAAAAAAAAAAAAAAAAAAAAAAAAAAAAAAAAAAAAAAAAAAAAAAAAAAAAAAAAAAAAAAAAAAAAAAAAAAAAAAAAAAAAAAAAAAAAAAAAAAAAAAAAAAAAAAAAAAAAAAAAAAAAAAAAAAAAAAAAAAAAAAAAAAAAAAAAAAAAAAAAAAAAAAAAAAAAAAAAAAAAAAAAAAAAAAAAAAAAAAAAAAAAAAAAAAAAAAAAAAAAAAAAAAAAAAAAAAAAAAAAAAAAAAAAAAAAAAAAAAAAAAAAAPZYQGysnn+DswGByXDN/A8f+GG5uwH6Cnvbf7fIihKALjthCRygYFnlEpRu4P+TiLDzhDv6L7WNsQPFlYNg+wXfTmk=</c2pa:manifest></metadata><defs>
<radialGradient id="bgs1028" cx=".72" cy=".38" r="1.05"><stop offset="0" stop-color="#E8BD47" stop-opacity=".30"/><stop offset=".45" stop-color="#16120e"/><stop offset="1" stop-color="#060605"/></radialGradient>
<linearGradient id="As1028" x1="0" y1="0" x2="1" y2="1"><stop offset="0" stop-color="#E8BD47"/><stop offset="1" stop-color="#FF7A59"/></linearGradient>
<linearGradient id="Vs1028" x1="0" y1="0" x2="0" y2="1"><stop offset="0" stop-color="#fff" stop-opacity=".95"/><stop offset=".35" stop-color="#E8BD47"/><stop offset="1" stop-color="#FF7A59"/></linearGradient>
<linearGradient id="Gs1028" x1="0" y1="0" x2="1" y2="1"><stop offset="0" stop-color="#fff" stop-opacity=".16"/><stop offset="1" stop-color="#fff" stop-opacity=".03"/></linearGradient>
<linearGradient id="Ms1028" x1="0" y1="0" x2="1" y2="0"><stop offset="0" stop-color="#d9dde2"/><stop offset=".5" stop-color="#8d949c"/><stop offset="1" stop-color="#4d535a"/></linearGradient>
<filter id="Bs1028" x="-50%" y="-50%" width="200%" height="200%"><feGaussianBlur stdDeviation="22"/></filter>
<filter id="bs1028" x="-50%" y="-50%" width="200%" height="200%"><feGaussianBlur stdDeviation="6"/></filter>
<filter id="Ss1028" x="-20%" y="-20%" width="140%" height="150%"><feDropShadow dx="0" dy="16" stdDeviation="16" flood-color="#000" flood-opacity=".55"/></filter>
</defs><rect width="1600" height="900" fill="url(#bgs1028)"/><circle cx="1177.6" cy="230.2" r="260" fill="#E8BD47" opacity=".20" filter="url(#Bs1028)"/><circle cx="1014.8" cy="580.8" r="230" fill="#FF7A59" opacity=".20" filter="url(#Bs1028)"/><circle cx="458.9" cy="426.6" r="240" fill="#E8BD47" opacity=".20" filter="url(#Bs1028)"/><g stroke="#E8BD47" stroke-opacity=".06"><path d="M-900 0L-1400 900"/><path d="M-810 0L-1310 900"/><path d="M-720 0L-1220 900"/><path d="M-630 0L-1130 900"/><path d="M-540 0L-1040 900"/><path d="M-450 0L-950 900"/><path d="M-360 0L-860 900"/><path d="M-270 0L-770 900"/><path d="M-180 0L-680 900"/><path d="M-90 0L-590 900"/><path d="M0 0L-500 900"/><path d="M90 0L-410 900"/><path d="M180 0L-320 900"/><path d="M270 0L-230 900"/><path d="M360 0L-140 900"/><path d="M450 0L-50 900"/><path d="M540 0L40 900"/><path d="M630 0L130 900"/><path d="M720 0L220 900"/><path d="M810 0L310 900"/><path d="M900 0L400 900"/><path d="M990 0L490 900"/><path d="M1080 0L580 900"/><path d="M1170 0L670 900"/><path d="M1260 0L760 900"/><path d="M1350 0L850 900"/><path d="M1440 0L940 900"/><path d="M1530 0L1030 900"/><path d="M1620 0L1120 900"/><path d="M1710 0L1210 900"/><path d="M1800 0L1300 900"/><path d="M1890 0L1390 900"/><path d="M1980 0L1480 900"/><path d="M2070 0L1570 900"/><path d="M2160 0L1660 900"/><path d="M2250 0L1750 900"/><path d="M2340 0L1840 900"/><path d="M2430 0L1930 900"/><path d="M2520 0L2020 900"/><path d="M2610 0L2110 900"/></g><circle cx="873.9" cy="764.8" r="0.9" fill="#fff" opacity="0.12"/><circle cx="1239.6" cy="583.5" r="2.8" fill="#fff" opacity="0.40"/><circle cx="1486.7" cy="515.7" r="1.0" fill="#fff" opacity="0.12"/><circle cx="502.5" cy="803.4" r="0.9" fill="#fff" opacity="0.14"/><circle cx="976.7" cy="204.2" r="2.0" fill="#fff" opacity="0.35"/><circle cx="1327.8" cy="112.1" r="1.6" fill="#fff" opacity="0.27"/><circle cx="187.7" cy="160.4" r="1.8" fill="#fff" opacity="0.18"/><circle cx="1192.2" cy="671.4" r="3.0" fill="#fff" opacity="0.13"/><circle cx="434.8" cy="431.6" r="1.2" fill="#fff" opacity="0.10"/><circle cx="1550.4" cy="97.7" r="0.8" fill="#fff" opacity="0.12"/><circle cx="1157.3" cy="182.3" r="1.4" fill="#fff" opacity="0.19"/><circle cx="768.8" cy="826.0" r="1.0" fill="#fff" opacity="0.17"/><circle cx="712.4" cy="114.6" r="1.5" fill="#fff" opacity="0.21"/><circle cx="1167.2" cy="389.0" r="2.9" fill="#fff" opacity="0.36"/><circle cx="103.0" cy="803.1" r="1.1" fill="#fff" opacity="0.44"/><circle cx="1408.4" cy="736.2" r="1.1" fill="#fff" opacity="0.29"/><circle cx="716.2" cy="617.8" r="2.9" fill="#fff" opacity="0.32"/><circle cx="1519.2" cy="22.3" r="1.1" fill="#fff" opacity="0.21"/><circle cx="1439.5" cy="282.4" r="1.1" fill="#fff" opacity="0.40"/><circle cx="1309.4" cy="216.2" r="2.8" fill="#fff" opacity="0.25"/><circle cx="1483.7" cy="197.7" r="2.1" fill="#fff" opacity="0.20"/><circle cx="1330.9" cy="500.1" r="2.8" fill="#fff" opacity="0.18"/><circle cx="1370.7" cy="732.3" r="2.4" fill="#fff" opacity="0.11"/><circle cx="997.5" cy="257.3" r="2.0" fill="#fff" opacity="0.24"/><circle cx="124.0" cy="450.0" r="1.1" fill="#fff" opacity="0.09"/><circle cx="836.4" cy="525.5" r="0.8" fill="#fff" opacity="0.26"/><circle cx="36.7" cy="600.7" r="1.8" fill="#fff" opacity="0.33"/><circle cx="249.6" cy="667.4" r="1.5" fill="#fff" opacity="0.14"/><circle cx="449.7" cy="279.9" r="2.3" fill="#fff" opacity="0.20"/><circle cx="680.0" cy="55.9" r="0.9" fill="#fff" opacity="0.17"/><circle cx="170.9" cy="245.0" r="2.7" fill="#fff" opacity="0.11"/><circle cx="517.2" cy="70.4" r="2.7" fill="#fff" opacity="0.18"/><circle cx="1572.2" cy="637.5" r="2.9" fill="#fff" opacity="0.26"/><circle cx="765.9" cy="137.9" r="2.2" fill="#fff" opacity="0.29"/><circle cx="438.3" cy="88.6" r="2.3" fill="#fff" opacity="0.26"/><circle cx="559.6" cy="372.0" r="1.1" fill="#fff" opacity="0.37"/><circle cx="1197.1" cy="572.2" r="1.9" fill="#fff" opacity="0.41"/><circle cx="1274.6" cy="813.2" r="1.5" fill="#fff" opacity="0.14"/><circle cx="518.5" cy="576.6" r="2.1" fill="#fff" opacity="0.19"/><circle cx="1103.3" cy="586.6" r="1.8" fill="#fff" opacity="0.16"/><circle cx="534.5" cy="131.6" r="1.4" fill="#fff" opacity="0.14"/><circle cx="1267.0" cy="193.8" r="2.5" fill="#fff" opacity="0.29"/><circle cx="169.3" cy="70.6" r="0.9" fill="#fff" opacity="0.33"/><circle cx="837.5" cy="365.3" r="2.4" fill="#fff" opacity="0.34"/><circle cx="1489.1" cy="88.7" r="0.9" fill="#fff" opacity="0.21"/><circle cx="1341.9" cy="558.5" r="0.9" fill="#fff" opacity="0.40"/><g transform="translate(940 440) scale(0.85)" filter="url(#Ss1028)"><rect x="-70" y="-190" width="140" height="250" rx="70" fill="url(#Ms1028)"/><path d="M-70 -165H70" stroke="#000" stroke-opacity=".28" stroke-width="3"/><path d="M-70 -144H70" stroke="#000" stroke-opacity=".28" stroke-width="3"/><path d="M-70 -123H70" stroke="#000" stroke-opacity=".28" stroke-width="3"/><path d="M-70 -102H70" stroke="#000" stroke-opacity=".28" stroke-width="3"/><path d="M-70 -81H70" stroke="#000" stroke-opacity=".28" stroke-width="3"/><path d="M-70 -60H70" stroke="#000" stroke-opacity=".28" stroke-width="3"/><path d="M-70 -39H70" stroke="#000" stroke-opacity=".28" stroke-width="3"/><path d="M-70 -18H70" stroke="#000" stroke-opacity=".28" stroke-width="3"/><path d="M-70 3H70" stroke="#000" stroke-opacity=".28" stroke-width="3"/><path d="M-70 24H70" stroke="#000" stroke-opacity=".28" stroke-width="3"/><path d="M-70 45H70" stroke="#000" stroke-opacity=".28" stroke-width="3"/><path d="M-60 -190V60" stroke="#000" stroke-opacity=".18" stroke-width="3"/><path d="M-40 -190V60" stroke="#000" stroke-opacity=".18" stroke-width="3"/><path d="M-20 -190V60" stroke="#000" stroke-opacity=".18" stroke-width="3"/><path d="M0 -190V60" stroke="#000" stroke-opacity=".18" stroke-width="3"/><path d="M20 -190V60" stroke="#000" stroke-opacity=".18" stroke-width="3"/><path d="M40 -190V60" stroke="#000" stroke-opacity=".18" stroke-width="3"/><path d="M60 -190V60" stroke="#000" stroke-opacity=".18" stroke-width="3"/><rect x="-76" y="58" width="152" height="30" rx="10" fill="url(#As1028)"/><rect x="-22" y="88" width="44" height="190" rx="16" fill="url(#Ms1028)"/><path d="M-130 340Q0 250 130 340" fill="none" stroke="url(#Ms1028)" stroke-width="14" stroke-linecap="round"/></g><g transform="translate(1260 440) scale(0.85)" filter="url(#Ss1028)"><rect x="-70" y="-190" width="140" height="250" rx="70" fill="url(#Ms1028)"/><path d="M-70 -165H70" stroke="#000" stroke-opacity=".28" stroke-width="3"/><path d="M-70 -144H70" stroke="#000" stroke-opacity=".28" stroke-width="3"/><path d="M-70 -123H70" stroke="#000" stroke-opacity=".28" stroke-width="3"/><path d="M-70 -102H70" stroke="#000" stroke-opacity=".28" stroke-width="3"/><path d="M-70 -81H70" stroke="#000" stroke-opacity=".28" stroke-width="3"/><path d="M-70 -60H70" stroke="#000" stroke-opacity=".28" stroke-width="3"/><path d="M-70 -39H70" stroke="#000" stroke-opacity=".28" stroke-width="3"/><path d="M-70 -18H70" stroke="#000" stroke-opacity=".28" stroke-width="3"/><path d="M-70 3H70" stroke="#000" stroke-opacity=".28" stroke-width="3"/><path d="M-70 24H70" stroke="#000" stroke-opacity=".28" stroke-width="3"/><path d="M-70 45H70" stroke="#000" stroke-opacity=".28" stroke-width="3"/><path d="M-60 -190V60" stroke="#000" stroke-opacity=".18" stroke-width="3"/><path d="M-40 -190V60" stroke="#000" stroke-opacity=".18" stroke-width="3"/><path d="M-20 -190V60" stroke="#000" stroke-opacity=".18" stroke-width="3"/><path d="M0 -190V60" stroke="#000" stroke-opacity=".18" stroke-width="3"/><path d="M20 -190V60" stroke="#000" stroke-opacity=".18" stroke-width="3"/><path d="M40 -190V60" stroke="#000" stroke-opacity=".18" stroke-width="3"/><path d="M60 -190V60" stroke="#000" stroke-opacity=".18" stroke-width="3"/><rect x="-76" y="58" width="152" height="30" rx="10" fill="url(#As1028)"/><rect x="-22" y="88" width="44" height="190" rx="16" fill="url(#Ms1028)"/><path d="M-130 340Q0 250 130 340" fill="none" stroke="url(#Ms1028)" stroke-width="14" stroke-linecap="round"/></g><path d="M880 700C980 840 1220 840 1320 700" fill="none" stroke="#E8BD47" stroke-width="14.399999999999999" stroke-linecap="round" stroke-linejoin="round" opacity=".55" filter="url(#bs1028)"/><path d="M880 700C980 840 1220 840 1320 700" fill="none" stroke="#fff" stroke-opacity=".9" stroke-width="2.7" stroke-linecap="round" stroke-linejoin="round"/><path d="M880 700C980 840 1220 840 1320 700" fill="none" stroke="#E8BD47" stroke-width="6" stroke-linecap="round" stroke-linejoin="round" opacity=".85"/><circle cx="1100" cy="240" r="70" fill="url(#As1028)" filter="url(#Ss1028)"/><path d="M1068 240h64M1100 208v64" stroke="#0a0907" stroke-width="12" stroke-linecap="round"/><rect x="760.0" y="157.0" width="9.4" height="6.0" rx="5.1" fill="url(#Vs1028)"/><rect x="777.0" y="155.6" width="9.4" height="8.8" rx="5.1" fill="url(#Vs1028)"/><rect x="794.0" y="154.2" width="9.4" height="11.6" rx="5.1" fill="url(#Vs1028)"/><rect x="811.0" y="150.3" width="9.4" height="19.4" rx="5.1" fill="url(#Vs1028)"/><rect x="828.0" y="156.3" width="9.4" height="7.4" rx="5.1" fill="url(#Vs1028)"/><rect x="845.0" y="151.5" width="9.4" height="17.0" rx="5.1" fill="url(#Vs1028)"/><rect x="862.0" y="151.2" width="9.4" height="17.7" rx="5.1" fill="url(#Vs1028)"/><rect x="879.0" y="155.5" width="9.4" height="9.0" rx="5.1" fill="url(#Vs1028)"/><rect x="896.0" y="150.9" width="9.4" height="18.2" rx="5.1" fill="url(#Vs1028)"/><rect x="913.0" y="152.3" width="9.4" height="15.4" rx="5.1" fill="url(#Vs1028)"/><rect x="930.0" y="153.8" width="9.4" height="12.3" rx="5.1" fill="url(#Vs1028)"/><rect x="947.0" y="153.2" width="9.4" height="13.7" rx="5.1" fill="url(#Vs1028)"/><rect x="964.0" y="149.3" width="9.4" height="21.3" rx="5.1" fill="url(#Vs1028)"/><rect x="981.0" y="137.9" width="9.4" height="44.2" rx="5.1" fill="url(#Vs1028)"/><rect x="998.0" y="135.2" width="9.4" height="49.7" rx="5.1" fill="url(#Vs1028)"/><rect x="1015.0" y="145.7" width="9.4" height="28.7" rx="5.1" fill="url(#Vs1028)"/><rect x="1032.0" y="153.7" width="9.4" height="12.5" rx="5.1" fill="url(#Vs1028)"/><rect x="1049.0" y="139.6" width="9.4" height="40.9" rx="5.1" fill="url(#Vs1028)"/><rect x="1066.0" y="149.2" width="9.4" height="21.6" rx="5.1" fill="url(#Vs1028)"/><rect x="1083.0" y="149.6" width="9.4" height="20.8" rx="5.1" fill="url(#Vs1028)"/><rect x="1100.0" y="152.1" width="9.4" height="15.8" rx="5.1" fill="url(#Vs1028)"/><rect x="1117.0" y="147.3" width="9.4" height="25.4" rx="5.1" fill="url(#Vs1028)"/><rect x="1134.0" y="143.0" width="9.4" height="34.1" rx="5.1" fill="url(#Vs1028)"/><rect x="1151.0" y="153.5" width="9.4" height="13.0" rx="5.1" fill="url(#Vs1028)"/><rect x="1168.0" y="135.9" width="9.4" height="48.2" rx="5.1" fill="url(#Vs1028)"/><rect x="1185.0" y="138.8" width="9.4" height="42.3" rx="5.1" fill="url(#Vs1028)"/><rect x="1202.0" y="139.2" width="9.4" height="41.6" rx="5.1" fill="url(#Vs1028)"/><rect x="1219.0" y="140.4" width="9.4" height="39.1" rx="5.1" fill="url(#Vs1028)"/><rect x="1236.0" y="143.3" width="9.4" height="33.4" rx="5.1" fill="url(#Vs1028)"/><rect x="1253.0" y="143.3" width="9.4" height="33.4" rx="5.1" fill="url(#Vs1028)"/><rect x="1270.0" y="149.6" width="9.4" height="20.9" rx="5.1" fill="url(#Vs1028)"/><rect x="1287.0" y="151.4" width="9.4" height="17.3" rx="5.1" fill="url(#Vs1028)"/><rect x="1304.0" y="150.1" width="9.4" height="19.7" rx="5.1" fill="url(#Vs1028)"/><rect x="1321.0" y="155.2" width="9.4" height="9.5" rx="5.1" fill="url(#Vs1028)"/><rect x="1338.0" y="155.2" width="9.4" height="9.7" rx="5.1" fill="url(#Vs1028)"/><rect x="1355.0" y="152.5" width="9.4" height="15.1" rx="5.1" fill="url(#Vs1028)"/><rect x="1372.0" y="152.9" width="9.4" height="14.2" rx="5.1" fill="url(#Vs1028)"/><rect x="1389.0" y="151.5" width="9.4" height="17.1" rx="5.1" fill="url(#Vs1028)"/><rect x="1406.0" y="155.0" width="9.4" height="10.1" rx="5.1" fill="url(#Vs1028)"/><rect x="1423.0" y="155.2" width="9.4" height="9.6" rx="5.1" fill="url(#Vs1028)"/><rect width="1600" height="900" fill="none" stroke="none"/></svg>