<svg xmlns="http://www.w3.org/2000/svg" viewBox="0 0 1600 900" preserveAspectRatio="xMidYMid slice" xmlns:c2pa="http://c2pa.org/manifest"><metadata><c2pa:manifest>AAAWgmp1bWIAAAAeanVtZGMycGEAEQAQgAAAqgA4m3EDYzJwYQAAABZcanVtYgAAAEdqdW1kYzJtYQARABCAAACqADibcQN1cm46YzJwYTpiMjViYzRlMS03N2Y2LTRhYmEtODIyZC00NzQ1NmVhNDM2OWIAAAADl2p1bWIAAAApanVtZGMyYXMAEQAQgAAAqgA4m3EDYzJwYS5hc3NlcnRpb25zAAAAALxqdW1iAAAARGp1bWRjYm9yABEAEIAAAKoAOJtxE2MycGEuaW5ncmVkaWVudC52MwAAAAAYYzJzaGtIlB41Njkr1/T4rSNn3W4AAABwY2JvcqNpZGM6Zm9ybWF0bWltYWdlL3N2Zyt4bWxqaW5zdGFuY2VJRHgseG1wOmlpZDpkYmNiZmU0Yy1lMTNlLTQ2MDEtODI0NC04ZjVlZmQwM2RjMTBscmVsYXRpb25zaGlwaHBhcmVudE9mAAAB4mp1bWIAAABBanVtZGNib3IAEQAQgAAAqgA4m3ETYzJwYS5hY3Rpb25zLnYyAAAAABhjMnNobM5NrHrBz5neeIoTqJA02QAAAZljYm9yomdhY3Rpb25zgqJmYWN0aW9ua2MycGEub3BlbmVkanBhcmFtZXRlcnOha2luZ3JlZGllbnRzgaJjdXJseC1zZWxmI2p1bWJmPWMycGEuYXNzZXJ0aW9ucy9jMnBhLmluZ3JlZGllbnQudjNkaGFzaFggNewHV30V3GjwFGmpTwq2pCZVpDTvHGmfwtcLKuzh4mCkZmFjdGlvbngdY29tLmFudGhyb3BpYy5jbGF1ZGUucHJvdmlkZWRqcGFyYW1ldGVyc6F4H2NvbS5hbnRocm9waWMub3JpZ2luLWNvbmZpZGVuY2VndW5rbm93bmtkZXNjcmlwdGlvbnhmQ2xhdWRlIHByb3ZpZGVkIHRoaXMgZmlsZSBhdCB0aGUgcmVxdWVzdCBvZiBhIHVzZXIgYW5kIG1heSBoYXZlIGNyZWF0ZWQgb3IgbW9kaWZpZWQgdGhlIGZpbGUgY29udGVudHMubXNvZnR3YXJlQWdlbnShZG5hbWVmQ2xhdWRlcmFsbEFjdGlvbnNJbmNsdWRlZPUAAADIanVtYgAAAEBqdW1kY2JvcgARABCAAACqADibcRNjMnBhLmhhc2guZGF0YQAAAAAYYzJzaMNwy+Gu0Q+TKNc1Gj43Gn0AAACAY2JvcqVjYWxnZnNoYTI1NmNwYWRNAAAAAAAAAAAAAAAAAGRoYXNoWCAEtMVHMd12bG0Mpf1nCh6YAC76wVhs2ejHfdWwhjEfZmRuYW1lbmp1bWJmIG1hbmlmZXN0amV4Y2x1c2lvbnOBomVzdGFydBijZmxlbmd0aBkeBAAAAj5qdW1iAAAAJ2p1bWRjMmNsABEAEIAAAKoAOJtxA2MycGEuY2xhaW0udjIAAAACD2Nib3KlY2FsZ2ZzaGEyNTZpc2lnbmF0dXJleE1zZWxmI2p1bWJmPS9jMnBhL3VybjpjMnBhOmIyNWJjNGUxLTc3ZjYtNGFiYS04MjJkLTQ3NDU2ZWE0MzY5Yi9jMnBhLnNpZ25hdHVyZWppbnN0YW5jZUlEeCx4bXA6aWlkOmY2YzAxNTc2LWY3YWUtNDM0ZS05ZTlhLTM1NTQxNmE5MDY2YXJjcmVhdGVkX2Fzc2VydGlvbnODomN1cmx4LXNlbGYjanVtYmY9YzJwYS5hc3NlcnRpb25zL2MycGEuaW5ncmVkaWVudC52M2RoYXNoWCA17AdXfRXcaPAUaalPCrakJlWkNO8caZ/C1wsq7OHiYKJjdXJseCpzZWxmI2p1bWJmPWMycGEuYXNzZXJ0aW9ucy9jMnBhLmFjdGlvbnMudjJkaGFzaFggcgCLbsaAGMOyfNExqHyVvtzrBZCYd8KcrLgnvCzGvCuiY3VybHgpc2VsZiNqdW1iZj1jMnBhLmFzc2VydGlvbnMvYzJwYS5oYXNoLmRhdGFkaGFzaFgghpDtvBumeQD9+SOq70Kt6wNXTCNfy4+1FOCc8xK+XVZ0Y2xhaW1fZ2VuZXJhdG9yX2luZm+jZG5hbWVvQW50aHJvcGljIEZpbGVzZ3ZlcnNpb25lMS4wLjBrc3BlY1ZlcnNpb25lMi40LjAAABA4anVtYgAAAChqdW1kYzJjcwARABCAAACqADibcQNjMnBhLnNpZ25hdHVyZQAAABAIY2JvctKEWQISogEmGCFZAgowggIGMIIBjaADAgECAhRA5aAK7sI50L64g/oGQgU9Z1UTADAKBggqhkjOPQQDAzBJMRcwFQYDVQQKEw5BbnRocm9waWMsIFBCQzEuMCwGA1UEAxMlQW50aHJvcGljIENvbnRlbnQgQ3JlZGVudGlhbHMgUm9vdCBDQTAeFw0yNjA4MDcxODQzNTZaFw0yODA4MDYxOTQzNTZaMEQxFzAVBgNVBAoTDkFudGhyb3BpYywgUEJDMSkwJwYDVQQDEyBBbnRocm9waWMgQ2xhdWRlIENvbnRlbnQgU2lnbmluZzBZMBMGByqGSM49AgEGCCqGSM49AwEHA0IABJh6CmvLUBgFFNU0vUKlOVtE6djd17L5SuwX0LemFisBM3dkd/3cyjxFA3Qo5S46fX0/ihY0VZ7mfb9KF703t5OjWDBWMA4GA1UdDwEB/wQEAwIHgDAVBgNVHSUEDjAMBgorBgEEAYPoXgIBMAwGA1UdEwEB/wQCMAAwHwYDVR0jBBgwFoAUzlHiBIFOZFsj+OPEz5o+nMHXXMIwCgYIKoZIzj0EAwMDZwAwZAIwMXMdFJ4BetLLVY7ORuE9noqbbAZOZn/aArXyTwFAZfKrPzxF2vPoJNf1+UCdg1XGAjBwX1zd9WGqYkqmL5SFqw1QySjr1zJfpJM9+1rdDwSPLMOPOjKuiXjoU/pUUeG9RwmhY3BhZFkNngAAAAAAAAAAAAAAAAAAAAAAAAAAAAAAAAAAAAAAAAAAAAAAAAAAAAAAAAAAAAAAAAAAAAAAAAAAAAAAAAAAAAAAAAAAAAAAAAAAAAAAAAAAAAAAAAAAAAAAAAAAAAAAAAAAAAAAAAAAAAAAAAAAAAAAAAAAAAAAAAAAAAAAAAAAAAAAAAAAAAAAAAAAAAAAAAAAAAAAAAAAAAAAAAAAAAAAAAAAAAAAAAAAAAAAAAAAAAAAAAAAAAAAAAAAAAAAAAAAAAAAAAAAAAAAAAAAAAAAAAAAAAAAAAAAAAAAAAAAAAAAAAAAAAAAAAAAAAAAAAAAAAAAAAAAAAAAAAAAAAAAAAAAAAAAAAAAAAAAAAAAAAAAAAAAAAAAAAAAAAAAAAAAAAAAAAAAAAAAAAAAAAAAAAAAAAAAAAAAAAAAAAAAAAAAAAAAAAAAAAAAAAAAAAAAAAAAAAAAAAAAAAAAAAAAAAAAAAAAAAAAAAAAAAAAAAAAAAAAAAAAAAAAAAAAAAAAAAAAAAAAAAAAAAAAAAAAAAAAAAAAAAAAAAAAAAAAAAAAAAAAAAAAAAAAAAAAAAAAAAAAAAAAAAAAAAAAAAAAAAAAAAAAAAAAAAAAAAAAAAAAAAAAAAAAAAAAAAAAAAAAAAAAAAAAAAAAAAAAAAAAAAAAAAAAAAAAAAAAAAAAAAAAAAAAAAAAAAAAAAAAAAAAAAAAAAAAAAAAAAAAAAAAAAAAAAAAAAAAAAAAAAAAAAAAAAAAAAAAAAAAAAAAAAAAAAAAAAAAAAAAAAAAAAAAAAAAAAAAAAAAAAAAAAAAAAAAAAAAAAAAAAAAAAAAAAAAAAAAAAAAAAAAAAAAAAAAAAAAAAAAAAAAAAAAAAAAAAAAAAAAAAAAAAAAAAAAAAAAAAAAAAAAAAAAAAAAAAAAAAAAAAAAAAAAAAAAAAAAAAAAAAAAAAAAAAAAAAAAAAAAAAAAAAAAAAAAAAAAAAAAAAAAAAAAAAAAAAAAAAAAAAAAAAAAAAAAAAAAAAAAAAAAAAAAAAAAAAAAAAAAAAAAAAAAAAAAAAAAAAAAAAAAAAAAAAAAAAAAAAAAAAAAAAAAAAAAAAAAAAAAAAAAAAAAAAAAAAAAAAAAAAAAAAAAAAAAAAAAAAAAAAAAAAAAAAAAAAAAAAAAAAAAAAAAAAAAAAAAAAAAAAAAAAAAAAAAAAAAAAAAAAAAAAAAAAAAAAAAAAAAAAAAAAAAAAAAAAAAAAAAAAAAAAAAAAAAAAAAAAAAAAAAAAAAAAAAAAAAAAAAAAAAAAAAAAAAAAAAAAAAAAAAAAAAAAAAAAAAAAAAAAAAAAAAAAAAAAAAAAAAAAAAAAAAAAAAAAAAAAAAAAAAAAAAAAAAAAAAAAAAAAAAAAAAAAAAAAAAAAAAAAAAAAAAAAAAAAAAAAAAAAAAAAAAAAAAAAAAAAAAAAAAAAAAAAAAAAAAAAAAAAAAAAAAAAAAAAAAAAAAAAAAAAAAAAAAAAAAAAAAAAAAAAAAAAAAAAAAAAAAAAAAAAAAAAAAAAAAAAAAAAAAAAAAAAAAAAAAAAAAAAAAAAAAAAAAAAAAAAAAAAAAAAAAAAAAAAAAAAAAAAAAAAAAAAAAAAAAAAAAAAAAAAAAAAAAAAAAAAAAAAAAAAAAAAAAAAAAAAAAAAAAAAAAAAAAAAAAAAAAAAAAAAAAAAAAAAAAAAAAAAAAAAAAAAAAAAAAAAAAAAAAAAAAAAAAAAAAAAAAAAAAAAAAAAAAAAAAAAAAAAAAAAAAAAAAAAAAAAAAAAAAAAAAAAAAAAAAAAAAAAAAAAAAAAAAAAAAAAAAAAAAAAAAAAAAAAAAAAAAAAAAAAAAAAAAAAAAAAAAAAAAAAAAAAAAAAAAAAAAAAAAAAAAAAAAAAAAAAAAAAAAAAAAAAAAAAAAAAAAAAAAAAAAAAAAAAAAAAAAAAAAAAAAAAAAAAAAAAAAAAAAAAAAAAAAAAAAAAAAAAAAAAAAAAAAAAAAAAAAAAAAAAAAAAAAAAAAAAAAAAAAAAAAAAAAAAAAAAAAAAAAAAAAAAAAAAAAAAAAAAAAAAAAAAAAAAAAAAAAAAAAAAAAAAAAAAAAAAAAAAAAAAAAAAAAAAAAAAAAAAAAAAAAAAAAAAAAAAAAAAAAAAAAAAAAAAAAAAAAAAAAAAAAAAAAAAAAAAAAAAAAAAAAAAAAAAAAAAAAAAAAAAAAAAAAAAAAAAAAAAAAAAAAAAAAAAAAAAAAAAAAAAAAAAAAAAAAAAAAAAAAAAAAAAAAAAAAAAAAAAAAAAAAAAAAAAAAAAAAAAAAAAAAAAAAAAAAAAAAAAAAAAAAAAAAAAAAAAAAAAAAAAAAAAAAAAAAAAAAAAAAAAAAAAAAAAAAAAAAAAAAAAAAAAAAAAAAAAAAAAAAAAAAAAAAAAAAAAAAAAAAAAAAAAAAAAAAAAAAAAAAAAAAAAAAAAAAAAAAAAAAAAAAAAAAAAAAAAAAAAAAAAAAAAAAAAAAAAAAAAAAAAAAAAAAAAAAAAAAAAAAAAAAAAAAAAAAAAAAAAAAAAAAAAAAAAAAAAAAAAAAAAAAAAAAAAAAAAAAAAAAAAAAAAAAAAAAAAAAAAAAAAAAAAAAAAAAAAAAAAAAAAAAAAAAAAAAAAAAAAAAAAAAAAAAAAAAAAAAAAAAAAAAAAAAAAAAAAAAAAAAAAAAAAAAAAAAAAAAAAAAAAAAAAAAAAAAAAAAAAAAAAAAAAAAAAAAAAAAAAAAAAAAAAAAAAAAAAAAAAAAAAAAAAAAAAAAAAAAAAAAAAAAAAAAAAAAAAAAAAAAAAAAAAAAAAAAAAAAAAAAAAAAAAAAAAAAAAAAAAAAAAAAAAAAAAAAAAAAAAAAAAAAAAAAAAAAAAAAAAAAAAAAAAAAAAAAAAAAAAAAAAAAAAAAAAAAAAAAAAAAAAAAAAAAAAAAAAAAAAAAAAAAAAAAAAAAAAAAAAAAAAAAAAAAAAAAAAAAAAAAAAAAAAAAAAAAAAAAAAAAAAAAAAAAAAAAAAAAAAAAAAAAAAAAAAAAAAAAAAAAAAAAAAAAAAAAAAAAAAAAAAAAAAAAAAAAAAAAAAAAAAAAAAAAAAAAAAAAAAAAAAAAAAAAAAAAAAAAAAAAAAAAAAAAAAAAAAAAAAAAAAAAAAAAAAAAAAAAAAAAAAAAAAAAAAAAAAAAAAAAAAAAAAAAAAAAAAAAAAAAAAAAAAAAAAAAAAAAAAAAAAAAAAAAAAAAAAAAAAAAAAAAAAAAAAAAAAAAAAAAAAAAAAAAAAAAAAAAAAAAAAAAAAAAAAAAAAAAAAAAAAAAAAAAAAAAAAAAAAAAAAAAAAAAAAAAAAAAAAAAAAAAAAAAAAAAAAAAAAAAAAAAAAAAAAAAAAAAAAAAAAAAAAAAAAAAAAAAAAAAAAAAAAAAAAAAAAAAAAAAAAAAAAAAAAAAAAAAAAAAAAAAAAAAAAAAAAAAAAAAAAAAAAAAAAAAAAAAAAAAAAAAAAAAAAAAAAAAAAAAAAAAAAAAAAAAAAAAAAAAAAAAAAAAAAAAAAAAAAAAAAAAAAAAAAAAAAAAAAAAAAAAAAAAAAAAAAAAAAAAAAAAAAAAAAAAAAAAAAAAAAAAAAAAAAAAAAAAAAAAAAAAAAAAAAAAAAAAAAAAAAAAAAAAAAAAAAAAAAAAAAAAAAAAAAAAAAAAAAAAAAAAAAAAAAAAAAAAAAAAAAAAAAAAAAAAAAAAAAAAAAAAAAAAAAAAAAAAAAAAAAAAAAAAAAAAAAAAAAAAAAAAAAAAAAAAAAAAAAAAAAAAAAAAAAAAAAAAAAAAAAAAAAAAAAAAAAAAAAAAAAAAAAAAAAAAAAAAAAAAAAAAAAAAAAAAAAAAAAAAAAAAAAAAAAAAAAAAAAAAAAAAAAAAAAAAAAAAAAAAAAAAAAAAAAAAAAAAAAAAAAAAAAAAAAAAAAAAAAAAAAAAAAAAAAAAAAAAAAAAAAAAAAAAAAAAAAAAAAAAAAAAAAAAAAAAAAAAAAAAAAAAAAAAAAAAAAAAAAAAAAAAAAAAAAAAAAAAAAAAAAAAAAAAAAAAAAAAAAAAAAAAAAAAAAAAAAAAAAAAAAAAAAAAAAAAAAAAAAAAAAAAAAAAAAAAAAAAAAAAAAAAAAAAAAAAAAAAAAAAAAAAAAAAAAAAAAAAAAAAAAAAAAAAAAAAAAAAAAAAAAAAAAAAAAAAAAAAAAAAAAAAAAAAAAAAAAAAAAAAAAAAAAAAAAAAAAAAAAAAAAAAAAAAAAAAAAAAAAAAAAAAAAAAAAAAAAAAAAAAAAAAAAAAAAAAAAAAAAAAAAAAAAAAAAAAAAAAAAAAAAAAAAAAAAAAAAAAAAAAAAAAAAAAAAAAAAAAAAAAAAAAAAAAAAAAAAAAAAAAAAAAAAAAAAAAAAAAAAAAAAAAAAAAAAAAAAAAAAAAAAAAAAAAAAAAAAAAAAAAAAAAAAAAAAAAAAAAAAAAAAAAAAAAAAAAAAAAAAAAAAAAAAAAAAAAAAAAAAAAAAAAAAAAAAAAAAAAAAAAAAAAAAAAAAAAAAAAAAAAAAAAAAAAAAAAAAAAAAAAAAAAAAAAAAAAAAAAAAAAAAAAAAAAAAAAAAAAAAAAAAAAAAAAAAAAAAAAAAAAAAAAAAAAAAAAAAAAAAAAAPZYQIFpf29q3vB77uBqR3l8i+hQR3Mfz6kxHEOR2LZKQEz0TP6nneeQuSIbuPt2Ie0WobmPjmyiAmHpyOMryhl+//c=</c2pa:manifest></metadata><defs>
<radialGradient id="bgs1042" cx=".72" cy=".38" r="1.05"><stop offset="0" stop-color="#35C9FF" stop-opacity=".30"/><stop offset=".45" stop-color="#16120e"/><stop offset="1" stop-color="#060605"/></radialGradient>
<linearGradient id="As1042" x1="0" y1="0" x2="1" y2="1"><stop offset="0" stop-color="#35C9FF"/><stop offset="1" stop-color="#7B5CFF"/></linearGradient>
<linearGradient id="Vs1042" x1="0" y1="0" x2="0" y2="1"><stop offset="0" stop-color="#fff" stop-opacity=".95"/><stop offset=".35" stop-color="#35C9FF"/><stop offset="1" stop-color="#7B5CFF"/></linearGradient>
<linearGradient id="Gs1042" x1="0" y1="0" x2="1" y2="1"><stop offset="0" stop-color="#fff" stop-opacity=".16"/><stop offset="1" stop-color="#fff" stop-opacity=".03"/></linearGradient>
<linearGradient id="Ms1042" x1="0" y1="0" x2="1" y2="0"><stop offset="0" stop-color="#d9dde2"/><stop offset=".5" stop-color="#8d949c"/><stop offset="1" stop-color="#4d535a"/></linearGradient>
<filter id="Bs1042" x="-50%" y="-50%" width="200%" height="200%"><feGaussianBlur stdDeviation="22"/></filter>
<filter id="bs1042" x="-50%" y="-50%" width="200%" height="200%"><feGaussianBlur stdDeviation="6"/></filter>
<filter id="Ss1042" x="-20%" y="-20%" width="140%" height="150%"><feDropShadow dx="0" dy="16" stdDeviation="16" flood-color="#000" flood-opacity=".55"/></filter>
</defs><rect width="1600" height="900" fill="url(#bgs1042)"/><circle cx="1049.7" cy="219.4" r="260" fill="#35C9FF" opacity=".20" filter="url(#Bs1042)"/><circle cx="1167.6" cy="783.1" r="230" fill="#7B5CFF" opacity=".20" filter="url(#Bs1042)"/><circle cx="295.7" cy="797.9" r="240" fill="#35C9FF" opacity=".20" filter="url(#Bs1042)"/><g stroke="#35C9FF" stroke-opacity=".06"><path d="M-900 0L-1400 900"/><path d="M-810 0L-1310 900"/><path d="M-720 0L-1220 900"/><path d="M-630 0L-1130 900"/><path d="M-540 0L-1040 900"/><path d="M-450 0L-950 900"/><path d="M-360 0L-860 900"/><path d="M-270 0L-770 900"/><path d="M-180 0L-680 900"/><path d="M-90 0L-590 900"/><path d="M0 0L-500 900"/><path d="M90 0L-410 900"/><path d="M180 0L-320 900"/><path d="M270 0L-230 900"/><path d="M360 0L-140 900"/><path d="M450 0L-50 900"/><path d="M540 0L40 900"/><path d="M630 0L130 900"/><path d="M720 0L220 900"/><path d="M810 0L310 900"/><path d="M900 0L400 900"/><path d="M990 0L490 900"/><path d="M1080 0L580 900"/><path d="M1170 0L670 900"/><path d="M1260 0L760 900"/><path d="M1350 0L850 900"/><path d="M1440 0L940 900"/><path d="M1530 0L1030 900"/><path d="M1620 0L1120 900"/><path d="M1710 0L1210 900"/><path d="M1800 0L1300 900"/><path d="M1890 0L1390 900"/><path d="M1980 0L1480 900"/><path d="M2070 0L1570 900"/><path d="M2160 0L1660 900"/><path d="M2250 0L1750 900"/><path d="M2340 0L1840 900"/><path d="M2430 0L1930 900"/><path d="M2520 0L2020 900"/><path d="M2610 0L2110 900"/></g><circle cx="1214.9" cy="433.0" r="1.2" fill="#fff" opacity="0.31"/><circle cx="1180.2" cy="791.2" r="1.4" fill="#fff" opacity="0.40"/><circle cx="572.0" cy="687.2" r="2.7" fill="#fff" opacity="0.34"/><circle cx="1508.1" cy="465.2" r="2.5" fill="#fff" opacity="0.16"/><circle cx="167.3" cy="23.5" r="2.9" fill="#fff" opacity="0.28"/><circle cx="850.0" cy="156.8" r="2.9" fill="#fff" opacity="0.42"/><circle cx="666.8" cy="22.4" r="0.9" fill="#fff" opacity="0.34"/><circle cx="1486.6" cy="335.0" r="2.1" fill="#fff" opacity="0.13"/><circle cx="1299.9" cy="24.2" r="2.4" fill="#fff" opacity="0.10"/><circle cx="1207.6" cy="186.3" r="2.3" fill="#fff" opacity="0.28"/><circle cx="1473.7" cy="174.2" r="2.5" fill="#fff" opacity="0.25"/><circle cx="1144.1" cy="843.5" r="0.9" fill="#fff" opacity="0.42"/><circle cx="256.3" cy="260.1" r="2.0" fill="#fff" opacity="0.25"/><circle cx="1423.7" cy="233.2" r="1.4" fill="#fff" opacity="0.22"/><circle cx="1466.2" cy="352.7" r="1.7" fill="#fff" opacity="0.21"/><circle cx="908.8" cy="566.5" r="3.0" fill="#fff" opacity="0.43"/><circle cx="1328.9" cy="756.6" r="1.5" fill="#fff" opacity="0.15"/><circle cx="320.4" cy="156.8" r="2.8" fill="#fff" opacity="0.20"/><circle cx="1052.8" cy="671.7" r="1.6" fill="#fff" opacity="0.26"/><circle cx="1162.7" cy="855.9" r="0.8" fill="#fff" opacity="0.27"/><circle cx="673.0" cy="49.3" r="2.4" fill="#fff" opacity="0.16"/><circle cx="810.8" cy="70.6" r="2.0" fill="#fff" opacity="0.24"/><circle cx="610.7" cy="216.9" r="1.4" fill="#fff" opacity="0.42"/><circle cx="103.3" cy="330.3" r="2.0" fill="#fff" opacity="0.09"/><circle cx="409.6" cy="466.0" r="1.2" fill="#fff" opacity="0.42"/><circle cx="1076.0" cy="554.9" r="1.4" fill="#fff" opacity="0.19"/><circle cx="468.1" cy="583.9" r="1.3" fill="#fff" opacity="0.32"/><circle cx="435.8" cy="535.3" r="2.7" fill="#fff" opacity="0.19"/><circle cx="1046.3" cy="404.0" r="2.1" fill="#fff" opacity="0.18"/><circle cx="640.8" cy="727.5" r="1.5" fill="#fff" opacity="0.33"/><circle cx="1146.7" cy="170.5" r="2.3" fill="#fff" opacity="0.28"/><circle cx="1392.1" cy="532.3" r="1.6" fill="#fff" opacity="0.18"/><circle cx="1001.9" cy="375.4" r="3.0" fill="#fff" opacity="0.34"/><circle cx="758.2" cy="229.5" r="2.8" fill="#fff" opacity="0.43"/><circle cx="1156.9" cy="303.7" r="1.8" fill="#fff" opacity="0.12"/><circle cx="598.5" cy="162.1" r="1.6" fill="#fff" opacity="0.08"/><circle cx="752.0" cy="790.9" r="2.3" fill="#fff" opacity="0.26"/><circle cx="485.1" cy="95.5" r="2.5" fill="#fff" opacity="0.11"/><circle cx="1548.1" cy="19.0" r="2.3" fill="#fff" opacity="0.26"/><circle cx="305.4" cy="733.6" r="3.0" fill="#fff" opacity="0.23"/><circle cx="889.0" cy="685.9" r="2.7" fill="#fff" opacity="0.08"/><circle cx="937.0" cy="189.5" r="2.8" fill="#fff" opacity="0.38"/><circle cx="1068.5" cy="738.4" r="2.5" fill="#fff" opacity="0.43"/><circle cx="326.5" cy="370.2" r="2.8" fill="#fff" opacity="0.29"/><circle cx="245.2" cy="433.9" r="1.6" fill="#fff" opacity="0.18"/><circle cx="1427.2" cy="882.1" r="1.2" fill="#fff" opacity="0.26"/><g transform="rotate(-6 1100.0 460.0)" filter="url(#Ss1042)"><rect x="760" y="310" width="680" height="370" rx="16" fill="#12100c" stroke="#35C9FF" stroke-opacity=".6" stroke-width="3"/><g transform="rotate(-9 760 310)"><path d="M760.0 240 h97.14285714285714 l-33.99999999999999 66h-97.14285714285714z" fill="#0a0907" stroke="#35C9FF" stroke-width="2"/><path d="M857.1428571428571 240 h97.14285714285714 l-33.99999999999999 66h-97.14285714285714z" fill="#35C9FF" stroke="#35C9FF" stroke-width="2"/><path d="M954.2857142857142 240 h97.14285714285714 l-33.99999999999999 66h-97.14285714285714z" fill="#0a0907" stroke="#35C9FF" stroke-width="2"/><path d="M1051.4285714285716 240 h97.14285714285714 l-33.99999999999999 66h-97.14285714285714z" fill="#35C9FF" stroke="#35C9FF" stroke-width="2"/><path d="M1148.5714285714284 240 h97.14285714285714 l-33.99999999999999 66h-97.14285714285714z" fill="#0a0907" stroke="#35C9FF" stroke-width="2"/><path d="M1245.7142857142858 240 h97.14285714285714 l-33.99999999999999 66h-97.14285714285714z" fill="#35C9FF" stroke="#35C9FF" stroke-width="2"/><path d="M1342.857142857143 240 h97.14285714285714 l-33.99999999999999 66h-97.14285714285714z" fill="#0a0907" stroke="#35C9FF" stroke-width="2"/></g><path d="M790 390H1410M790 450H1320" stroke="#fff" stroke-opacity=".18" stroke-width="6" stroke-linecap="round"/><path d="M1072.0 570L1072.0 640L1140.0 605Z" fill="url(#As1042)"/></g><path d="M700 800H1500" stroke="#35C9FF" stroke-opacity=".5" stroke-width="3"/><rect x="700" y="760" width="26" height="16" rx="3" fill="#35C9FF" opacity=".6"/><rect x="700" y="815" width="26" height="16" rx="3" fill="#35C9FF" opacity=".6"/><rect x="745" y="760" width="26" height="16" rx="3" fill="#35C9FF" opacity=".6"/><rect x="745" y="815" width="26" height="16" rx="3" fill="#35C9FF" opacity=".6"/><rect x="790" y="760" width="26" height="16" rx="3" fill="#35C9FF" opacity=".6"/><rect x="790" y="815" width="26" height="16" rx="3" fill="#35C9FF" opacity=".6"/><rect x="835" y="760" width="26" height="16" rx="3" fill="#35C9FF" opacity=".6"/><rect x="835" y="815" width="26" height="16" rx="3" fill="#35C9FF" opacity=".6"/><rect x="880" y="760" width="26" height="16" rx="3" fill="#35C9FF" opacity=".6"/><rect x="880" y="815" width="26" height="16" rx="3" fill="#35C9FF" opacity=".6"/><rect x="925" y="760" width="26" height="16" rx="3" fill="#35C9FF" opacity=".6"/><rect x="925" y="815" width="26" height="16" rx="3" fill="#35C9FF" opacity=".6"/><rect x="970" y="760" width="26" height="16" rx="3" fill="#35C9FF" opacity=".6"/><rect x="970" y="815" width="26" height="16" rx="3" fill="#35C9FF" opacity=".6"/><rect x="1015" y="760" width="26" height="16" rx="3" fill="#35C9FF" opacity=".6"/><rect x="1015" y="815" width="26" height="16" rx="3" fill="#35C9FF" opacity=".6"/><rect x="1060" y="760" width="26" height="16" rx="3" fill="#35C9FF" opacity=".6"/><rect x="1060" y="815" width="26" height="16" rx="3" fill="#35C9FF" opacity=".6"/><rect x="1105" y="760" width="26" height="16" rx="3" fill="#35C9FF" opacity=".6"/><rect x="1105" y="815" width="26" height="16" rx="3" fill="#35C9FF" opacity=".6"/><rect x="1150" y="760" width="26" height="16" rx="3" fill="#35C9FF" opacity=".6"/><rect x="1150" y="815" width="26" height="16" rx="3" fill="#35C9FF" opacity=".6"/><rect x="1195" y="760" width="26" height="16" rx="3" fill="#35C9FF" opacity=".6"/><rect x="1195" y="815" width="26" height="16" rx="3" fill="#35C9FF" opacity=".6"/><rect x="1240" y="760" width="26" height="16" rx="3" fill="#35C9FF" opacity=".6"/><rect x="1240" y="815" width="26" height="16" rx="3" fill="#35C9FF" opacity=".6"/><rect x="1285" y="760" width="26" height="16" rx="3" fill="#35C9FF" opacity=".6"/><rect x="1285" y="815" width="26" height="16" rx="3" fill="#35C9FF" opacity=".6"/><rect x="1330" y="760" width="26" height="16" rx="3" fill="#35C9FF" opacity=".6"/><rect x="1330" y="815" width="26" height="16" rx="3" fill="#35C9FF" opacity=".6"/><rect x="1375" y="760" width="26" height="16" rx="3" fill="#35C9FF" opacity=".6"/><rect x="1375" y="815" width="26" height="16" rx="3" fill="#35C9FF" opacity=".6"/><rect x="1420" y="760" width="26" height="16" rx="3" fill="#35C9FF" opacity=".6"/><rect x="1420" y="815" width="26" height="16" rx="3" fill="#35C9FF" opacity=".6"/><rect x="1465" y="760" width="26" height="16" rx="3" fill="#35C9FF" opacity=".6"/><rect x="1465" y="815" width="26" height="16" rx="3" fill="#35C9FF" opacity=".6"/><path d="M1500 60L1130 300" stroke="#fff" stroke-width="70" stroke-opacity=".08" stroke-linecap="round"/><rect width="1600" height="900" fill="none" stroke="none"/></svg>